<svg width="156" height="99" viewBox="0 0 156 99" fill="none" xmlns="http://www.w3.org/2000/svg">
<path d="M148.325 0.268921H6.97C3.25865 0.268921 0.25 3.50491 0.25 7.4967V90.6377C0.25 94.6295 3.25865 97.8655 6.97 97.8655H148.325C152.036 97.8655 155.045 94.6295 155.045 90.6377V7.4967C155.045 3.50491 152.036 0.268921 148.325 0.268921Z" fill="white"/>
<path d="M148.325 98.1344H6.975C5.12801 98.1273 3.35846 97.3354 2.05196 95.9312C0.745465 94.527 0.00790402 92.6243 0 90.6377V7.49667C0.00790402 5.51012 0.745465 3.60744 2.05196 2.20322C3.35846 0.799006 5.12801 0.00707671 6.975 0H148.325C150.172 0.00707671 151.942 0.799006 153.248 2.20322C154.555 3.60744 155.292 5.51012 155.3 7.49667V90.6377C155.292 92.6243 154.555 94.527 153.248 95.9312C151.942 97.3354 150.172 98.1273 148.325 98.1344ZM6.975 0.537782C5.26061 0.544854 3.61824 1.28012 2.40551 2.58348C1.19278 3.88685 0.5079 5.65275 0.5 7.49667V90.6377C0.5079 92.4816 1.19278 94.2475 2.40551 95.5509C3.61824 96.8543 5.26061 97.5895 6.975 97.5966H148.325C150.039 97.5895 151.682 96.8543 152.894 95.5509C154.107 94.2475 154.792 92.4816 154.8 90.6377V7.49667C154.792 5.65275 154.107 3.88685 152.894 2.58348C151.682 1.28012 150.039 0.544854 148.325 0.537782H6.975Z" fill="#231F20"/>
<path d="M66.2949 20.2421H15.4849V86.2332H66.2949V20.2421Z" fill="white"/>
<path d="M66.2899 20.2421V86.2333H15.4849V20.2421H66.2899ZM66.2899 19.7043H15.4849C15.3523 19.7043 15.2251 19.761 15.1313 19.8619C15.0375 19.9627 14.9849 20.0995 14.9849 20.2421V86.2333C14.9849 86.3759 15.0375 86.5127 15.1313 86.6136C15.2251 86.7144 15.3523 86.7711 15.4849 86.7711H66.2899C66.4225 86.7711 66.5496 86.7144 66.6434 86.6136C66.7372 86.5127 66.7899 86.3759 66.7899 86.2333V20.2421C66.7899 20.0995 66.7372 19.9627 66.6434 19.8619C66.5496 19.761 66.4225 19.7043 66.2899 19.7043Z" fill="#231F20"/>
<path d="M24.2898 49.1533C22.8698 51.6056 22.5098 54.558 22.3198 57.462H60.7698C60.8074 57.2966 60.8259 57.1268 60.8248 56.9565C60.8248 53.9611 56.3898 53.1114 55.7748 50.3418C55.4098 48.7285 56.3998 47.1151 56.6098 45.4319C56.9548 42.6193 55.1098 40.1293 53.9198 37.591C52.4798 34.4665 53.2148 30.5084 51.3498 27.7711C48.8798 24.1411 44.8798 23.3989 40.8848 23.3989C38.6499 23.3685 36.4344 23.8488 34.3848 24.8079C32.4748 25.6845 31.6148 27.6958 31.1598 29.8631C30.3948 29.5028 29.4998 29.8631 28.8098 30.4009C25.7398 32.6488 24.9048 37.0694 25.5098 40.7962C25.7998 42.5816 26.4098 44.4262 25.9098 46.174C25.5998 47.2657 24.8598 48.1638 24.2898 49.1533Z" fill="white"/>
<path d="M60.7699 57.7416H22.3199C22.2575 57.7397 22.1975 57.7151 22.1499 57.6717C22.1043 57.6132 22.081 57.5382 22.0849 57.4619C22.2649 54.7461 22.5849 51.627 24.0849 49.0188C24.2549 48.7338 24.4349 48.4487 24.6149 48.1691C25.0716 47.5416 25.4343 46.8412 25.6899 46.0932C26.0649 44.8079 25.7849 43.4043 25.5099 42.0545C25.4299 41.6565 25.3499 41.2586 25.2849 40.8606C24.7399 37.4941 25.2849 32.6756 28.6949 30.1857C29.0168 29.9101 29.388 29.7087 29.7854 29.5939C30.1828 29.4792 30.5979 29.4536 31.0049 29.5188C31.5949 26.9428 32.6799 25.3187 34.3099 24.5658C36.3895 23.5989 38.6344 23.1116 40.8999 23.1353C44.4499 23.1353 48.8649 23.6731 51.5749 27.6204C52.6349 29.1746 52.8849 31.1214 53.1299 32.9983C53.249 34.5433 53.5985 36.0577 54.1649 37.4834C54.4349 38.0642 54.7499 38.6611 55.0499 39.2365C56.0849 41.1994 57.1549 43.2322 56.8799 45.4802C56.7814 46.1228 56.6291 46.7546 56.4249 47.3678C56.1149 48.3788 55.8249 49.3414 56.0399 50.2933C56.3049 51.4872 57.3499 52.3046 58.4549 53.1705C59.7499 54.1815 61.0899 55.2355 61.0949 56.9726C61.0986 57.1664 61.0784 57.3599 61.0349 57.548C61.0171 57.6075 60.9814 57.6588 60.9334 57.6939C60.8854 57.729 60.8278 57.7458 60.7699 57.7416ZM22.5999 57.2038H60.5549C60.5598 57.1286 60.5598 57.0531 60.5549 56.9779C60.5549 55.5152 59.3749 54.5956 58.1249 53.6168C56.9949 52.7295 55.8249 51.8152 55.5149 50.4224C55.2649 49.3146 55.5949 48.239 55.9099 47.1957C56.102 46.615 56.2475 46.0177 56.3449 45.4103C56.5999 43.3452 55.5699 41.393 54.5799 39.4947C54.2699 38.9139 53.9549 38.3115 53.6799 37.7146C53.0865 36.2355 52.72 34.6627 52.5949 33.0574C52.3449 31.1644 52.0949 29.3736 51.1349 27.9324C48.5599 24.1679 44.2999 23.6785 40.8749 23.6785C38.6799 23.6517 36.5043 24.1226 34.4899 25.0606C32.9399 25.7759 31.9599 27.3247 31.4149 29.9006C31.4064 29.9404 31.3899 29.9776 31.3664 30.0096C31.3429 30.0416 31.313 30.0676 31.279 30.0856C31.245 30.1036 31.2077 30.1133 31.1698 30.1139C31.1319 30.1144 31.0943 30.1059 31.0599 30.0889C30.3199 29.7393 29.4249 30.261 28.9599 30.5998C25.7699 32.9391 25.2499 37.5156 25.7699 40.7208C25.8349 41.1134 25.9099 41.506 25.9899 41.8985C26.2749 43.3237 26.5699 44.7918 26.1599 46.2008C25.8866 47.0033 25.5004 47.756 25.0149 48.4326C24.8399 48.7069 24.6599 48.9704 24.5149 49.2608C23.1149 51.7077 22.7749 54.6063 22.5999 57.1877V57.2038Z" fill="#231F20"/>
<path d="M66.2899 67.1689V86.2333H15.4849V67.1797C20.6149 61.9417 27.9849 60.1455 34.2749 59.5539C36.7049 59.3227 38.9699 59.2689 40.8899 59.2689H41.3399C43.1299 59.2689 45.1999 59.3335 47.3949 59.5432C47.4314 59.5381 47.4683 59.5381 47.5049 59.5432C53.8049 60.1455 61.1499 61.9417 66.2899 67.1689Z" fill="#CA973C"/>
<path d="M47.6501 63.2054L42.8651 81.0168L41.4601 86.2171H40.3201L38.9151 80.9953L34.1401 63.2485C34.1424 63.2342 34.1424 63.2197 34.1401 63.2054C37.3651 62.1729 44.4151 62.1729 47.6501 63.2054Z" fill="#CA973C"/>
<path d="M34.1499 63.2108C34.1499 63.2108 35.8349 67.1635 40.7599 67.1635C42.1275 67.1979 43.4802 66.8522 44.6872 66.1597C45.8942 65.4673 46.9147 64.4516 47.6499 63.2108L46.9899 47.6797H34.7799L34.1499 63.2108Z" fill="white"/>
<path d="M40.7348 67.4432C35.7048 67.4432 33.9048 63.3668 33.8898 63.3291C33.8805 63.2867 33.8805 63.2425 33.8898 63.2001L34.5498 47.6635C34.5536 47.5931 34.582 47.5268 34.6293 47.478C34.6766 47.4291 34.7393 47.4013 34.8048 47.4H46.9998C47.0663 47.3999 47.1302 47.4271 47.1786 47.4762C47.2269 47.5252 47.256 47.5922 47.2598 47.6635L47.9148 63.2001C47.917 63.2505 47.9066 63.3006 47.8848 63.3453C47.1189 64.6296 46.0593 65.6808 44.8073 66.3983C43.5554 67.1159 42.1531 67.4756 40.7348 67.4432ZM34.3848 63.1409C34.6148 63.641 36.3098 66.8785 40.7348 66.8785C42.0507 66.9105 43.3526 66.5817 44.5177 65.9231C45.6829 65.2645 46.673 64.2978 47.3948 63.114L46.7548 47.9271H35.0298L34.3848 63.1409Z" fill="#231F20"/>
<path d="M34.78 54.3267C35.7246 55.7979 36.9943 56.9936 38.475 57.8061C40.895 59.2474 44.515 60.8661 47.45 60.3821L46.95 53.8158C44.7925 54.1065 42.6106 54.1209 40.45 53.8588C38.555 53.6814 36.6 53.4878 34.86 52.6972C34.6 52.552 34.405 53.6921 34.78 54.3267Z" fill="#231F20"/>
<path d="M46.3301 60.737C43.3701 60.737 40.1401 59.1237 38.3301 58.0481C36.8075 57.2196 35.5052 55.9891 34.5451 54.4719C34.3921 54.1845 34.3115 53.8592 34.3115 53.528C34.3115 53.1969 34.3921 52.8715 34.5451 52.5842C34.5966 52.511 34.6697 52.4589 34.7524 52.4364C34.8351 52.4139 34.9225 52.4224 35.0001 52.4605C36.7301 53.2403 38.7401 53.4339 40.5001 53.6006C42.6341 53.8597 44.7892 53.8452 46.9201 53.5576C46.9891 53.5478 47.059 53.5671 47.1151 53.6114C47.1661 53.6597 47.1982 53.7269 47.2051 53.7996L47.7051 60.3659C47.7098 60.4337 47.6909 60.501 47.6521 60.5546C47.6133 60.6083 47.5574 60.6445 47.4951 60.6563C47.1091 60.7135 46.7197 60.7404 46.3301 60.737ZM34.8901 52.9822C34.8309 53.179 34.8093 53.3867 34.8265 53.5928C34.8437 53.7988 34.8993 53.9991 34.9901 54.1814C35.9078 55.6189 37.1477 56.7841 38.5951 57.5695C40.5101 58.7096 44.1351 60.5327 47.1851 60.1455L46.7401 54.1169C44.655 54.3689 42.5502 54.3689 40.4651 54.1169C38.6901 53.961 36.6751 53.7727 34.8901 52.9822Z" fill="#231F20"/>
<path d="M23.7101 86.5076C23.6471 86.5071 23.5863 86.4824 23.5387 86.4381C23.491 86.3937 23.4596 86.3326 23.4501 86.2656L21.4751 70.2558C21.4753 70.1898 21.4976 70.126 21.5379 70.0763C21.5783 70.0265 21.6339 69.9941 21.6947 69.9849C21.7555 69.9758 21.8174 69.9905 21.8689 70.0265C21.9204 70.0624 21.9581 70.1171 21.9751 70.1805L23.9751 86.1957C23.9836 86.2691 23.9647 86.3431 23.9225 86.4016C23.8803 86.4601 23.8183 86.4982 23.7501 86.5076H23.7101Z" fill="#231F20"/>
<path d="M58.075 86.5075H58.0399C57.9726 86.4968 57.9119 86.4582 57.8707 86.3999C57.8296 86.3416 57.8114 86.2682 57.8199 86.1956L59.795 70.1805C59.8166 70.1224 59.8556 70.0738 59.9059 70.0425C59.9562 70.0111 60.0148 69.9988 60.0724 70.0075C60.1299 70.0161 60.1831 70.0453 60.2235 70.0903C60.2638 70.1353 60.289 70.1936 60.295 70.2557L58.2949 86.2655C58.2879 86.3262 58.2626 86.3827 58.2229 86.4264C58.1831 86.4701 58.1312 86.4986 58.075 86.5075Z" fill="#231F20"/>
<path d="M48.5898 44.1089C48.9948 40.4628 53.1848 39.5647 52.9798 43.8615C52.9661 45.2908 52.578 46.6869 51.8598 47.8895C51.1448 48.9651 49.9848 49.4437 49.0498 48.8414" fill="white"/>
<path d="M49.925 49.3792C49.5724 49.3784 49.2267 49.2743 48.925 49.078C48.867 49.0391 48.8256 48.9773 48.8097 48.9058C48.7938 48.8344 48.8047 48.7591 48.84 48.6962C48.8752 48.6342 48.9318 48.5898 48.9974 48.5726C49.063 48.5555 49.1323 48.567 49.19 48.6047C49.96 49.0995 50.975 48.7392 51.665 47.7282C52.3516 46.567 52.7206 45.2215 52.73 43.8454C52.805 42.3234 52.3 41.3608 51.375 41.2748C50.315 41.1672 49.06 42.3073 48.875 44.1411C48.8537 44.1991 48.8151 44.2477 48.7652 44.2793C48.7153 44.3109 48.6571 44.3237 48.5997 44.3157C48.5423 44.3077 48.489 44.2793 48.4483 44.235C48.4076 44.1907 48.3818 44.1331 48.375 44.0712C48.625 41.8502 50.165 40.6025 51.455 40.7209C52.41 40.8123 53.39 41.6835 53.28 43.8723C53.2633 45.3567 52.8597 46.8063 52.115 48.0562C51.8739 48.4479 51.5495 48.7723 51.1686 49.0023C50.7878 49.2324 50.3615 49.3615 49.925 49.3792Z" fill="#231F20"/>
<path d="M32.7899 44.1089C32.3849 40.4628 28.1949 39.5647 28.3999 43.8615C28.4136 45.2908 28.8017 46.6869 29.5199 47.8895C30.2349 48.9651 31.3949 49.4437 32.3299 48.8414" fill="white"/>
<path d="M31.4502 49.379C31.0223 49.3531 30.606 49.22 30.2344 48.9903C29.8629 48.7606 29.5464 48.4407 29.3102 48.0561C28.5648 46.8065 28.1611 45.3567 28.1452 43.8721C28.0352 41.6834 29.0152 40.8122 29.9702 40.7207C31.2552 40.6024 32.8002 41.8501 33.0452 44.0711C33.0501 44.1076 33.0481 44.1447 33.0394 44.1804C33.0306 44.216 33.0153 44.2494 32.9943 44.2785C32.9733 44.3076 32.947 44.3318 32.9171 44.3498C32.8872 44.3678 32.8543 44.3791 32.8202 44.383C32.7527 44.3907 32.6852 44.3696 32.6319 44.3244C32.5787 44.2792 32.544 44.2134 32.5352 44.141C32.3302 42.3072 31.0652 41.1671 30.0352 41.2746C29.1152 41.3607 28.6102 42.3502 28.6852 43.8452C28.6945 45.2213 29.0636 46.5668 29.7502 47.728C30.4402 48.7391 31.4552 49.0994 32.2252 48.6046C32.2829 48.5669 32.3522 48.5554 32.4178 48.5725C32.4834 48.5896 32.54 48.6341 32.5752 48.696C32.6105 48.7589 32.6214 48.8342 32.6055 48.9057C32.5896 48.9771 32.5482 49.039 32.4902 49.0779C32.1768 49.2815 31.8163 49.3859 31.4502 49.379Z" fill="#231F20"/>
<path d="M49.9201 36.1067V46.6687C49.9201 47.874 49.6993 49.0674 49.2703 50.1809C48.8413 51.2944 48.2126 52.306 47.42 53.158C46.6273 54.01 45.6864 54.6857 44.6509 55.1464C43.6154 55.6072 42.5057 55.844 41.3851 55.8433H40.3851C39.2645 55.844 38.1548 55.6072 37.1193 55.1464C36.0838 54.6857 35.1429 54.01 34.3502 53.158C33.5576 52.306 32.9289 51.2944 32.4999 50.1809C32.0709 49.0674 31.8501 47.874 31.8501 46.6687V36.6498L37.2201 36.1712L37.8351 31.5893L39.1801 36.7735L42.9951 36.2357C43.3851 34.4019 42.9951 30.4438 42.9351 30.2664L45.6851 35.8109L49.9201 36.1067Z" fill="white"/>
<path d="M41.3848 56.1229H40.3848C38.0539 56.1201 35.8192 55.1233 34.1705 53.351C32.5219 51.5788 31.5938 49.1758 31.5898 46.6687V36.6499C31.5908 36.581 31.6153 36.515 31.6586 36.4644C31.702 36.4138 31.7612 36.3822 31.8248 36.3756L36.9948 35.9131L37.5798 31.5463C37.5897 31.4838 37.6186 31.4265 37.6621 31.3837C37.7055 31.3408 37.7611 31.3148 37.8198 31.3097C37.8794 31.304 37.939 31.3215 37.9876 31.359C38.0362 31.3965 38.0707 31.4515 38.0848 31.514L39.3698 36.467L42.7798 35.983C43.0898 34.1545 42.7198 30.5138 42.6848 30.3202C42.6616 30.2488 42.6657 30.1705 42.6962 30.1025C42.7267 30.0344 42.781 29.9821 42.8473 29.9572C42.9137 29.9322 42.9865 29.9366 43.0497 29.9694C43.113 30.0021 43.1616 30.0606 43.1848 30.1319L45.8648 35.542L49.9498 35.8324C50.0148 35.8365 50.0759 35.8672 50.1205 35.9182C50.1652 35.9692 50.19 36.0367 50.1898 36.1067V46.6687C50.1872 49.1781 49.2582 51.5836 47.6071 53.3564C45.956 55.1293 43.7179 56.1244 41.3848 56.1229ZM32.1098 36.908V46.6687C32.1138 49.0288 32.9876 51.291 34.5397 52.9594C36.0918 54.6277 38.1955 55.5662 40.3898 55.569H41.3898C43.5811 55.5619 45.6805 54.6214 47.2285 52.9533C48.7766 51.2853 49.6472 49.0256 49.6498 46.6687V36.3702L45.6498 36.0852C45.6067 36.0805 45.5651 36.0649 45.5286 36.0397C45.4921 36.0145 45.4617 35.9803 45.4398 35.94L43.3098 31.6377C43.4626 33.1877 43.4357 34.7521 43.2298 36.2949C43.2183 36.3499 43.1917 36.3999 43.1533 36.4382C43.1149 36.4766 43.0667 36.5017 43.0148 36.51L39.1998 37.0478C39.1388 37.0556 39.0773 37.0398 39.026 37.0034C38.9747 36.967 38.9371 36.9122 38.9198 36.8488L37.9198 32.9284L37.4798 36.2089C37.4719 36.2714 37.4443 36.329 37.4014 36.3721C37.3586 36.4152 37.3033 36.4411 37.2448 36.4455L32.1098 36.908Z" fill="#231F20"/>
<path d="M41.0249 47.8033C40.6139 47.8036 40.2032 47.7784 39.7949 47.728C39.7059 47.7147 39.6209 47.6797 39.5463 47.6256C39.4718 47.5716 39.4098 47.4999 39.3649 47.4161C38.7249 46.2707 40.3949 41.4468 40.7399 40.4949C40.7638 40.4236 40.813 40.3654 40.8768 40.3331C40.9405 40.3008 41.0136 40.2971 41.0799 40.3228C41.1462 40.3485 41.2003 40.4014 41.2303 40.47C41.2603 40.5386 41.2638 40.6172 41.2399 40.6885C40.4849 42.8073 39.4349 46.4266 39.8249 47.1419C39.8249 47.1849 39.8649 47.1849 39.8799 47.1849C40.6807 47.2812 41.4891 47.2812 42.2899 47.1849C42.3582 47.1758 42.427 47.1961 42.4814 47.2415C42.5357 47.2868 42.5712 47.3535 42.5799 47.4269C42.5871 47.5001 42.5677 47.5734 42.5257 47.6315C42.4838 47.6897 42.4226 47.7281 42.3549 47.7388C41.9131 47.7879 41.469 47.8095 41.0249 47.8033Z" fill="#231F20"/>
<path d="M155.05 10.8828H0.25C0.183696 10.8828 0.120107 10.8546 0.0732231 10.8044C0.026339 10.7541 0 10.6859 0 10.6149C0.00128004 10.5442 0.0280289 10.4769 0.0746384 10.4269C0.121248 10.377 0.184097 10.3483 0.25 10.3469H155.05C155.116 10.3483 155.179 10.377 155.225 10.4269C155.272 10.4769 155.299 10.5442 155.3 10.6149C155.3 10.6859 155.274 10.7541 155.227 10.8044C155.18 10.8546 155.116 10.8828 155.05 10.8828Z" fill="#231F20"/>
<path d="M140.435 25.6683H98.4249C97.8367 25.6683 97.3599 26.18 97.3599 26.8111C97.3599 27.4423 97.8367 27.9539 98.4249 27.9539H140.435C141.023 27.9539 141.5 27.4423 141.5 26.8111C141.5 26.18 141.023 25.6683 140.435 25.6683Z" fill="#D1D3D4"/>
<path d="M123.155 43.9044H98.4249C97.8367 43.9044 97.3599 44.4161 97.3599 45.0472C97.3599 45.6784 97.8367 46.19 98.4249 46.19H123.155C123.743 46.19 124.22 45.6784 124.22 45.0472C124.22 44.4161 123.743 43.9044 123.155 43.9044Z" fill="#D1D3D4"/>
<path d="M135.25 61.2856H98.4249C97.8367 61.2856 97.3599 61.7973 97.3599 62.4284C97.3599 63.0596 97.8367 63.5712 98.4249 63.5712H135.25C135.838 63.5712 136.315 63.0596 136.315 62.4284C136.315 61.7973 135.838 61.2856 135.25 61.2856Z" fill="#D1D3D4"/>
<path d="M130.38 78.6666H98.4249C97.8367 78.6666 97.3599 79.1783 97.3599 79.8094C97.3599 80.4406 97.8367 80.9522 98.4249 80.9522H130.38C130.968 80.9522 131.445 80.4406 131.445 79.8094C131.445 79.1783 130.968 78.6666 130.38 78.6666Z" fill="#D1D3D4"/>
<path d="M86.2598 31.5033V30.019C86.2598 29.1633 85.9437 28.3426 85.3811 27.7374C84.8185 27.1323 84.0554 26.7924 83.2598 26.7924C82.4641 26.7924 81.7011 27.1323 81.1384 27.7374C80.5758 28.3426 80.2598 29.1633 80.2598 30.019V31.5033H86.2598Z" fill="white"/>
<path d="M86.26 31.7721H80.295C80.2287 31.7721 80.1651 31.7438 80.1182 31.6933C80.0713 31.6429 80.045 31.5745 80.045 31.5032V30.0189C80.0279 29.5508 80.0988 29.0839 80.2535 28.646C80.4083 28.2081 80.6436 27.8083 80.9455 27.4707C81.2473 27.133 81.6095 26.8643 82.0102 26.6808C82.4109 26.4973 82.842 26.4027 83.2775 26.4027C83.713 26.4027 84.1441 26.4973 84.5448 26.6808C84.9455 26.8643 85.3076 27.133 85.6095 27.4707C85.9113 27.8083 86.1467 28.2081 86.3014 28.646C86.4562 29.0839 86.5271 29.5508 86.51 30.0189V31.5032C86.51 31.5745 86.4836 31.6429 86.4368 31.6933C86.3899 31.7438 86.3263 31.7721 86.26 31.7721ZM80.545 31.2343H86.01V30.0189C86.0258 29.6224 85.9668 29.2265 85.8366 28.8552C85.7063 28.4838 85.5076 28.1446 85.2523 27.858C84.997 27.5715 84.6905 27.3434 84.3511 27.1876C84.0117 27.0318 83.6465 26.9515 83.2775 26.9515C82.9085 26.9515 82.5433 27.0318 82.2039 27.1876C81.8645 27.3434 81.5579 27.5715 81.3026 27.858C81.0473 28.1446 80.8486 28.4838 80.7184 28.8552C80.5882 29.2265 80.5292 29.6224 80.545 30.0189V31.2343Z" fill="#D1D3D4"/>
<path d="M83.2749 26.8085C84.4485 26.8085 85.3999 25.7852 85.3999 24.5229C85.3999 23.2606 84.4485 22.2373 83.2749 22.2373C82.1013 22.2373 81.1499 23.2606 81.1499 24.5229C81.1499 25.7852 82.1013 26.8085 83.2749 26.8085Z" fill="white"/>
<path d="M83.275 27.0773C82.8041 27.0773 82.3437 26.9271 81.9522 26.6455C81.5607 26.364 81.2557 25.9639 81.0757 25.4958C80.8957 25.0278 80.8489 24.5128 80.9411 24.0161C81.0334 23.5194 81.2605 23.0633 81.5939 22.7055C81.9272 22.3477 82.3518 22.1043 82.8138 22.0062C83.2758 21.908 83.7545 21.9595 84.1893 22.154C84.6241 22.3486 84.9954 22.6776 85.2563 23.0992C85.5173 23.5209 85.656 24.0163 85.655 24.5229C85.655 24.8588 85.5934 25.1914 85.4737 25.5017C85.3541 25.8119 85.1787 26.0938 84.9576 26.331C84.7366 26.5683 84.4741 26.7564 84.1854 26.8844C83.8967 27.0125 83.5873 27.078 83.275 27.0773ZM83.275 22.5008C82.9032 22.5008 82.5397 22.6194 82.2305 22.8416C81.9214 23.0638 81.6804 23.3796 81.5381 23.7491C81.3958 24.1185 81.3586 24.5251 81.4311 24.9173C81.5037 25.3096 81.6827 25.6699 81.9457 25.9527C82.2086 26.2355 82.5436 26.428 82.9082 26.5061C83.2729 26.5841 83.6509 26.544 83.9945 26.391C84.338 26.238 84.6316 25.9788 84.8382 25.6463C85.0448 25.3137 85.155 24.9228 85.155 24.5229C85.155 24.2573 85.1064 23.9944 85.0119 23.7491C84.9174 23.5037 84.7789 23.2808 84.6044 23.093C84.4298 22.9053 84.2225 22.7563 83.9945 22.6547C83.7664 22.5531 83.5219 22.5008 83.275 22.5008Z" fill="#D1D3D4"/>
<path d="M86.6801 48.7822H79.1401V42.9634L82.9101 40.6294L86.6801 42.9634V48.7822Z" fill="white"/>
<path d="M86.6799 49.0672H79.1499C79.0836 49.0672 79.02 49.0389 78.9731 48.9885C78.9262 48.9381 78.8999 48.8697 78.8999 48.7984V42.9634C78.9002 42.9165 78.9118 42.8705 78.9338 42.8299C78.9557 42.7893 78.9871 42.7556 79.0249 42.7322L82.7949 40.3982C82.8329 40.3746 82.876 40.3622 82.9199 40.3622C82.9638 40.3622 83.0069 40.3746 83.0449 40.3982L86.8149 42.7322C86.8534 42.7548 86.8854 42.7883 86.9074 42.829C86.9295 42.8698 86.9407 42.9163 86.9399 42.9634V48.7768C86.9428 48.8148 86.9381 48.8531 86.9262 48.889C86.9143 48.9249 86.8954 48.9577 86.8708 48.9851C86.8462 49.0126 86.8165 49.0341 86.7836 49.0483C86.7506 49.0624 86.7153 49.0689 86.6799 49.0672ZM79.3899 48.5295H86.4299V43.1516L82.9299 40.9736L79.4299 43.1516L79.3899 48.5295Z" fill="#D1D3D4"/>
<path d="M84.2251 44.7058H81.6001V48.7822H84.2251V44.7058Z" fill="white"/>
<path d="M84.2251 49.0672H81.6001C81.5338 49.0672 81.4702 49.0389 81.4233 48.9884C81.3764 48.938 81.3501 48.8696 81.3501 48.7983V44.7273C81.3501 44.656 81.3764 44.5876 81.4233 44.5371C81.4702 44.4867 81.5338 44.4584 81.6001 44.4584H84.2251C84.2914 44.4584 84.355 44.4867 84.4019 44.5371C84.4488 44.5876 84.4751 44.656 84.4751 44.7273V48.7983C84.4751 48.8696 84.4488 48.938 84.4019 48.9884C84.355 49.0389 84.2914 49.0672 84.2251 49.0672ZM81.8501 48.5294H83.9751V44.9962H81.8501V48.5294Z" fill="#D1D3D4"/>
<path d="M77.9751 43.6464L82.9101 40.6294L87.8101 43.6464" fill="white"/>
<path d="M87.8102 43.9153C87.7683 43.9155 87.7271 43.9044 87.6902 43.883L82.9102 40.9414L78.1002 43.883C78.0425 43.9179 77.9743 43.9267 77.9106 43.9075C77.8468 43.8884 77.7928 43.8428 77.7602 43.7809C77.7433 43.7506 77.7322 43.7171 77.7275 43.6821C77.7229 43.6472 77.7249 43.6116 77.7333 43.5775C77.7416 43.5434 77.7563 43.5115 77.7764 43.4836C77.7965 43.4557 77.8216 43.4324 77.8502 43.4152L82.7902 40.3982C82.8273 40.3746 82.8696 40.3621 82.9127 40.3621C82.9558 40.3621 82.9981 40.3746 83.0352 40.3982L87.9352 43.4152C87.9821 43.4451 88.0187 43.4908 88.0392 43.5451C88.0598 43.5995 88.0632 43.6596 88.0491 43.7162C88.0349 43.7729 88.0039 43.823 87.9608 43.859C87.9176 43.8949 87.8648 43.9147 87.8102 43.9153Z" fill="#D1D3D4"/>
<path d="M86.7049 60.7371H79.1999C78.805 60.7371 78.4849 61.0814 78.4849 61.5061V65.2813C78.4849 65.706 78.805 66.0503 79.1999 66.0503H86.7049C87.0997 66.0503 87.4199 65.706 87.4199 65.2813V61.5061C87.4199 61.0814 87.0997 60.7371 86.7049 60.7371Z" fill="white"/>
<path d="M86.7101 66.3192H79.2101C79.0834 66.3192 78.9579 66.2924 78.8408 66.2402C78.7237 66.188 78.6174 66.1116 78.5278 66.0152C78.4381 65.9188 78.3671 65.8044 78.3186 65.6785C78.2701 65.5525 78.2451 65.4176 78.2451 65.2813V61.5168C78.2464 61.242 78.3485 60.9788 78.5292 60.7844C78.7099 60.5901 78.9546 60.4803 79.2101 60.4789H86.7101C86.9656 60.4803 87.2103 60.5901 87.391 60.7844C87.5717 60.9788 87.6738 61.242 87.6751 61.5168V65.2813C87.6751 65.4176 87.6502 65.5525 87.6017 65.6785C87.5532 65.8044 87.4821 65.9188 87.3925 66.0152C87.3029 66.1116 87.1965 66.188 87.0794 66.2402C86.9623 66.2924 86.8368 66.3192 86.7101 66.3192ZM79.2101 61.0059C79.0868 61.0059 78.9685 61.0586 78.8813 61.1524C78.7941 61.2462 78.7451 61.3734 78.7451 61.506V65.2705C78.7451 65.4032 78.7941 65.5304 78.8813 65.6242C78.9685 65.718 79.0868 65.7707 79.2101 65.7707H86.7101C86.8334 65.7707 86.9517 65.718 87.0389 65.6242C87.1261 65.5304 87.1751 65.4032 87.1751 65.2705V61.506C87.1751 61.3734 87.1261 61.2462 87.0389 61.1524C86.9517 61.0586 86.8334 61.0059 86.7101 61.0059H79.2101Z" fill="#D1D3D4"/>
<path d="M82.0352 59.285H84.0602C84.2883 59.285 84.507 59.3825 84.6683 59.556C84.8296 59.7294 84.9202 59.9647 84.9202 60.21V60.7478H81.1802V60.21C81.1802 59.9656 81.2701 59.7312 81.4303 59.5578C81.5905 59.3845 81.808 59.2865 82.0352 59.285Z" fill="white"/>
<path d="M84.9148 61.0059H81.1748C81.1085 61.0059 81.0449 60.9776 80.998 60.9272C80.9512 60.8767 80.9248 60.8084 80.9248 60.737V60.1993C80.9242 60.0423 80.9524 59.8867 81.008 59.7415C81.0635 59.5964 81.1452 59.4645 81.2484 59.3535C81.3517 59.2425 81.4743 59.1546 81.6093 59.0948C81.7442 59.0351 81.8889 59.0047 82.0348 59.0054H84.0348C84.1803 59.0054 84.3244 59.0363 84.4588 59.0964C84.5932 59.1564 84.7153 59.2445 84.8179 59.3554C84.9206 59.4663 85.0019 59.598 85.0571 59.7428C85.1124 59.8876 85.1405 60.0427 85.1398 60.1993V60.737C85.1401 60.8039 85.1172 60.8685 85.0756 60.9183C85.034 60.968 84.9767 60.9992 84.9148 61.0059ZM81.4148 60.4681H84.6498V60.2046C84.6498 60.0316 84.5862 59.8655 84.4729 59.7426C84.3596 59.6197 84.2057 59.55 84.0448 59.5485H82.0448C81.883 59.5485 81.7279 59.6177 81.6135 59.7407C81.4991 59.8638 81.4348 60.0306 81.4348 60.2046L81.4148 60.4681Z" fill="#D1D3D4"/>
<path d="M86.9051 76.1229H80.4751V84.1735H86.9051V76.1229Z" fill="white"/>
<path d="M86.9051 84.4478H80.4751C80.4088 84.4478 80.3452 84.4194 80.2983 84.369C80.2514 84.3186 80.2251 84.2502 80.2251 84.1789V76.1122C80.2251 76.0408 80.2514 75.9724 80.2983 75.922C80.3452 75.8716 80.4088 75.8433 80.4751 75.8433H86.9051C86.9714 75.8433 87.035 75.8716 87.0819 75.922C87.1288 75.9724 87.1551 76.0408 87.1551 76.1122V84.1789C87.1551 84.2502 87.1288 84.3186 87.0819 84.369C87.035 84.4194 86.9714 84.4478 86.9051 84.4478ZM80.7251 83.91H86.6501V76.381H80.7251V83.91Z" fill="#D1D3D4"/>
<path d="M85.3148 74.9452H78.8848V82.9958H85.3148V74.9452Z" fill="white"/>
<path d="M85.3148 83.2647H78.8848C78.8185 83.2647 78.7549 83.2364 78.708 83.1859C78.6611 83.1355 78.6348 83.0671 78.6348 82.9958V74.929C78.6348 74.8577 78.6611 74.7893 78.708 74.7389C78.7549 74.6885 78.8185 74.6602 78.8848 74.6602H85.3148C85.3811 74.6602 85.4446 74.6885 85.4915 74.7389C85.5384 74.7893 85.5648 74.8577 85.5648 74.929V82.9958C85.5648 83.0671 85.5384 83.1355 85.4915 83.1859C85.4446 83.2364 85.3811 83.2647 85.3148 83.2647ZM79.1348 82.7269H85.0648V75.1979H79.1498L79.1348 82.7269Z" fill="#D1D3D4"/>
<path d="M83.6902 77.2666H80.2402C80.1739 77.2666 80.1103 77.2384 80.0635 77.1881C80.0166 77.1379 79.9902 77.0697 79.9902 76.9987C79.9902 76.9276 80.0166 76.8594 80.0635 76.8092C80.1103 76.7589 80.1739 76.7307 80.2402 76.7307H83.6902C83.7565 76.7307 83.8201 76.7589 83.867 76.8092C83.9139 76.8594 83.9402 76.9276 83.9402 76.9987C83.939 77.0693 83.9122 77.1367 83.8656 77.1866C83.819 77.2366 83.7561 77.2653 83.6902 77.2666Z" fill="#D1D3D4"/>
<path d="M83.6902 78.6433H80.2402C80.1739 78.6433 80.1103 78.6151 80.0635 78.5648C80.0166 78.5146 79.9902 78.4464 79.9902 78.3754C79.9902 78.3043 80.0166 78.2362 80.0635 78.1859C80.1103 78.1357 80.1739 78.1074 80.2402 78.1074H83.6902C83.7565 78.1074 83.8201 78.1357 83.867 78.1859C83.9139 78.2362 83.9402 78.3043 83.9402 78.3754C83.9402 78.4464 83.9139 78.5146 83.867 78.5648C83.8201 78.6151 83.7565 78.6433 83.6902 78.6433Z" fill="#D1D3D4"/>
<path d="M83.6902 79.9663H80.2402C80.1739 79.9663 80.1103 79.9381 80.0635 79.8878C80.0166 79.8376 79.9902 79.7694 79.9902 79.6984C79.9902 79.6273 80.0166 79.5591 80.0635 79.5089C80.1103 79.4586 80.1739 79.4304 80.2402 79.4304H83.6902C83.7561 79.4318 83.819 79.4605 83.8656 79.5104C83.9122 79.5604 83.939 79.6277 83.9402 79.6984C83.9402 79.7694 83.9139 79.8376 83.867 79.8878C83.8201 79.9381 83.7565 79.9663 83.6902 79.9663Z" fill="#D1D3D4"/>
<path d="M83.6902 81.3322H80.2402C80.1739 81.3322 80.1103 81.3039 80.0635 81.2537C80.0166 81.2034 79.9902 81.1353 79.9902 81.0642C79.9902 80.9932 80.0166 80.925 80.0635 80.8748C80.1103 80.8245 80.1739 80.7963 80.2402 80.7963H83.6902C83.7565 80.7963 83.8201 80.8245 83.867 80.8748C83.9139 80.925 83.9402 80.9932 83.9402 81.0642C83.939 81.1349 83.9122 81.2022 83.8656 81.2522C83.819 81.3021 83.7561 81.3308 83.6902 81.3322Z" fill="#D1D3D4"/>
</svg>
