<svg width="26" height="27" viewBox="0 0 26 27" fill="none" xmlns="http://www.w3.org/2000/svg">
<path d="M12.9998 2.77795C8.80734 2.77795 5.4165 6.16879 5.4165 10.3613C5.4165 16.0488 12.9998 24.4446 12.9998 24.4446C12.9998 24.4446 20.5832 16.0488 20.5832 10.3613C20.5832 6.16879 17.1923 2.77795 12.9998 2.77795ZM7.58317 10.3613C7.58317 7.37129 10.0098 4.94462 12.9998 4.94462C15.9898 4.94462 18.4165 7.37129 18.4165 10.3613C18.4165 13.4813 15.2965 18.1505 12.9998 21.0646C10.7465 18.1721 7.58317 13.4488 7.58317 10.3613Z" fill="#313B44"/>
<path d="M12.9998 13.0696C14.4956 13.0696 15.7082 11.8571 15.7082 10.3613C15.7082 8.86552 14.4956 7.65295 12.9998 7.65295C11.5041 7.65295 10.2915 8.86552 10.2915 10.3613C10.2915 11.8571 11.5041 13.0696 12.9998 13.0696Z" fill="#313B44"/>
</svg>
