<svg width="394" height="320" viewBox="0 0 394 320" fill="none" xmlns="http://www.w3.org/2000/svg">
<g clip-path="url(#clip0_238_261)">
<path opacity="0.18" d="M386.253 196.811C379.291 209.431 366.683 219.283 363.184 233.178C361.676 239.172 362.023 245.482 361.247 251.59C358.506 273.078 341.759 290.989 321.797 301.14C320.956 301.579 320.106 302.019 319.266 302.388C306.155 308.54 291.967 311.897 277.495 313.997C268.697 315.254 259.798 316.054 251 316.731C214.266 319.52 177.481 320.536 140.643 319.78C122.846 319.429 104.692 318.62 87.9547 312.934C87.0959 312.653 86.2462 312.345 85.3966 312.055C71.8201 306.984 59.7603 298.653 49.0892 289.117L48.5958 288.678C32.6805 274.37 19.5152 257.039 11.0094 237.783C-1.12735 210.226 -3.23598 179.534 5.02515 150.68C10.0592 133.524 18.8483 117.16 20.2096 99.3897C21.2328 86.0311 17.9621 72.4968 20.1365 59.27C24.4122 32.9747 49.7927 13.631 76.5984 7.16267C103.404 0.694295 131.608 4.32397 158.98 8.04153C172.346 9.87833 187.996 14.7823 201.235 10.8539C217.507 6.03774 231.183 0.0351542 248.743 0C255.906 0 263.206 0.720661 269.757 3.51542C277.705 6.85507 284.009 12.9192 290.468 18.456C308.494 33.9941 329.051 46.5793 347.469 61.6956C365.888 76.812 382.589 95.1712 389.368 117.521C392.685 128.445 393.498 139.931 393.854 151.304C394.357 166.842 393.836 183.083 386.253 196.811Z" fill="#489152"/>
<path d="M293.017 103.503H106.172C98.1493 103.503 91.6455 109.759 91.6455 117.476V237.44C91.6455 245.158 98.1493 251.414 106.172 251.414H293.017C301.04 251.414 307.544 245.158 307.544 237.44V117.476C307.544 109.759 301.04 103.503 293.017 103.503Z" fill="#0E592C"/>
<path d="M103.184 192.882C100.964 194.412 98.0225 194.64 95.6928 195.967C93.4803 197.433 91.8151 199.543 90.942 201.987C88.7675 207.146 88.4478 212.841 88.4752 218.404C88.4752 224.284 88.3838 230.831 89.7908 236.579C90.1745 238.161 92.7327 245.113 95.2177 244.849C96.7891 244.682 98.1413 216.822 98.726 213.21C99.3107 209.598 99.9685 206.179 100.745 202.664C101.138 200.924 101.741 193.884 103.184 192.882Z" fill="url(#paint0_linear_238_261)"/>
<path d="M294.369 114.067H104.829V237.836H294.369V114.067Z" fill="white"/>
<path d="M229.045 241.298C229.173 238.662 229.74 235.595 227.849 233.67C226.909 232.888 225.845 232.256 224.697 231.798C222.783 230.781 221.15 229.339 219.935 227.591C218.719 225.844 217.955 223.842 217.707 221.753C217.47 219.512 217.844 217.244 217.707 214.986C217.497 210.38 215.305 206.074 212.756 202.163C210.207 198.252 207.274 194.57 205.209 190.395C204.78 189.516 204.487 188.277 205.319 187.759C206.15 187.24 207.274 187.969 208.005 188.637C215.926 196.468 224.697 203.701 234.746 208.719C237.853 210.275 241.096 211.611 243.974 213.527C248.761 216.726 252.325 221.436 254.938 226.428C257.55 231.42 259.222 236.86 260.913 242.248C261.534 244.216 262.146 246.361 261.424 248.294C261.239 248.894 260.837 249.412 260.291 249.753C259.767 249.994 259.191 250.115 258.61 250.105C251.301 250.491 243.928 250.5 236.574 250.588C234.746 250.588 232.581 251.001 231.092 249.762C228.991 247.969 228.927 243.698 229.045 241.298Z" fill="url(#paint1_linear_238_261)"/>
<path d="M133.699 136.513H128.053V186.221H133.699V136.513Z" fill="#313B44"/>
<path d="M143.53 144.642H137.884V186.221H143.53V144.642Z" fill="#313B44"/>
<path d="M153.151 152.06H147.504V186.212H153.151V152.06Z" fill="#313B44"/>
<path d="M162.981 144.642H157.335V186.221H162.981V144.642Z" fill="#313B44"/>
<path d="M172.611 161.358H166.965V186.212H172.611V161.358Z" fill="#313B44"/>
<path d="M182.442 144.642H176.795V186.221H182.442V144.642Z" fill="#313B44"/>
<path d="M192.062 157.122H186.416V186.221H192.062V157.122Z" fill="#313B44"/>
<path d="M201.892 151.523H196.246V186.221H201.892V151.523Z" fill="#313B44"/>
<path d="M157.865 201.917H125.541V203.727H157.865V201.917Z" fill="#313B44"/>
<path d="M157.865 206.944H125.541V208.755H157.865V206.944Z" fill="#313B44"/>
<path d="M157.865 211.971H125.541V213.782H157.865V211.971Z" fill="#313B44"/>
<path d="M157.865 217.007H125.541V218.817H157.865V217.007Z" fill="#313B44"/>
<path d="M157.865 222.034H125.541V223.844H157.865V222.034Z" fill="#313B44"/>
<path d="M241.809 133.243C236.236 133.227 230.884 135.341 226.931 139.12C222.979 142.899 220.749 148.034 220.732 153.395C220.715 158.756 222.912 163.904 226.841 167.707C230.77 171.509 236.108 173.654 241.681 173.671V166.64H241.599C238.846 166.642 236.155 165.858 233.866 164.388C231.576 162.919 229.791 160.829 228.737 158.383C227.682 155.937 227.405 153.246 227.941 150.649C228.477 148.052 229.802 145.666 231.747 143.793C233.693 141.921 236.172 140.645 238.872 140.128C241.571 139.61 244.369 139.875 246.912 140.888C249.455 141.901 251.629 143.616 253.158 145.818C254.688 148.019 255.504 150.607 255.504 153.255C255.506 153.896 255.458 154.537 255.358 155.171H262.749C262.804 154.585 262.831 154.014 262.831 153.457C262.831 150.802 262.287 148.172 261.231 145.719C260.174 143.266 258.626 141.038 256.673 139.161C254.721 137.283 252.404 135.795 249.853 134.779C247.303 133.764 244.569 133.242 241.809 133.243Z" fill="#313B44"/>
<path d="M326.383 67.8828H273.649C269.723 67.8828 266.541 70.9441 266.541 74.7203V124.235C266.541 128.011 269.723 131.073 273.649 131.073H326.383C330.309 131.073 333.491 128.011 333.491 124.235V74.7203C333.491 70.9441 330.309 67.8828 326.383 67.8828Z" fill="url(#paint2_linear_238_261)"/>
<path d="M380.359 159.653H327.625C323.699 159.653 320.517 162.714 320.517 166.49V216.005C320.517 219.781 323.699 222.843 327.625 222.843H380.359C384.285 222.843 387.467 219.781 387.467 216.005V166.49C387.467 162.714 384.285 159.653 380.359 159.653Z" fill="url(#paint3_linear_238_261)"/>
<path d="M107.351 23.2107H54.6163C50.6907 23.2107 47.5083 26.2719 47.5083 30.0482V79.5629C47.5083 83.3391 50.6907 86.4004 54.6163 86.4004H107.351C111.276 86.4004 114.459 83.3391 114.459 79.5629V30.0482C114.459 26.2719 111.276 23.2107 107.351 23.2107Z" fill="url(#paint4_linear_238_261)"/>
<path d="M87.8721 117.942H35.1378C31.2121 117.942 28.0298 121.004 28.0298 124.78V174.295C28.0298 178.071 31.2121 181.132 35.1378 181.132H87.8721C91.7977 181.132 94.9801 178.071 94.9801 174.295V124.78C94.9801 121.004 91.7977 117.942 87.8721 117.942Z" fill="url(#paint5_linear_238_261)"/>
<path d="M100.572 183.356C101.857 182.637 103.367 182.385 104.829 182.644C105.649 182.935 106.362 183.451 106.881 184.127C107.401 184.803 107.704 185.61 107.753 186.449C107.834 188.115 107.452 189.771 106.647 191.248C103.979 196.837 99.1737 201.249 96.2045 206.689C94.3577 210.075 93.2567 213.791 92.9702 217.605C92.6779 221.577 92.8149 226.393 89.2335 228.423C86.6936 229.821 83.2858 228.871 81.221 226.868C79.1562 224.864 78.1604 222.078 77.4752 219.345C75.6198 211.731 75.5535 203.815 77.281 196.174C79.0085 188.533 82.4863 181.358 87.4611 175.173C88.2377 174.215 89.5624 173.205 90.6131 173.881C90.8891 174.123 91.1072 174.42 91.2523 174.751C91.3975 175.081 91.4662 175.439 91.4536 175.797C91.6729 177.889 90.6131 185.553 92.486 186.924C94.5417 188.374 98.3332 184.375 100.572 183.356Z" fill="url(#paint6_linear_238_261)"/>
<path d="M88.7035 306.641L90.2475 294.777C89.4709 300.753 88.7126 306.729 87.936 312.714V312.934C87.0772 312.653 86.2276 312.345 85.3779 312.055C71.8014 306.984 59.7416 298.653 49.0705 289.117L48.5771 288.678C50.8429 279.731 53.4376 270.846 56.0323 261.995C60.1253 248.013 63.3413 231.965 73.0988 220.891C74.6794 219.134 77.6669 219.661 79.9692 220.452C82.2716 221.243 84.7749 222.21 87.132 223.089C88.653 223.561 90.0071 224.431 91.0423 225.602C92.0199 226.92 92.1296 228.634 92.1935 230.26C93.2569 255.77 92.0894 281.32 88.7035 306.641V306.641Z" fill="#CA973C"/>
<path d="M321.796 301.14C320.956 301.579 320.106 302.019 319.266 302.388C306.155 308.54 291.967 311.897 277.495 313.997C269.683 297.862 261.479 280.882 250.598 266.636C246.943 261.855 243.216 257.733 240.95 252.117C239.251 247.916 236.811 242.45 236.382 237.994C235.971 233.222 239.57 230.787 243.161 228.001C251.263 221.707 260.656 217.131 270.725 214.573C271.588 214.25 272.542 214.228 273.42 214.511C274.175 214.947 274.767 215.602 275.11 216.383L303.268 265.863C309.49 276.787 315.721 287.728 320.91 299.145C321.203 299.822 321.541 300.472 321.796 301.14Z" fill="#CA973C"/>
<path d="M224.413 224.6C222.239 220.918 223.71 216.321 223.454 212.085C223.015 205.055 217.799 199.307 213.77 193.418C212.006 190.852 210.389 187.943 210.654 184.876C210.745 183.777 211.33 182.494 212.481 182.389C213 182.377 213.512 182.512 213.952 182.776C215.755 183.668 217.382 184.858 218.758 186.291C220.357 187.952 222.084 190.132 224.422 189.868C225.372 189.668 226.274 189.299 227.081 188.778C230.178 187.179 233.723 186.643 237.195 186.142L241.617 185.482C245.207 184.946 248.926 184.419 252.443 185.148C254.456 185.581 256.355 186.404 258.025 187.568C259.695 188.731 261.101 190.211 262.155 191.916C265.261 196.995 264.896 203.341 266.723 208.939C267.454 211.136 268.55 213.228 269.144 215.46C269.895 217.679 269.752 220.088 268.742 222.21C267.335 224.732 264.32 226.024 261.433 226.648C258.546 227.272 255.476 227.413 252.726 228.511C250.397 229.434 248.396 230.981 246.203 232.158C241.078 234.909 239.132 232.528 234.472 230.638C230.863 229.179 226.524 228.107 224.413 224.6Z" fill="url(#paint7_linear_238_261)"/>
<path d="M232.928 138.745L232.179 138.56L244.641 92.4819H267.116V93.229H245.244L232.928 138.745Z" fill="#313B44"/>
<path d="M319.942 199.043H274.937L253.521 163.309L254.188 162.931L275.385 198.296H319.942V199.043Z" fill="#313B44"/>
<path d="M156.97 144.756L132.274 70.2292H112.988V69.4822H132.832L132.923 69.7458L157.71 144.528L156.97 144.756Z" fill="#313B44"/>
<path d="M128.501 172.985L110.932 154.151H93.7104V153.413H111.279L129.077 172.493L128.501 172.985Z" fill="#313B44"/>
<path d="M262.749 155.179C262.305 160.228 259.906 164.931 256.028 168.359C252.15 171.787 247.075 173.689 241.809 173.688H241.681V166.657C245.015 166.644 248.233 165.478 250.749 163.373C253.264 161.268 254.91 158.363 255.385 155.188L262.749 155.179Z" fill="#329DB6"/>
<path d="M262.749 155.179C262.305 160.228 259.906 164.931 256.028 168.359C252.15 171.787 247.075 173.689 241.809 173.688H241.681V166.657C245.015 166.644 248.233 165.478 250.749 163.373C253.264 161.268 254.91 158.363 255.385 155.188L262.749 155.179Z" fill="url(#paint8_linear_238_261)"/>
</g>
<defs>
<linearGradient id="paint0_linear_238_261" x1="126.226" y1="225.092" x2="40.2156" y2="203.796" gradientUnits="userSpaceOnUse">
<stop stop-opacity="0"/>
<stop offset="0.99"/>
</linearGradient>
<linearGradient id="paint1_linear_238_261" x1="14058.6" y1="15964.2" x2="17607.9" y2="15964.2" gradientUnits="userSpaceOnUse">
<stop stop-opacity="0"/>
<stop offset="0.99"/>
</linearGradient>
<linearGradient id="paint2_linear_238_261" x1="313.674" y1="-140.459" x2="295.562" y2="203.4" gradientUnits="userSpaceOnUse">
<stop offset="0.02" stop-color="white" stop-opacity="0"/>
<stop offset="0.14" stop-color="white" stop-opacity="0.06"/>
<stop offset="0.32" stop-color="white" stop-opacity="0.39"/>
<stop offset="0.68" stop-color="white" stop-opacity="0.68"/>
<stop offset="1" stop-color="white"/>
</linearGradient>
<linearGradient id="paint3_linear_238_261" x1="372.712" y1="-137.743" x2="354.608" y2="206.116" gradientUnits="userSpaceOnUse">
<stop offset="0.02" stop-color="white" stop-opacity="0"/>
<stop offset="0.32" stop-color="white" stop-opacity="0.39"/>
<stop offset="0.68" stop-color="white" stop-opacity="0.68"/>
<stop offset="1" stop-color="white"/>
</linearGradient>
<linearGradient id="paint4_linear_238_261" x1="6988.25" y1="-13397" x2="5710.93" y2="11329" gradientUnits="userSpaceOnUse">
<stop offset="0.02" stop-color="white" stop-opacity="0"/>
<stop offset="0.32" stop-color="white" stop-opacity="0.39"/>
<stop offset="0.68" stop-color="white" stop-opacity="0.68"/>
<stop offset="1" stop-color="white"/>
</linearGradient>
<linearGradient id="paint5_linear_238_261" x1="5528.67" y1="-6271.8" x2="4251.35" y2="18454.2" gradientUnits="userSpaceOnUse">
<stop offset="0.02" stop-color="white" stop-opacity="0"/>
<stop offset="0.32" stop-color="white" stop-opacity="0.39"/>
<stop offset="0.68" stop-color="white" stop-opacity="0.68"/>
<stop offset="1" stop-color="white"/>
</linearGradient>
<linearGradient id="paint6_linear_238_261" x1="76.0042" y1="201.328" x2="107.771" y2="201.328" gradientUnits="userSpaceOnUse">
<stop stop-color="#E5C5D5"/>
<stop offset="0.42" stop-color="#EAD4D1"/>
<stop offset="1" stop-color="#F0E9CB"/>
</linearGradient>
<linearGradient id="paint7_linear_238_261" x1="14935.5" y1="12294.3" x2="18745.3" y2="12294.3" gradientUnits="userSpaceOnUse">
<stop stop-color="#E5C5D5"/>
<stop offset="0.42" stop-color="#EAD4D1"/>
<stop offset="1" stop-color="#F0E9CB"/>
</linearGradient>
<linearGradient id="paint8_linear_238_261" x1="6118.01" y1="3219.48" x2="6806.46" y2="4302.76" gradientUnits="userSpaceOnUse">
<stop offset="0.02" stop-color="#313B44"/>
<stop offset="0.32" stop-color="white" stop-opacity="0.39"/>
<stop offset="0.68" stop-color="white" stop-opacity="0.68"/>
<stop offset="1" stop-color="white"/>
</linearGradient>
<clipPath id="clip0_238_261">
<rect width="394" height="320" fill="white"/>
</clipPath>
</defs>
</svg>
