<svg width="100" height="127" viewBox="0 0 100 127" fill="none" xmlns="http://www.w3.org/2000/svg">
<path fill-rule="evenodd" clip-rule="evenodd" d="M28.7515 15.9038C28.5804 16.0661 28.6931 84.7132 28.8646 84.8761C29.1003 85.1001 70.6815 85.135 70.9169 84.9114C71.0524 84.7824 71.135 16.3131 70.9998 15.9784C70.9457 15.8445 28.8922 15.7702 28.7515 15.9038ZM47.1015 18.5189C47.3962 18.6165 47.4656 18.8336 47.2023 18.8336C46.2766 18.8336 44.7375 20.256 44.7375 21.1114C44.7375 21.1721 44.6038 21.4328 44.4404 21.6906C44.277 21.9484 44.1433 22.1875 44.1433 22.222C44.1433 22.397 43.1933 23.0921 42.8383 23.1772C41.8212 23.4205 40.9178 23.0157 40.9178 22.3166C40.9178 22.0434 41.2064 21.8978 41.748 21.8978C41.9107 21.8978 42.1709 21.8232 42.3262 21.7319C42.5461 21.6029 42.6456 21.585 42.7763 21.6513C43.216 21.8751 43.3495 21.7682 43.9294 20.7286C44.9542 18.8917 46.0088 18.157 47.1015 18.5189ZM54.1923 18.7467C54.7812 19.1318 55.255 19.7011 55.8146 20.6967C56.3931 21.7259 56.4937 21.8176 56.8899 21.6755C57.1261 21.5908 57.2014 21.5993 57.4486 21.7378C57.6056 21.8259 57.8601 21.8978 58.0137 21.8978C59.3071 21.8978 59.0251 23.1163 57.7026 23.2421C56.5627 23.3505 55.6192 22.5841 55.0201 21.0628C54.4722 19.6716 53.558 18.8411 52.5679 18.8348C52.3001 18.8332 52.3283 18.6229 52.6103 18.5193C53.0373 18.3621 53.7637 18.4665 54.1923 18.7467ZM52.0261 19.999C53.4396 20.3564 54.4187 21.3886 54.4149 22.5173C54.4143 22.7292 54.5225 22.8766 55.0382 23.3648C56.4693 24.72 57.6935 24.9339 59.1199 24.0781C60.9659 22.9707 62.473 23.6136 63.1779 25.8088C63.4784 26.7444 63.5319 27.1327 63.4271 27.6151C63.0156 29.5074 63.4905 30.7079 64.8136 31.1198C66.7434 31.7204 67.6862 33.7696 67.1933 36.2917C66.5386 39.643 64.6368 41.5483 61.517 41.9785C59.6772 42.2323 58.7416 41.7826 58.7452 40.6462C58.7469 40.1634 58.7912 40.0444 59.3003 39.1574C59.5603 38.705 59.5592 38.5808 59.2939 38.3288C58.3356 37.4184 56.8922 38.7645 57.2196 40.2629C57.6398 42.1858 58.895 43.0506 61.0758 42.92C65.7581 42.6391 68.4848 39.0074 68.0654 33.6097C67.9767 32.4693 67.9973 32.3816 68.2344 32.8904C69.1857 34.9336 69.1821 37.9664 68.2261 39.8801C66.8323 42.6698 63.4462 44.8543 59.9739 45.2036C59.4603 45.2554 58.9447 45.3437 58.8279 45.4002C58.2597 45.6748 57.7977 47.368 58.2467 47.53C60.0889 48.1955 60.7325 50.9703 59.3237 52.1736C58.613 52.7808 57.2525 53.1932 55.5812 53.3088C54.5539 53.3797 54.5539 53.3844 55.57 54.2171L56.3861 54.8858L56.7793 54.8314C59.4028 54.4689 61.2766 52.4522 61.2866 49.98C61.2899 49.143 61.3307 49.0922 61.6172 49.5684C62.5456 51.1126 62.3147 53.3791 61.0705 54.9338C60.6153 55.5029 61.0145 55.3977 61.6624 54.778C62.6385 53.8446 63.3328 51.7238 63.3275 49.6938C63.3265 49.2821 64.006 49.0039 64.5384 49.198C64.6886 49.2529 64.6146 49.7385 64.4096 50.0417C64.3351 50.152 64.2498 50.4598 64.2201 50.7259C63.941 53.2277 62.8785 55.3642 61.4529 56.2899C60.9557 56.6127 60.8571 56.7917 61.0317 57.0538C61.1535 57.2366 60.9914 57.2826 60.386 57.2364C58.4037 57.0852 57.115 57.7578 57.2608 58.8671L57.3196 59.3139H57.7871C59.774 59.3139 61.7487 58.6825 62.0781 57.9418C62.3423 57.3481 62.6559 57.3284 62.7684 57.8983C62.9903 59.0222 61.3428 59.9326 58.0063 60.5299C57.4191 60.6349 57.2625 60.8184 57.3151 61.3405L57.3425 61.6121L57.8094 61.6034C58.0661 61.5987 58.492 61.5667 58.756 61.5324C59.6861 61.4117 60.3214 61.7383 60.5201 62.4392C60.6406 62.8646 60.8021 62.9468 61.4684 62.922L61.9998 62.9023L62.0709 63.2186C62.2557 64.0421 61.7152 64.5174 60.2285 64.8382L59.9739 64.893L60.2928 65.1567C61.4799 66.1375 63.4602 65.8572 64.7633 64.5239C65.0757 64.2044 65.1315 64.2606 65.0959 64.8587C64.9859 66.7088 63.3227 67.3704 60.2968 66.768C59.1068 66.531 59.0892 66.534 59.2912 66.9382C59.6318 67.6202 59.6445 68.7054 59.3338 70.5629C59.2449 71.0951 59.1125 72.0204 59.0395 72.6191C58.8485 74.189 58.885 74.0938 58.5332 73.9345C58.1879 73.7781 58.1673 73.7104 58.2541 73.0223C58.2904 72.734 58.3564 72.2079 58.4006 71.8531C58.8282 68.4276 58.6554 66.8713 57.6907 65.4551C57.1295 64.6313 56.377 64.2715 56.7893 65.0243C57.4448 66.2207 57.4862 67.8823 56.909 69.8371C56.4973 71.2314 56.8165 73.6688 57.5369 74.6351C58.1669 75.48 59.8703 76.2648 60.1479 75.838C60.2285 75.714 60.9262 75.4415 61.1626 75.4415C61.4463 75.4415 61.8574 75.8005 62.1048 76.2648C62.2234 76.4871 62.4284 76.7234 62.5674 76.7986C62.9384 76.9988 63.1701 77.5391 63.2219 78.3237C63.3371 80.0737 61.6683 81.344 58.4884 81.927C58.0916 81.9998 57.6986 82.0731 57.6148 82.0901C57.5034 82.1128 57.4495 82.0582 57.4132 81.8858C57.3567 81.6171 57.2935 81.6083 56.3239 81.7312C55.7499 81.8042 55.7238 81.8 55.5568 81.6077C55.1782 81.1722 54.364 81.4369 54.1677 82.0594L54.0614 82.3967L52.6241 82.361L51.1869 82.3255L50.8032 82.0687C50.2833 81.7205 49.5423 81.7002 49.0555 82.0207C48.6115 82.313 48.2574 82.3723 46.9402 82.3743C45.7311 82.3763 45.5863 82.3376 45.5863 82.0114C45.5863 81.5125 44.4073 81.1629 44.2289 81.6089C44.1514 81.802 44.1066 81.8238 43.866 81.7846C42.792 81.6101 42.4525 81.6232 42.3644 81.8429C42.2641 82.0941 42.1208 82.1054 41.2463 81.9306C40.5639 81.7941 39.2253 81.4222 39.0929 81.3321C39.0462 81.3004 38.8743 81.2254 38.7109 81.1656C36.6372 80.4047 35.7869 78.0406 37.1565 76.8434C37.3653 76.6609 37.6191 76.3539 37.7203 76.161C38.098 75.4417 38.5439 75.3155 39.3543 75.6987C39.9773 75.9932 40.3697 75.9586 41.2026 75.5354C42.7867 74.7304 43.463 72.1807 42.7782 69.5952C42.5244 68.6372 42.5 68.4356 42.4943 67.2567L42.4881 65.9665L42.8438 65.3012C43.4195 64.2241 42.6405 64.5007 41.9665 65.6127C40.9745 67.249 40.9068 68.5794 41.5706 73.3943C41.6194 73.7473 41.4154 73.99 41.0704 73.99C40.8928 73.99 40.8856 73.9603 40.706 72.4982C40.6299 71.8773 40.5346 71.1697 40.4941 70.9257C40.1174 68.653 40.1123 67.6428 40.4741 66.9223C40.6623 66.5473 40.6481 66.5453 39.4243 66.7743C36.3743 67.345 34.8322 66.7245 34.6616 64.8577C34.6024 64.2098 34.641 64.1963 35.183 64.6757C36.4789 65.8222 37.645 66.0498 38.9891 65.4188C39.701 65.0845 39.8534 64.9067 39.4931 64.8313C38.1997 64.5602 37.6603 64.1538 37.6713 63.4583C37.6798 62.9307 37.7751 62.8619 38.4679 62.8837C39.0893 62.9033 39.2157 62.8386 39.2191 62.4991C39.2274 61.6832 40.176 61.3645 41.7817 61.6381C42.8001 61.8116 42.74 60.7256 41.7204 60.5269C38.7504 59.9475 37.3833 59.3284 37.0313 58.4033C36.759 57.6882 37.3176 57.1631 37.6185 57.8511C37.9678 58.6494 39.2072 59.098 41.6234 59.3004C42.4699 59.3711 42.448 59.3846 42.5049 58.7641C42.6013 57.7164 41.2758 57.0756 39.3802 57.253C38.7737 57.3098 38.5356 57.1903 38.7845 56.9538C38.9611 56.7861 38.8841 56.6635 38.4164 56.3686C36.9456 55.4412 35.9225 53.4805 35.5771 50.9275C35.5202 50.5078 35.403 50.0899 35.2749 49.8498C34.974 49.2855 35.0807 49.1162 35.6991 49.1769C36.4566 49.2511 36.504 49.3015 36.504 50.0302C36.504 52.2625 37.3651 54.4552 38.5046 55.1241C38.9254 55.3713 38.9543 55.2725 38.6067 54.775C37.4555 53.1277 37.2634 51.2529 38.0866 49.6978C38.3769 49.1494 38.4251 49.2093 38.4792 50.185C38.6169 52.6665 40.2683 54.3325 43.0931 54.8397C43.3317 54.8824 43.4405 54.8211 44.1669 54.2365C45.2491 53.3652 45.2487 53.3785 44.2004 53.3106C41.6864 53.1473 40.1687 52.4137 39.7815 51.1749C39.3768 49.88 39.9194 48.5233 41.1459 47.7633L41.7004 47.4198L41.655 46.8553C41.5581 45.6455 41.2355 45.3498 39.8568 45.2069C36.3807 44.8462 33.0741 42.778 31.6341 40.064C30.6265 38.1647 30.5433 35.4442 31.4236 33.1644C31.6788 32.5029 31.7119 32.6273 31.678 34.1209C31.6502 35.3466 31.7383 36.4425 31.9205 37.1384C31.9613 37.2936 32.0411 37.6021 32.0979 37.8238C32.1548 38.0456 32.2257 38.2633 32.2554 38.3077C32.2851 38.352 32.3583 38.5252 32.418 38.6923C33.421 41.4977 37.1164 43.4741 40.1376 42.8214C42.1355 42.3898 43.2786 40.0291 42.1847 38.5943C41.2779 37.4053 39.7583 38.2381 40.619 39.4523C41.7113 40.9931 40.8181 42.1892 38.6984 42.0247C35.0277 41.7398 32.7093 39.2185 32.4625 35.2434C32.3354 33.197 33.2231 31.7536 35.0096 31.1011C36.3331 30.6178 36.7253 29.6814 36.3811 27.8255C36.2614 27.1804 36.2676 27.0095 36.4333 26.3329C37.0814 23.6876 38.7245 22.8558 40.7481 24.1488C41.9343 24.9068 43.2453 24.6811 44.6238 23.481C45.2105 22.9701 45.4166 22.6409 45.4166 22.2143C45.4166 21.4426 46.3528 20.4012 47.2887 20.1321C47.4962 20.0724 47.7614 19.9946 47.8782 19.9591C48.2676 19.8408 51.5243 19.8722 52.0261 19.999ZM36.2924 23.6221C36.445 23.7281 36.4458 23.743 36.3079 23.9245C35.3623 25.1677 35.2649 25.6624 35.4016 28.5347L35.4429 29.4062L35.0446 29.7645C34.6266 30.1407 34.5784 30.1622 34.397 30.0528C33.9038 29.7558 34.3842 25.7822 35.0807 24.3976C35.4544 23.6547 35.9151 23.3598 36.2924 23.6221ZM64.2154 23.7317C64.8336 24.319 65.2261 25.5941 65.488 27.8651C65.7416 30.0651 65.554 30.5309 64.7166 29.7794C64.2587 29.3683 64.275 29.4907 64.3867 27.3006C64.4722 25.6263 64.3001 24.9449 63.5688 24.062C63.1548 23.562 63.7284 23.2691 64.2154 23.7317ZM45.5596 24.8343C44.9045 25.0617 44.6524 25.4755 44.6531 26.3226C44.6535 26.8615 44.6836 26.9561 45.4785 28.9133C46.1425 30.5479 46.8422 32.8346 47.1074 34.2355C47.162 34.5237 47.2415 34.941 47.2846 35.1628C47.3275 35.3845 47.4045 35.947 47.4559 36.4127C47.698 38.6117 47.6901 38.5861 48.1158 38.5887C49.1705 38.5953 49.3052 37.8914 49.0224 33.8512C48.7399 29.8153 48.4259 27.9439 47.8056 26.6017C47.6587 26.2837 47.5386 25.9997 47.5386 25.9703C47.5386 25.3177 46.2682 24.5885 45.5596 24.8343ZM53.3418 24.8054C52.9694 24.9115 52.5314 25.404 52.1857 26.1051C51.5026 27.4911 51.2923 28.3886 50.9335 31.4534C50.6971 33.471 50.5288 37.2096 50.6485 37.7783C50.7578 38.298 51.51 38.7342 51.9294 38.5212C52.0703 38.4494 52.1085 38.2843 52.1976 37.3646C52.2547 36.7745 52.336 36.0921 52.3784 35.8482C52.4206 35.6043 52.4996 35.1507 52.5532 34.8402C52.6704 34.1663 52.9272 33.0531 53.1582 32.2195C53.2503 31.8869 53.3558 31.5059 53.3923 31.3728C53.5101 30.9438 53.999 29.63 54.5026 28.3892C55.2512 26.5444 55.3276 25.9616 54.8998 25.3584C54.5635 24.8845 53.8963 24.6476 53.3418 24.8054ZM38.3289 25.5348C37.2751 26.1206 37.579 27.13 39.1353 28.2138C42.0646 30.2535 44.8937 33.7919 45.594 36.2917C45.6311 36.4248 45.7033 36.6788 45.754 36.8562C45.9189 37.4315 46.029 38.1295 46.084 38.95C46.1432 39.8309 46.3626 40.1462 46.7528 39.9112C47.2392 39.6182 46.6168 35.8031 45.6755 33.3081C44.1128 29.1672 39.8702 24.678 38.3289 25.5348ZM60.3427 25.5582C58.4148 26.2126 55.3306 30.0538 54.061 33.3819C53.0487 36.0353 52.5131 39.8745 53.1453 39.9444C53.5305 39.987 53.6419 39.761 53.696 38.827C53.8628 35.949 55.8121 32.3227 58.4356 30.0102C59.4868 29.0835 59.7907 28.8343 60.3509 28.4408C61.1195 27.9009 61.7284 27.3302 61.9149 26.9754C62.4223 26.0092 61.4901 25.1689 60.3427 25.5582ZM37.2745 29.6867C36.8013 30.0649 36.9912 31.1303 37.631 31.6867C37.7785 31.8149 38.6729 32.4457 39.6187 33.0882C42.5249 35.0624 43.8772 36.1873 44.6516 37.2749L44.9277 37.6626L44.8763 37.3342C44.6352 35.7869 42.7995 33.1835 40.3744 30.949C38.7075 29.4133 37.9845 29.119 37.2745 29.6867ZM60.8604 29.7054C59.4194 30.5747 56.6414 33.6698 55.6459 35.5156C54.861 36.9713 54.5826 38.068 55.2355 37.1328C55.9551 36.1024 57.7582 34.657 60.9076 32.586C62.368 31.6256 62.9751 30.8114 62.7803 30.0741C62.6147 29.4476 61.6085 29.2542 60.8604 29.7054ZM35.4962 33.2055C32.9219 33.8526 34.398 38.7619 37.6929 40.5121C39.6754 41.5652 40.3198 40.8141 39.1338 38.833C38.6566 38.0361 39.3034 37.2638 40.622 37.0562C42.325 36.788 43.365 37.8255 43.3764 39.8035C43.3805 40.5111 43.5759 40.6986 43.9577 40.3607C44.3097 40.049 44.176 38.479 43.7213 37.5864C43.3692 36.8959 42.3129 36.1671 41.3422 35.9454C40.4228 35.7353 40.1456 35.6869 39.864 35.6869C39.3846 35.6869 38.7105 35.3535 38.2992 34.9132C36.9364 33.4535 36.2277 33.0216 35.4962 33.2055ZM63.6662 33.2093C63.1425 33.3613 62.5263 33.8097 61.775 34.5858C60.9585 35.4293 60.662 35.5996 59.8516 35.6912C56.8007 36.0359 55.2616 37.6019 55.637 39.9793C55.7769 40.8659 56.3231 40.6236 56.4056 39.6382C56.5714 37.6557 57.4762 36.7794 59.0862 37.0417C60.7323 37.3098 61.1223 37.9752 60.3983 39.2796C59.3759 41.1211 60.6228 41.5437 62.7745 40.0849C65.4997 38.2375 66.5081 34.1853 64.469 33.2746C64.0501 33.0876 64.0775 33.0898 63.6662 33.2093ZM47.6 40.1881C47.2074 40.4946 47.2019 40.5077 47.2004 41.1393C47.1993 41.6011 47.2468 41.8128 47.444 42.2253C47.719 42.801 47.7063 42.945 47.381 42.9431C47.045 42.9413 46.9914 42.8833 46.623 42.1253C46.1905 41.2354 45.8157 41.0332 45.3058 41.4142C44.5113 42.0081 44.6997 43.3457 45.709 44.2749C46.5145 45.0163 47.0503 45.6566 47.5253 46.4447C48.0161 47.2591 48.0167 47.2585 48.0804 46.0431C48.189 43.9685 49.2813 42.1448 50.1575 42.5752C51.0825 43.0298 51.6942 44.5176 51.7017 46.3312C51.7059 47.4008 51.673 47.4063 52.4026 46.2166C52.7009 45.7298 53.1358 45.2042 53.7467 44.5914C55.0541 43.28 55.3181 42.3315 54.5944 41.5451C54.0779 40.9838 53.6028 41.1435 53.1911 42.017C52.765 42.9212 52.7457 42.9444 52.4164 42.9444C52.0512 42.9444 52.0353 42.8075 52.3294 42.1964C52.7385 41.3465 52.6973 40.5575 52.2267 40.2313C51.8388 39.9626 51.721 39.9527 51.4545 40.1658C51.1024 40.4472 50.629 40.3976 50.0639 40.0204C49.9461 39.9418 49.8846 39.9422 49.7668 40.0218C49.287 40.3466 48.6693 40.4399 48.4284 40.2236C48.1368 39.9622 47.9028 39.9521 47.6 40.1881ZM49.6339 43.8148C48.6334 44.8654 48.5169 48.1868 49.4005 50.4661C49.5421 50.8308 49.6985 51.2843 49.7481 51.4742C49.8527 51.8738 49.9692 51.8563 50.0507 51.4287C50.0821 51.264 50.2296 50.8025 50.3786 50.4034C51.3015 47.9278 51.1951 44.9424 50.1451 43.8515C49.9342 43.6322 49.816 43.6237 49.6339 43.8148ZM43.5502 45.097C42.2469 45.3486 42.1949 47.8105 43.4851 48.1836C45.521 48.7725 46.1544 49.2047 46.8093 50.4518C47.1471 51.095 47.4098 51.2989 47.9418 51.3295C48.0229 51.3341 47.9388 49.6286 47.8376 49.2138C47.2036 46.6168 45.2742 44.7642 43.5502 45.097ZM55.2024 45.1228C53.5381 45.4488 51.9317 47.93 51.8044 50.3717C51.7549 51.3204 51.7787 51.3684 52.2241 51.2231C52.6481 51.0846 52.7357 50.9979 52.9278 50.5271C53.3883 49.3984 54.2201 48.7832 55.9844 48.2665C56.9699 47.978 57.2994 47.4502 57.1927 46.3316C57.097 45.3296 56.3774 44.8926 55.2024 45.1228ZM42.3629 49.2777C40.8565 49.6788 40.2831 50.58 41.0239 51.3815C41.6446 52.0534 42.1191 52.0552 42.8625 51.389C43.6636 50.6711 44.1196 50.5642 45.341 50.8084C46.1739 50.9749 46.213 50.8912 45.5957 50.2645C44.648 49.3021 43.5403 48.9638 42.3629 49.2777ZM55.7297 49.2611C55.0813 49.4668 54.6868 49.7139 54.2123 50.2121C53.5198 50.9388 53.5517 51.0192 54.4442 50.7987C55.4908 50.5403 56.179 50.7177 56.9765 51.4515C58.1775 52.5566 59.8344 51.0384 58.6645 49.9046C58.0617 49.3202 56.5728 48.9938 55.7297 49.2611ZM33.754 53.3265C34.0791 54.3296 34.7817 55.139 35.6365 55.4955C36.8965 56.0206 37.0565 56.9742 35.8852 56.9762C33.4794 56.9804 32.868 60.3581 35.1849 60.8462C35.9938 61.0165 35.9942 61.0774 35.1898 61.7643L34.5544 62.3063L34.1256 61.9251C32.2874 60.292 32.1291 58.4641 33.6708 56.6774C34.2045 56.0589 34.2283 55.9063 33.9034 55.1788C33.4208 54.0982 33.298 53.1854 33.6347 53.1854C33.6751 53.1854 33.7287 53.2489 33.754 53.3265ZM66.2445 53.8017C66.2365 54.2313 66.1724 54.501 65.9686 54.9612C65.5665 55.8708 65.5962 56.1083 66.198 56.7909C67.5992 58.3803 67.4628 60.1071 65.8046 61.7661C65.2482 62.3229 65.223 62.3227 64.5477 61.756C63.8937 61.2072 63.8564 61.0065 64.3877 60.8972C66.9225 60.3757 66.4408 56.9754 63.832 56.9754C62.6744 56.9754 62.8908 56.0198 64.1755 55.4598C65.0082 55.0967 65.446 54.6409 65.8394 53.7279C66.1333 53.0457 66.2583 53.0685 66.2445 53.8017ZM48.6421 53.3809C44.1487 54.2625 42.0245 58.4234 44.3269 61.8338C44.5527 62.1685 44.6223 62.2168 44.8763 62.2168C45.274 62.2168 45.312 62.0539 45.0115 61.6366C42.2919 57.8604 46.3263 52.8898 51.1886 54.026C55.1082 54.9417 56.9115 58.7438 54.7803 61.5983C54.4521 62.0378 54.497 62.2168 54.9357 62.2168C55.6461 62.2168 56.4457 60.1321 56.3409 58.5526C56.1196 55.2116 52.3202 52.6594 48.6421 53.3809ZM48.5646 54.761C45.6663 55.4314 44.1344 58.2875 45.369 60.7188C45.8198 61.6062 46.1591 61.8739 46.6694 61.7449C47.2492 61.5979 47.2785 61.5359 46.93 61.1885C44.0341 58.3023 47.9361 54.1563 51.8405 55.971C54.002 56.9756 54.4586 59.8052 52.7094 61.3534C52.5093 61.5304 52.5513 61.5913 52.9626 61.7219C53.4659 61.882 53.5875 61.8413 53.9534 61.3903C56.5911 58.1386 53.0097 53.7327 48.5646 54.761ZM48.9141 56.8008C47.5144 57.2751 46.8099 58.7264 47.4005 59.9187C48.279 61.6919 51.2157 61.8136 52.2659 60.1202C53.4345 58.2359 51.2024 56.0252 48.9141 56.8008ZM47.2203 62.517C46.8549 62.5602 46.8672 62.5942 47.4141 63.0498C49.1075 64.4608 48.7232 66.8215 46.4748 68.8195C45.7309 69.4809 45.6496 69.441 46.2066 68.688C48.0089 66.252 48.0812 64.3977 46.3985 63.7871C45.9424 63.6215 45.451 63.704 44.8224 64.0511C43.1188 64.992 42.7988 67.1736 43.8789 70.4822C44.0092 70.8814 44.1815 71.4172 44.2618 71.673C44.4406 72.2432 44.9232 72.7348 45.4321 72.8651C45.8355 72.9681 45.8605 72.95 46.0441 72.4175C46.6618 70.6272 48.1328 70.653 48.1328 72.454C48.1328 73.1574 48.7471 73.2902 49.4544 72.7397C49.8759 72.4117 49.8544 72.4095 50.5014 72.8504C51.1892 73.3189 51.6686 73.0653 51.7002 72.2159C51.7566 70.7054 52.9976 70.6697 53.6115 72.1611C53.9256 72.9233 53.9619 72.9582 54.3421 72.8584C54.9849 72.6899 55.4047 72.1869 55.637 71.3069C55.7162 71.0066 55.8388 70.6074 55.9093 70.4199C57.2239 66.9239 56.2265 63.7179 53.8246 63.7179C51.8184 63.7179 51.6176 65.882 53.3874 68.4338C54.0276 69.3573 54.0124 69.4736 53.3291 68.8727C51.0031 66.8269 50.6559 63.7929 52.6379 62.8317C52.9223 62.6938 52.8505 62.587 52.4223 62.5104C51.5567 62.3551 50.8089 62.6878 50.5872 63.3264C50.3716 63.9469 50.4539 64.6338 51.1016 67.6196C51.3806 68.9058 51.3278 69.1263 50.5464 69.9397C49.8678 70.6461 49.8767 70.6455 49.2774 70.0186C48.4713 69.1751 48.3681 68.8134 48.6281 67.7405C49.7197 63.2361 49.4548 62.2537 47.2203 62.517ZM46.3431 64.592C47.2685 65.0466 46.9905 66.636 45.8474 67.4263C45.5725 67.6162 45.2441 67.9006 45.1174 68.0585C44.7645 68.4981 44.5336 68.4532 44.4171 67.922C44.0988 66.4719 44.0867 66.3264 44.2418 65.8341C44.5086 64.9884 45.7073 64.2798 46.3431 64.592ZM54.3716 64.6662C55.5046 65.1728 55.8015 66.0629 55.4106 67.7809C55.2805 68.3528 54.9263 68.5836 54.7742 68.1953C54.7396 68.1068 54.395 67.7931 54.0086 67.4982C53.1784 66.8646 53.0969 66.7574 52.9802 66.1461C52.7343 64.8579 53.346 64.2074 54.3716 64.6662ZM43.7656 72.9618C43.7474 73.0173 43.7143 73.3596 43.6918 73.7225C43.6377 74.597 43.4161 74.9744 42.2989 76.0948C41.2434 77.1534 41.1918 77.3774 42.0555 77.1512C42.9701 76.9115 42.9781 78.1537 42.0637 78.4247C40.6897 78.8319 40.9231 79.4792 42.6494 80.0501C44.1784 80.5559 45.1577 80.2713 45.1607 79.3204C45.1617 78.9434 45.2016 78.8391 45.459 78.5408C45.6224 78.3513 45.7561 78.1602 45.7561 78.1158C45.7561 78.0715 45.7888 78.0233 45.8285 78.0084C46.1739 77.8804 46.7747 75.9489 46.7747 74.9669C46.7747 73.7884 45.7771 73.6894 45.4626 74.8369C45.2608 75.5723 45.2458 75.6027 45.0843 75.6027C44.9103 75.6027 44.7248 75.2247 44.5699 74.5544C44.2983 73.3793 43.8921 72.5752 43.7656 72.9618ZM55.6132 73.2584C55.5127 73.4801 55.3302 74.044 55.2075 74.5113C54.8612 75.8295 54.6042 75.9553 54.3347 74.9383C54.111 74.0944 53.7136 73.8501 53.1947 74.2377C52.587 74.6919 53.2629 77.3415 54.2819 78.5003C54.5484 78.8033 54.5841 78.897 54.5866 79.2996C54.5919 80.214 55.568 80.5465 56.9671 80.11C58.8339 79.528 59.118 78.8289 57.6551 78.4184C56.7311 78.1592 56.8203 76.9435 57.7478 77.1524C58.5642 77.3361 58.4958 77.0883 57.4529 76.0817C56.3464 75.0139 56.1365 74.6419 56.0432 73.5828C55.9736 72.7921 55.8624 72.708 55.6132 73.2584ZM48.7015 74.3395C48.63 74.4432 48.3959 74.9421 48.1812 75.4483C47.9666 75.9547 47.576 76.7722 47.3133 77.2653C46.6535 78.5035 46.5882 79.1639 47.0607 79.8157C47.2449 80.0697 47.3693 80.3378 47.3699 80.4819C47.3729 81.0934 47.5637 81.2131 48.1581 80.9773C49.0268 80.6323 49.2902 79.8566 48.9413 78.6696C48.744 77.9979 48.7603 77.6737 49.1204 75.1062C49.228 74.3404 48.995 73.9142 48.7015 74.3395ZM50.7236 74.2291C50.6341 74.3666 50.6617 75.3086 50.7709 75.8465C50.9464 76.7099 50.9237 78.6301 50.7327 79.0869C50.439 79.7895 50.7777 80.5583 51.5459 80.9327C52.1416 81.223 52.3769 81.121 52.3769 80.5729C52.3769 80.415 52.4921 80.1447 52.6734 79.8774C53.2096 79.0867 53.0819 78.1142 52.2918 76.9736C52.215 76.8627 52.0266 76.4636 51.8731 76.0866C51.1692 74.3577 50.9112 73.9408 50.7236 74.2291ZM38.253 76.8607C36.7497 78.4269 37.4317 79.9501 40.1061 81.0002C41.617 81.5933 43.3155 81.2504 42.0809 80.6015C40.3213 79.6764 39.4369 78.7474 39.3278 77.7092C39.3017 77.4598 39.2299 77.1863 39.1688 77.1014C39.075 76.9718 39.0795 76.9113 39.1962 76.7236C39.3112 76.5387 39.3161 76.4787 39.2249 76.374C39.0288 76.1497 38.849 76.2396 38.253 76.8607ZM60.5256 76.3688C60.4416 76.465 60.4416 76.5144 60.525 76.6099C60.5912 76.6857 60.6088 76.8276 60.5729 76.9929C60.5415 77.1375 60.4893 77.4735 60.4566 77.7396C60.3327 78.7525 59.0737 80.0217 57.5303 80.6898C56.627 81.0809 57.953 81.5151 59.0883 81.2C61.8334 80.4384 63.1223 78.4259 61.7341 77.0687C61.513 76.8524 61.2462 76.5793 61.1416 76.4617C60.929 76.223 60.6852 76.1862 60.5256 76.3688ZM53.2495 94.6928C53.4727 94.7093 53.8165 94.7091 54.0134 94.6922C54.2104 94.6752 54.0279 94.6617 53.6077 94.6619C53.1875 94.6621 53.0263 94.676 53.2495 94.6928ZM52.3769 94.7946C52.2082 94.8982 52.4202 94.8982 52.674 94.7946L52.8438 94.7252L52.674 94.7208C52.5806 94.7184 52.4469 94.7516 52.3769 94.7946ZM54.7112 94.82C55.9055 95.2046 56.5951 95.9165 57.0297 97.2137C57.1263 97.502 57.2237 97.7923 57.246 97.8588C57.2684 97.9254 57.2897 97.8899 57.2933 97.7798C57.3313 96.6505 55.8352 94.927 54.6666 94.7543C54.3765 94.7113 54.3774 94.7123 54.7112 94.82ZM35.3179 94.9127C35.1732 95.0784 35.2375 101.516 35.3867 101.81C35.4875 102.009 35.4883 102.008 35.4389 101.77C35.3661 101.419 35.2859 95.3214 35.3506 95.076C35.405 94.8706 35.4103 94.8694 36.188 94.8924L36.9708 94.9155L37.0177 98.1814C37.0674 101.631 37.1062 101.973 37.5015 102.422C38.3886 103.429 40.3593 102.867 40.3179 101.619C40.3145 101.515 40.2702 101.575 40.2052 101.771C39.7178 103.25 37.7621 103.248 37.2794 101.77C37.207 101.548 37.1586 100.43 37.1242 98.1814C37.0896 95.9273 37.0451 94.8972 36.9802 94.8563C36.7945 94.7395 35.4287 94.7859 35.3179 94.9127ZM40.4542 94.8954C40.4355 94.9508 40.4062 96.4477 40.3892 98.2217C40.3723 99.9957 40.3841 101.338 40.4158 101.205C40.4474 101.072 40.4779 99.5936 40.4834 97.9193L40.4934 94.8752H41.2998H42.1062L42.1162 98.2015C42.1217 100.031 42.1554 101.419 42.1911 101.286C42.3057 100.858 42.2902 95.0016 42.1741 94.8913C42.0302 94.7547 40.5002 94.7583 40.4542 94.8954ZM43.8208 94.8913C43.6865 95.019 43.6731 103.916 43.8068 104.154C43.9123 104.341 45.2984 104.39 45.4845 104.213C45.5579 104.143 45.5863 103.591 45.5863 102.237C45.5863 101.204 45.5959 100.352 45.6076 100.343C45.6192 100.335 46.3163 100.307 47.1567 100.283L48.6845 100.238L48.7092 99.5192C48.7229 99.1242 48.7038 98.772 48.6667 98.7368C48.6298 98.7015 48.6117 99.0148 48.6266 99.4331L48.6536 100.194L47.0987 100.216L45.5439 100.238L45.521 102.126C45.4942 104.339 45.5397 104.229 44.6526 104.229C43.723 104.229 43.7992 104.668 43.8244 99.4625L43.8463 94.9155H46.3503H48.8543V95.6413V96.367L47.1991 96.4073L45.5439 96.4477L45.5203 97.5564L45.4966 98.6652L47.0058 98.6481L48.5148 98.6307L47.0718 98.5876L45.6288 98.5443L45.6048 97.583C45.5753 96.4025 45.4395 96.4908 47.2882 96.4892C48.3321 96.4884 48.8085 96.459 48.8798 96.3912C49.0447 96.2346 49.0169 94.9053 48.8473 94.8436C48.5765 94.7448 43.9286 94.7889 43.8208 94.8913ZM58.8279 94.8736C58.6253 94.9952 58.599 103.953 58.8006 104.165C58.968 104.34 60.2495 104.379 60.4237 104.213C60.4961 104.144 60.5256 103.655 60.5256 102.526C60.5256 100.52 60.4449 100.681 61.4472 100.68C61.8973 100.679 62.3189 100.647 62.3843 100.607C62.497 100.54 60.7836 100.574 60.5468 100.645C60.4662 100.668 60.4407 101.092 60.4407 102.404C60.4407 103.905 60.4231 104.138 60.3064 104.18C60.1107 104.252 59.0586 104.238 58.9334 104.162C58.8492 104.111 58.8311 103.126 58.8485 99.5067L58.8704 94.9155L60.4407 94.8724L62.011 94.8295L60.4831 94.8131C59.6335 94.8043 58.8988 94.8311 58.8279 94.8736ZM51.8863 94.9964C49.8943 95.8187 49.1404 99.9945 50.4959 102.697C51.4697 104.638 54.4402 105.09 56.0788 103.546C56.5701 103.083 57.0293 102.413 56.924 102.313C56.8975 102.288 56.8757 102.302 56.8757 102.345C56.8757 102.554 56.1463 103.453 55.7499 103.733C54.4703 104.636 52.5412 104.586 51.3789 103.619C49.1505 101.766 49.499 96.1691 51.9105 95.0821C52.358 94.8803 52.3383 94.8099 51.8863 94.9964ZM62.393 94.9837C63.339 95.2478 63.8946 95.6794 64.1728 96.3664C64.2627 96.5886 64.3385 96.7063 64.3408 96.6283C64.3623 95.9396 63.3297 95.0548 62.3505 94.9228L62.011 94.877L62.393 94.9837ZM53.1101 96.2029C52.5511 96.3922 51.8553 97.2337 51.8742 97.6975C51.877 97.7641 51.9194 97.7278 51.9686 97.6169C52.4344 96.5672 52.8111 96.2461 53.5765 96.2461C54.388 96.2461 54.7553 96.4823 55.1434 97.254C55.2548 97.4758 55.3465 97.5947 55.3469 97.5185C55.352 96.671 54.0277 95.8921 53.1101 96.2029ZM60.4974 96.4612C60.4123 96.5418 60.4318 98.8495 60.5186 98.9797C60.6236 99.1375 61.8659 99.0555 62.1619 98.8712C62.8452 98.4459 62.7382 96.8117 62.008 96.5218C61.7169 96.4063 60.6022 96.3614 60.4974 96.4612ZM61.8164 96.5718C62.7629 96.8216 62.8079 98.5721 61.8758 98.8823C61.5637 98.9863 60.8774 99.0182 60.6599 98.9388C60.4874 98.8759 60.4579 96.7458 60.6274 96.5847C60.7522 96.4662 61.3901 96.4594 61.8164 96.5718ZM64.4041 97.3347C64.445 97.8536 64.3618 98.5511 64.2116 98.9474C64.1706 99.0559 64.1787 99.0823 64.2364 99.0281C64.4701 98.8085 64.5963 97.4595 64.4289 96.9718C64.3869 96.8494 64.3771 96.992 64.4041 97.3347ZM55.4008 98.0201C55.4698 98.4719 55.518 98.5362 55.5163 98.1747C55.5156 98.0231 55.4768 97.8447 55.4301 97.7782C55.3709 97.6937 55.362 97.7665 55.4008 98.0201ZM51.7602 98.1411C51.7269 98.3185 51.704 98.6088 51.7091 98.7862C51.7172 99.064 51.729 99.0416 51.7944 98.6249C51.8816 98.0697 51.8519 97.6516 51.7602 98.1411ZM57.3425 99.5522C57.3425 100.356 57.3673 100.93 57.3977 100.827C57.428 100.725 57.4529 100.151 57.4529 99.5522C57.4529 98.9535 57.428 98.3797 57.3977 98.2773C57.3673 98.1749 57.3425 98.7487 57.3425 99.5522ZM55.4906 99.774C55.4643 100.428 55.4206 101.072 55.3934 101.205C55.3454 101.441 55.3467 101.442 55.4409 101.246C55.536 101.047 55.6665 98.5846 55.5818 98.5846C55.5581 98.5846 55.5169 99.1198 55.4906 99.774ZM63.9421 99.4682C63.7352 99.8123 63.3664 100.112 62.8484 100.358C62.668 100.443 62.5797 100.515 62.6523 100.517C62.9984 100.525 64.1755 99.5504 64.1755 99.2555C64.1755 99.0978 64.1515 99.1196 63.9421 99.4682ZM51.714 100.278C51.7106 100.478 51.7392 100.786 51.7779 100.963L51.8481 101.286L51.8504 101.004C51.8517 100.848 51.8231 100.54 51.7866 100.318L51.7206 99.9151L51.714 100.278ZM57.2249 101.211C57.2196 101.303 57.1536 101.55 57.0783 101.76C57.003 101.97 56.9605 102.16 56.9841 102.182C57.0554 102.25 57.3194 101.357 57.2757 101.195C57.2392 101.06 57.2339 101.061 57.2249 101.211ZM51.9205 101.548C52.2617 102.9 53.9262 103.426 54.8255 102.466C55.0545 102.222 55.3488 101.704 55.3457 101.551C55.3444 101.494 55.2457 101.629 55.1262 101.85C54.3617 103.27 52.6589 103.191 52.0792 101.709C51.9135 101.286 51.8337 101.204 51.9205 101.548ZM41.9895 101.901C41.9188 102.237 41.9873 102.302 42.0637 101.971C42.096 101.832 42.1047 101.701 42.083 101.681C42.0614 101.66 42.0194 101.759 41.9895 101.901ZM35.4894 102.162C35.4833 102.39 35.9928 103.246 36.3361 103.586C37.5026 104.739 39.8893 104.752 41.1173 103.612C41.4643 103.29 41.9349 102.577 41.9345 102.375C41.9343 102.308 41.8199 102.471 41.6799 102.737C41.414 103.244 40.8037 103.841 40.3661 104.023C39.686 104.307 39.4736 104.35 38.7533 104.35C37.8148 104.35 37.2732 104.181 36.6048 103.679C36.2022 103.376 35.8743 102.932 35.6437 102.375C35.5609 102.175 35.4915 102.079 35.4894 102.162Z" fill="#707A81"/>
<path fill-rule="evenodd" clip-rule="evenodd" d="M45.9392 18.5539C45.2306 18.846 44.5976 19.5311 43.9296 20.7285C43.3496 21.7682 43.2162 21.875 42.7765 21.6512C42.6458 21.5849 42.5462 21.6028 42.3264 21.7319C42.1711 21.8232 41.9109 21.8978 41.7481 21.8978C41.2066 21.8978 40.918 22.0433 40.918 22.3165C40.918 23.0156 41.8213 23.4204 42.8384 23.1771C43.1935 23.092 44.1435 22.3969 44.1435 22.2219C44.1435 22.1875 44.2772 21.9484 44.4406 21.6905C44.604 21.4327 44.7377 21.172 44.7377 21.1114C44.7377 20.256 46.2768 18.8335 47.2024 18.8335C47.4658 18.8335 47.3964 18.6164 47.1016 18.5188C46.7392 18.3987 46.2815 18.4126 45.9392 18.5539ZM52.6105 18.5192C52.3285 18.6229 52.3002 18.8331 52.568 18.8347C53.5582 18.841 54.4724 19.6716 55.0203 21.0628C55.6193 22.584 56.5628 23.3505 57.7028 23.242C59.0252 23.1162 59.3073 21.8978 58.0139 21.8978C57.8602 21.8978 57.6058 21.8258 57.4488 21.7377C57.2015 21.5992 57.1262 21.5907 56.89 21.6754C56.4938 21.8175 56.3933 21.7258 55.8148 20.6967C54.8007 18.8926 53.6749 18.1275 52.6105 18.5192ZM47.8783 19.959C47.7616 19.9945 47.4963 20.0723 47.2888 20.132C46.353 20.4011 45.4167 21.4426 45.4167 22.2143C45.4167 22.6409 45.2107 22.9701 44.6239 23.4809C43.2455 24.681 41.9344 24.9068 40.7482 24.1488C38.7246 22.8558 37.0815 23.6875 36.4335 26.3329C36.2677 27.0094 36.2616 27.1804 36.3813 27.8255C36.7254 29.6814 36.3333 30.6178 35.0098 31.101C33.2232 31.7536 32.3356 33.197 32.4627 35.2434C32.7095 39.2184 35.0278 41.7398 38.6985 42.0246C40.8182 42.1891 41.7114 40.993 40.6192 39.4523C39.7585 38.2381 41.2781 37.4053 42.1848 38.5943C43.2788 40.029 42.1356 42.3897 40.1377 42.8213C37.1165 43.4741 33.4212 41.4976 32.4181 38.6922C32.3585 38.5251 32.2853 38.352 32.2556 38.3076C32.2258 38.2633 32.155 38.0455 32.0981 37.8238C32.0412 37.602 31.9614 37.2936 31.9207 37.1384C31.7384 36.4424 31.6503 35.3466 31.6781 34.1209C31.7121 32.6273 31.679 32.5029 31.4237 33.1643C29.2253 38.8586 33.1863 44.5147 39.857 45.2068C41.2357 45.3497 41.5582 45.6455 41.6552 46.8552L41.7006 47.4197L41.1461 47.7632C39.9196 48.5232 39.377 49.88 39.7816 51.1748C40.1689 52.4136 41.6866 53.1472 44.2006 53.3105C45.2489 53.3784 45.2493 53.3651 44.1671 54.2364C43.4407 54.8211 43.3318 54.8823 43.0933 54.8396C40.2684 54.3324 38.617 52.6664 38.4793 50.185C38.4252 49.2093 38.377 49.1494 38.0867 49.6977C37.2636 51.2528 37.4556 53.1277 38.6069 54.7749C38.9544 55.2724 38.9256 55.3712 38.5048 55.124C37.3652 54.4552 36.5041 52.2624 36.5041 50.0301C36.5041 49.3014 36.4568 49.251 35.6992 49.1768C35.0809 49.1161 34.9741 49.2855 35.275 49.8497C35.4032 50.0898 35.5203 50.5077 35.5772 50.9274C35.9227 53.4804 36.9457 55.4412 38.4165 56.3685C38.8842 56.6634 38.9612 56.786 38.7847 56.9537C38.5358 57.1902 38.7739 57.3097 39.3803 57.2529C41.276 57.0755 42.6014 57.7164 42.5051 58.764C42.4482 59.3846 42.4701 59.371 41.6236 59.3003C39.2074 59.0979 37.9679 58.6493 37.6186 57.851C37.3177 57.163 36.7592 57.6881 37.0314 58.4032C37.3835 59.3283 38.7505 59.9474 41.7205 60.5268C42.2873 60.6373 42.4459 60.7883 42.4459 61.2173C42.4459 61.6467 42.316 61.7289 41.7819 61.638C40.1761 61.3644 39.2276 61.6831 39.2193 62.499C39.2159 62.8385 39.0894 62.9032 38.4681 62.8836C37.7752 62.8619 37.6799 62.9306 37.6715 63.4582C37.6604 64.1537 38.1998 64.5601 39.4932 64.8312C39.8536 64.9066 39.7012 65.0845 38.9893 65.4187C37.6451 66.0497 36.4791 65.8221 35.1831 64.6756C34.6412 64.1962 34.6025 64.2097 34.6618 64.8577C34.8324 66.7244 36.3745 67.3449 39.4245 66.7742C40.6483 66.5452 40.6625 66.5472 40.4743 66.9222C40.1125 67.6427 40.1175 68.6529 40.4942 70.9257C40.5347 71.1696 40.63 71.8772 40.7062 72.4981C40.8857 73.9603 40.8929 73.9899 41.0706 73.9899C41.4156 73.9899 41.6195 73.7472 41.5707 73.3942C40.9069 68.5793 40.9746 67.249 41.9667 65.6126C42.6407 64.5006 43.4197 64.224 42.844 65.3012L42.4883 65.9664L42.4945 67.2566C42.5002 68.4356 42.5246 68.6372 42.7784 69.5951C43.4632 72.1806 42.7869 74.7304 41.2028 75.5353C40.3699 75.9585 39.9775 75.9932 39.3545 75.6986C38.544 75.3154 38.0982 75.4416 37.7205 76.1609C37.6193 76.3538 37.3655 76.6608 37.1566 76.8433C35.7871 78.0406 36.6374 80.4047 38.7111 81.1655C38.8744 81.2253 39.0463 81.3003 39.093 81.332C39.2254 81.4221 40.564 81.794 41.2465 81.9305C42.121 82.1053 42.2642 82.094 42.3646 81.8428C42.4527 81.6231 42.7922 81.61 43.8662 81.7846C44.1068 81.8237 44.1516 81.8019 44.229 81.6088C44.4075 81.1629 45.5865 81.5124 45.5865 82.0114C45.5865 82.5462 48.2465 82.5533 49.0556 82.0206C49.5424 81.7001 50.2834 81.7205 50.8034 82.0686L51.187 82.3255L52.6243 82.3609L54.0615 82.3966L54.1679 82.0593C54.3642 81.4368 55.1784 81.1721 55.557 81.6076C55.724 81.7999 55.7501 81.8041 56.3241 81.7312C57.2936 81.6082 57.3569 81.6171 57.4133 81.8858C57.4496 82.0581 57.5035 82.1128 57.6149 82.09C57.6987 82.0731 58.0917 81.9997 58.4886 81.9269C61.6685 81.3439 63.3372 80.0736 63.222 78.3236C63.1702 77.539 62.9385 76.9987 62.5676 76.7985C62.4286 76.7233 62.2236 76.4871 62.105 76.2647C61.8575 75.8004 61.4465 75.4414 61.1628 75.4414C60.9264 75.4414 60.2287 75.7139 60.148 75.8379C59.8704 76.2647 58.1671 75.4799 57.537 74.635C56.8166 73.6688 56.4974 71.2313 56.9091 69.8371C57.4863 67.8822 57.4449 66.2206 56.7894 65.0242C56.3771 64.2714 57.1296 64.6313 57.6909 65.455C58.6556 66.8712 58.8283 68.4275 58.4007 71.853C58.3566 72.2078 58.2906 72.734 58.2543 73.0222C58.1675 73.7103 58.1881 73.778 58.5333 73.9345C58.8852 74.0937 58.8487 74.1889 59.0397 72.6191C59.1127 72.0203 59.2451 71.095 59.334 70.5628C59.6447 68.7053 59.6319 67.6201 59.2913 66.9381C59.0893 66.5339 59.1069 66.5309 60.297 66.768C63.3228 67.3703 64.9861 66.7087 65.096 64.8587C65.1317 64.2605 65.0758 64.2043 64.7635 64.5238C63.4603 65.8572 61.48 66.1374 60.2929 65.1566L59.974 64.8929L60.2287 64.8381C61.7154 64.5174 62.2558 64.042 62.071 63.2185L61.9999 62.9022L61.4686 62.9219C60.8022 62.9467 60.6408 62.8645 60.5202 62.4391C60.3216 61.7382 59.6863 61.4116 58.7562 61.5323C58.4922 61.5666 58.0663 61.5987 57.8095 61.6033L57.3427 61.612L57.3153 61.3404C57.2627 60.8183 57.4193 60.6348 58.0064 60.5298C61.3429 59.9325 62.9905 59.0221 62.7685 57.8982C62.6561 57.3283 62.3424 57.348 62.0782 57.9417C61.7489 58.6824 59.7741 59.3138 57.7872 59.3138H57.3197L57.261 58.8671C57.1152 57.7577 58.4039 57.0852 60.3861 57.2364C60.9915 57.2825 61.1537 57.2366 61.0319 57.0537C60.8572 56.7916 60.9559 56.6126 61.4531 56.2899C62.8787 55.3641 63.9412 53.2276 64.2202 50.7259C64.2499 50.4597 64.3352 50.1519 64.4097 50.0416C64.6147 49.7384 64.6888 49.2528 64.5385 49.198C64.0061 49.0038 63.3266 49.282 63.3277 49.6937C63.333 51.7237 62.6387 53.8445 61.6625 54.7779C61.0147 55.3976 60.6155 55.5028 61.0707 54.9337C62.3148 53.379 62.5457 51.1125 61.6173 49.5683C61.3308 49.0921 61.2901 49.1429 61.2867 49.9799C61.2767 52.4521 59.403 54.4689 56.7795 54.8313L56.3863 54.8858L55.5701 54.2171C54.5541 53.3843 54.5541 53.3796 55.5814 53.3087C57.2527 53.1932 58.6131 52.7807 59.3238 52.1735C60.7326 50.9702 60.089 48.1954 58.2469 47.53C57.7978 47.3679 58.2598 45.6747 58.8281 45.4001C58.9448 45.3437 59.4605 45.2554 59.974 45.2036C63.4463 44.8542 66.8325 42.6697 68.2262 39.88C69.1822 37.9663 69.1858 34.9335 68.2345 32.8903C67.9975 32.3815 67.9769 32.4692 68.0656 33.6096C68.4849 39.0073 65.7583 42.6391 61.076 42.9199C58.8952 43.0505 57.64 42.1857 57.2198 40.2629C56.8924 38.7644 58.3358 37.4184 59.2941 38.3288C59.5594 38.5808 59.5604 38.7049 59.3005 39.1573C58.7914 40.0443 58.747 40.1633 58.7453 40.6461C58.7411 42.002 60.3662 42.4393 62.7327 41.719C67.6193 40.2314 69.1438 32.4674 64.8138 31.1197C63.4907 30.7079 63.0158 29.5074 63.4272 27.615C63.5321 27.1326 63.4786 26.7443 63.1781 25.8087C62.4731 23.6135 60.9661 22.9707 59.1201 24.078C57.6937 24.9338 56.4694 24.7199 55.0383 23.3648C54.5227 22.8765 54.4144 22.7292 54.4151 22.5173C54.4189 21.3885 53.4398 20.3564 52.0263 19.999C51.5244 19.8721 48.2677 19.8407 47.8783 19.959ZM35.5184 23.7726C34.4478 24.8727 33.6727 30.1053 34.5779 30.1216C34.6157 30.1222 34.8258 29.9616 35.0448 29.7644L35.4431 29.4062L35.4017 28.5347C35.2651 25.6624 35.3625 25.1676 36.308 23.9244C36.6329 23.4972 35.9199 23.3601 35.5184 23.7726ZM63.4588 23.6385C63.336 23.7553 63.3455 23.7922 63.569 24.0619C64.3002 24.9449 64.4723 25.6263 64.3868 27.3005C64.2752 29.4906 64.2589 29.3683 64.7168 29.7793C65.5542 30.5309 65.7417 30.065 65.4882 27.865C65.1276 24.7389 64.2421 22.8945 63.4588 23.6385ZM46.7167 24.9493C46.927 25.0668 47.5388 25.8267 47.5388 25.9702C47.5388 25.9996 47.6589 26.2837 47.8057 26.6016C48.426 27.9438 48.7401 29.8152 49.0225 33.8511C49.3054 37.8913 49.1706 38.5953 48.116 38.5886C47.6903 38.586 47.6982 38.6116 47.456 36.4126C47.4047 35.9469 47.3276 35.3845 47.2848 35.1627C47.2417 34.941 47.1621 34.5237 47.1076 34.2354C46.8423 32.8345 46.1427 30.5478 45.4787 28.9133C44.6838 26.956 44.6536 26.8614 44.6532 26.3226C44.6522 25.0402 45.6695 24.3633 46.7167 24.9493ZM54.4565 24.9523C55.3641 25.4497 55.3747 26.2405 54.5027 28.3891C53.9992 29.6299 53.5102 30.9437 53.3925 31.3727C53.356 31.5058 53.2505 31.8868 53.1584 32.2194C52.9273 33.053 52.6705 34.1662 52.5534 34.8402C52.4997 35.1506 52.4208 35.6042 52.3785 35.8481C52.3361 36.0921 52.2548 36.7745 52.1978 37.3645C52.0821 38.5596 52.0267 38.6513 51.4801 38.5538C50.5653 38.3909 50.4696 37.825 50.7217 34.0711C50.9532 30.6208 51.2721 28.4165 51.7177 27.183C52.4817 25.0687 53.3613 24.3522 54.4565 24.9523ZM39.9123 25.7815C41.7297 26.7016 44.5947 30.4432 45.6756 33.308C46.617 35.803 47.2394 39.6182 46.753 39.9111C46.3627 40.1462 46.1433 39.8309 46.0841 38.9499C46.0292 38.1294 45.919 37.4315 45.7541 36.8561C45.7034 36.6787 45.6313 36.4247 45.5941 36.2917C44.8939 33.7919 42.0647 30.2535 39.1355 28.2137C37.5791 27.13 37.2753 26.1206 38.3291 25.5348C38.6149 25.3759 39.3318 25.4876 39.9123 25.7815ZM61.4563 25.5652C62.5712 26.1129 62.1667 27.1652 60.3511 28.4407C59.7909 28.8343 59.487 29.0834 58.4357 30.0102C56.6093 31.6203 54.6443 34.6085 54.0934 36.6142C53.7895 37.7208 53.7464 37.9609 53.6961 38.8269C53.642 39.7609 53.5306 39.9869 53.1455 39.9444C52.6538 39.8899 52.8965 37.1162 53.6004 34.7472C55.0579 29.8424 59.5277 24.6179 61.4563 25.5652ZM38.7949 29.6386C40.6913 30.5577 44.5891 35.4897 44.8765 37.3341L44.9278 37.6625L44.6517 37.2748C43.8774 36.1872 42.525 35.0623 39.6189 33.0881C37.2154 31.4554 37.0196 31.2463 37.0153 30.3115C37.0119 29.5463 37.9066 29.208 38.7949 29.6386ZM62.5046 29.6725C63.267 30.3436 62.6747 31.4239 60.9077 32.5859C57.7584 34.6569 55.9553 36.1024 55.2357 37.1327C54.5827 38.0679 54.8611 36.9712 55.6461 35.5155C56.6415 33.6697 59.4195 30.5746 60.8606 29.7053C61.378 29.3933 62.1697 29.3776 62.5046 29.6725ZM36.7163 33.4705C37.0488 33.6554 37.5611 34.1223 38.2994 34.9131C38.7106 35.3534 39.3848 35.6869 39.8642 35.6869C40.1458 35.6869 40.4229 35.7353 41.3424 35.9453C42.313 36.1671 43.3694 36.8958 43.7214 37.5863C44.1762 38.479 44.3099 40.049 43.9578 40.3606C43.5761 40.6985 43.3806 40.511 43.3766 39.8034C43.3651 37.8254 42.3251 36.788 40.6222 37.0561C39.3035 37.2637 38.6567 38.0361 39.134 38.833C39.9495 40.1953 39.9722 40.736 39.2218 40.9279C38.4231 41.1324 36.7392 40.1296 35.5553 38.7447C33.2852 36.0893 34.173 32.0565 36.7163 33.4705ZM64.4692 33.2746C66.5082 34.1852 65.4998 38.2374 62.7747 40.0849C60.6229 41.5436 59.376 41.1211 60.3984 39.2795C61.1225 37.9752 60.7324 37.3097 59.0864 37.0416C57.4764 36.7793 56.5715 37.6556 56.4058 39.6381C56.3232 40.6235 55.777 40.8658 55.6372 39.9792C55.2618 37.6018 56.8009 36.0358 59.8518 35.6911C60.6622 35.5996 60.9586 35.4292 61.7752 34.5858C62.5264 33.8096 63.1427 33.3613 63.6664 33.2093C64.0776 33.0897 64.0503 33.0875 64.4692 33.2746ZM48.4286 40.2236C48.6694 40.4399 49.2871 40.3465 49.7669 40.0218C49.8847 39.9421 49.9463 39.9417 50.064 40.0204C50.6291 40.3975 51.1026 40.4471 51.4546 40.1657C51.7211 39.9526 51.8389 39.9625 52.2268 40.2312C52.6975 40.5574 52.7387 41.3464 52.3295 42.1964C52.0354 42.8074 52.0513 42.9443 52.4165 42.9443C52.7459 42.9443 52.7652 42.9211 53.1913 42.017C53.603 41.1434 54.0781 40.9838 54.5946 41.545C55.3182 42.3314 55.0542 43.2799 53.7468 44.5913C53.1359 45.2042 52.7011 45.7297 52.4027 46.2166C51.6732 47.4062 51.7061 47.4007 51.7018 46.3311C51.6944 44.5175 51.0826 43.0298 50.1576 42.5752C49.2814 42.1448 48.1892 43.9684 48.0805 46.043C48.0169 47.2584 48.0162 47.259 47.5254 46.4446C47.0505 45.6565 46.5147 45.0163 45.7092 44.2748C44.6999 43.3457 44.5115 42.0081 45.306 41.4142C45.8159 41.0332 46.1906 41.2354 46.6231 42.1252C46.9915 42.8832 47.0452 42.9413 47.3811 42.9431C47.7064 42.9449 47.7192 42.801 47.4441 42.2252C47.1999 41.7142 47.0957 40.705 47.2642 40.4836C47.6243 40.0105 48.078 39.9091 48.4286 40.2236ZM50.1453 43.8515C51.1953 44.9423 51.3016 47.9277 50.3787 50.4033C50.2298 50.8025 50.0823 51.2639 50.0509 51.4286C49.9694 51.8562 49.8529 51.8737 49.7483 51.4742C49.6986 51.2843 49.5422 50.8307 49.4007 50.466C48.659 48.5529 48.5898 45.8585 49.2473 44.4812C49.6428 43.6523 49.8285 43.5223 50.1453 43.8515ZM44.9263 45.2517C46.7581 46.1517 47.9632 48.2458 47.9632 50.5293C47.9632 50.97 47.9536 51.33 47.942 51.3294C47.41 51.2988 47.1473 51.095 46.8094 50.4517C46.1546 49.2046 45.5211 48.7724 43.4852 48.1835C42.195 47.8104 42.247 45.3485 43.5504 45.0969C43.8721 45.0348 44.6668 45.1241 44.9263 45.2517ZM56.5363 45.2074C57.0793 45.4088 57.356 46.3652 57.13 47.26C56.9881 47.8219 56.7311 48.0479 55.9846 48.2664C54.2203 48.7831 53.3884 49.3983 52.9279 50.5271C52.7359 50.9978 52.6483 51.0845 52.2243 51.223C51.7789 51.3683 51.7551 51.3204 51.8045 50.3716C51.9747 47.1076 54.4314 44.4266 56.5363 45.2074ZM44.5671 49.482C45.1324 49.7683 46.162 50.7355 46.0326 50.8585C45.9871 50.9016 45.7068 50.8815 45.3412 50.8083C44.1197 50.5642 43.6637 50.671 42.8626 51.3889C42.1193 52.0552 41.6448 52.0534 41.0241 51.3814C39.7702 50.0247 42.6209 48.4966 44.5671 49.482ZM57.8418 49.4056C59.2421 49.9146 59.4866 51.1772 58.2914 51.727C57.7106 51.9941 57.5239 51.955 56.9766 51.4514C56.1791 50.7176 55.491 50.5402 54.4444 50.7986C53.5518 51.0192 53.52 50.9387 54.2124 50.212C55.1801 49.1961 56.4747 48.9085 57.8418 49.4056ZM33.505 53.2391C33.3306 53.4048 33.5173 54.3136 33.9035 55.1787C34.2284 55.9062 34.2047 56.0588 33.671 56.6773C32.1293 58.4641 32.2876 60.2919 34.1257 61.9251L34.5546 62.3063L35.1899 61.7642C35.9944 61.0773 35.994 61.0165 35.185 60.8461C32.8682 60.3581 33.4796 56.9803 35.8853 56.9761C37.0567 56.9741 36.8967 56.0205 35.6366 55.4954C34.7819 55.139 34.0792 54.3296 33.7541 53.3264C33.7068 53.1809 33.6041 53.1448 33.505 53.2391ZM65.8396 53.7278C65.4461 54.6408 65.0084 55.0966 64.1757 55.4597C62.891 56.0197 62.6745 56.9753 63.8321 56.9753C65.0867 56.9753 66.0431 57.9246 66.0431 59.1699C66.0431 60.1345 65.5393 60.66 64.3879 60.8971C63.8565 61.0064 63.8939 61.2072 64.5479 61.7559C65.2231 62.3226 65.2484 62.3228 65.8048 61.766C67.4629 60.1071 67.5994 58.3802 66.1982 56.7908C65.5964 56.1082 65.5667 55.8708 65.9688 54.9612C66.1725 54.5009 66.2366 54.2312 66.2447 53.8016C66.2585 53.0684 66.1335 53.0456 65.8396 53.7278ZM51.6131 53.477C54.7756 54.2463 56.8071 57.0055 56.2895 59.8289C56.0762 60.9929 55.3823 62.2168 54.9358 62.2168C54.4972 62.2168 54.4522 62.0377 54.7805 61.5983C57.1984 58.3596 54.4189 53.9306 49.9579 53.9139C47.4026 53.9044 45.3847 55.1367 44.4175 57.2978C43.8464 58.5735 44.0909 60.3581 45.0116 61.6366C45.3121 62.0539 45.2741 62.2168 44.8765 62.2168C44.43 62.2168 43.7598 61.1263 43.5054 59.9859C42.6012 55.9314 47.0435 52.3652 51.6131 53.477ZM51.1887 54.7565C54.4936 55.5909 55.9069 58.982 53.9535 61.3902C53.5877 61.8412 53.4661 61.8819 52.9627 61.7218C52.5515 61.5912 52.5095 61.5303 52.7096 61.3533C54.4588 59.8051 54.0021 56.9755 51.8406 55.9709C47.9362 54.1562 44.0342 58.3022 46.9302 61.1884C47.2786 61.5358 47.2493 61.5979 46.6696 61.7448C45.7041 61.9892 44.7035 59.9768 44.972 58.3302C45.3843 55.7992 48.416 54.0566 51.1887 54.7565ZM51.0614 56.885C52.4248 57.4597 52.9844 58.9622 52.2661 60.1202C50.9882 62.1807 47.2046 61.4047 47.2001 59.0812C47.1967 57.2763 49.2371 56.1157 51.0614 56.885ZM48.4941 62.5865C49.4786 63.0324 49.5068 64.1154 48.6282 67.7405C48.3683 68.8134 48.4714 69.175 49.2776 70.0185C49.8769 70.6454 49.8679 70.6461 50.5466 69.9397C51.3279 69.1262 51.3808 68.9057 51.1017 67.6195C50.4541 64.6337 50.3717 63.9468 50.5873 63.3263C50.8091 62.6877 51.5569 62.3551 52.4225 62.5103C52.8507 62.5869 52.9224 62.6937 52.6381 62.8316C50.6561 63.7928 51.0032 66.8268 53.3292 68.8726C54.0125 69.4736 54.0278 69.3573 53.3876 68.4338C51.6178 65.882 51.8185 63.7178 53.8247 63.7178C56.2267 63.7178 57.224 66.9238 55.9094 70.4199C55.839 70.6073 55.7163 71.0065 55.6372 71.3069C55.4048 72.1868 54.9851 72.6898 54.3423 72.8584C53.962 72.9581 53.9257 72.9233 53.6117 72.161C52.9978 70.6696 51.7568 70.7053 51.7003 72.2159C51.6687 73.0652 51.1894 73.3188 50.5016 72.8503C49.8546 72.4094 49.876 72.4116 49.4546 72.7396C48.7473 73.2902 48.133 73.1573 48.133 72.454C48.133 70.6529 46.662 70.6271 46.0442 72.4175C45.8607 72.9499 45.8356 72.968 45.4322 72.865C44.9234 72.7348 44.4408 72.2431 44.2619 71.673C44.1817 71.4172 44.0094 70.8813 43.8791 70.4822C42.799 67.1736 43.119 64.9919 44.8226 64.0511C45.4511 63.7039 45.9426 63.6215 46.3986 63.787C48.0814 64.3976 48.009 66.2519 46.2068 68.688C45.6497 69.4409 45.731 69.4808 46.475 68.8194C48.7233 66.8214 49.1076 64.4607 47.4142 63.0498C46.8674 62.5942 46.8551 62.5601 47.2205 62.5169C47.8386 62.4442 48.2268 62.4653 48.4941 62.5865ZM45.3548 64.6845C44.6203 65.0222 44.1435 65.6947 44.1435 66.393C44.1435 66.6246 44.1921 66.8956 44.4172 67.9219C44.5337 68.4531 44.7646 68.4981 45.1175 68.0584C45.2442 67.9005 45.5727 67.6161 45.8475 67.4262C46.4697 66.996 46.6369 66.7926 46.7613 66.3138C47.1216 64.9278 46.4693 64.1722 45.3548 64.6845ZM53.4243 64.604C53.0035 64.8012 52.8352 65.3858 52.9804 66.146C53.0971 66.7573 53.1786 66.8645 54.0087 67.4981C54.3951 67.7931 54.7398 68.1068 54.7743 68.1953C54.82 68.3116 54.9002 68.3491 55.0644 68.3305C55.4895 68.2826 55.7496 66.1352 55.4033 65.532C54.9776 64.7901 54.0028 64.3331 53.4243 64.604ZM44.0448 73.0021C44.176 73.2426 44.4624 74.0891 44.57 74.5544C44.7249 75.2247 44.9104 75.6027 45.0844 75.6027C45.2459 75.6027 45.261 75.5722 45.4628 74.8368C45.7773 73.6893 46.7748 73.7883 46.7748 74.9668C46.7748 75.9488 46.1741 77.8803 45.8286 78.0083C45.7889 78.0232 45.7563 78.0714 45.7563 78.1157C45.7563 78.1601 45.6226 78.3512 45.4592 78.5407C45.2018 78.8391 45.1619 78.9433 45.1608 79.3203C45.1578 80.2712 44.1785 80.5559 42.6496 80.05C40.9233 79.4791 40.6899 78.8318 42.0639 78.4246C42.9783 78.1536 42.9702 76.9114 42.0556 77.1511C41.1919 77.3773 41.2435 77.1533 42.299 76.0948C43.4163 74.9743 43.6378 74.5969 43.6919 73.7224C43.7469 72.8315 43.8439 72.6338 44.0448 73.0021ZM56.0433 73.5827C56.1367 74.6419 56.3466 75.0138 57.453 76.0817C58.496 77.0882 58.5643 77.336 57.748 77.1523C56.8204 76.9435 56.7313 78.1591 57.6552 78.4183C59.1182 78.8288 58.834 79.5279 56.9673 80.1099C55.5682 80.5464 54.5921 80.2139 54.5868 79.2995C54.5842 78.8969 54.5486 78.8032 54.282 78.5002C53.263 77.3414 52.5871 74.6919 53.1949 74.2377C53.7137 73.85 54.1112 74.0943 54.3349 74.9382C54.6044 75.9553 54.8614 75.8295 55.2077 74.5112C55.6575 72.7977 55.9461 72.4771 56.0433 73.5827ZM49.1161 74.4409C49.1475 74.6001 49.1496 74.8995 49.1206 75.1061C48.7605 77.6736 48.7441 77.9978 48.9415 78.6695C49.2903 79.8565 49.027 80.6323 48.1582 80.9772C47.5638 81.2131 47.3731 81.0933 47.3701 80.4819C47.3694 80.3377 47.2451 80.0696 47.0609 79.8156C46.5883 79.1638 46.6537 78.5034 47.3134 77.2652C47.5761 76.7721 47.9668 75.9546 48.1813 75.4482C48.7564 74.0923 48.9962 73.8337 49.1161 74.4409ZM51.0332 74.2923C51.1703 74.4465 51.4412 75.0257 51.8733 76.0865C52.0267 76.4635 52.2152 76.8626 52.292 76.9735C53.082 78.1141 53.2098 79.0866 52.6735 79.8773C52.4923 80.1446 52.3771 80.4149 52.3771 80.5728C52.3771 81.1209 52.1417 81.2229 51.5461 80.9326C50.7779 80.5583 50.4392 79.7894 50.7329 79.0868C50.9239 78.63 50.9466 76.7098 50.7711 75.8464C50.5381 74.7001 50.675 73.8891 51.0332 74.2923ZM39.225 76.374C39.3163 76.4786 39.3114 76.5387 39.1964 76.7235C39.0796 76.9112 39.0752 76.9717 39.169 77.1013C39.2301 77.1862 39.3018 77.4598 39.3279 77.7091C39.437 78.7473 40.3215 79.6763 42.0811 80.6014C43.3157 81.2503 41.6172 81.5933 40.1063 81.0002C38.4125 80.3351 37.4268 79.3443 37.4416 78.3212C37.4537 77.4771 38.8534 75.9488 39.225 76.374ZM61.1418 76.4617C61.2464 76.5792 61.5131 76.8523 61.7342 77.0687C63.1225 78.4258 61.8336 80.4383 59.0885 81.1999C57.9532 81.515 56.6271 81.0808 57.5305 80.6897C59.0738 80.0216 60.3328 78.7524 60.4568 77.7396C60.4895 77.4735 60.5417 77.1374 60.5731 76.9929C60.6089 76.8276 60.5913 76.6856 60.5251 76.6098C60.4417 76.5143 60.4417 76.4649 60.5257 76.3687C60.6853 76.1861 60.9291 76.223 61.1418 76.4617ZM52.5893 94.8026C50.794 95.3995 49.9155 96.9469 49.9155 99.5118C49.9157 102.664 51.1843 104.323 53.6079 104.343C56.0278 104.363 57.3868 102.641 57.3845 99.5576C57.3828 97.2211 56.598 95.6136 55.1546 94.9892C54.5694 94.7362 53.1087 94.6298 52.5893 94.8026ZM35.3508 95.0759C35.2271 95.5444 35.3733 101.505 35.521 102.007C35.7898 102.922 36.4396 103.731 37.1407 104.024C37.8141 104.304 38.0354 104.35 38.7111 104.35C40.4267 104.35 41.5417 103.536 41.983 101.961C42.0787 101.619 42.1046 100.826 42.1053 98.2015L42.1063 94.8751H41.3H40.4936V97.8386C40.4934 101.755 40.393 102.284 39.5584 102.767C39.1406 103.009 38.2915 103.008 37.9178 102.765C37.1051 102.236 37.0739 102.077 37.0179 98.1813L36.971 94.9155L36.1881 94.8923C35.4104 94.8693 35.4051 94.8705 35.3508 95.0759ZM43.8619 94.9278C43.7511 95.033 43.794 104.026 43.9058 104.132C44.051 104.27 45.2826 104.262 45.4046 104.122C45.4655 104.052 45.5065 103.354 45.5211 102.126L45.5441 100.238L47.0963 100.216L48.6486 100.194L48.6242 99.4495L48.5998 98.7054L47.0484 98.6835L45.4969 98.6615L45.5205 97.5545L45.5441 96.4476L47.1993 96.4073L48.8545 96.3669V95.6412V94.9155L46.3871 94.8941C45.0301 94.8824 43.8937 94.8975 43.8619 94.9278ZM58.8848 94.929C58.7462 95.0606 58.8224 104.129 58.9624 104.18C59.156 104.251 60.2098 104.238 60.3331 104.164C60.409 104.118 60.4436 103.631 60.4604 102.371L60.4833 100.641L61.4594 100.59C63.4989 100.484 64.3754 99.615 64.3754 97.6975C64.3754 96.1085 63.8134 95.3545 62.3543 94.9854C61.908 94.8725 58.994 94.8249 58.8848 94.929ZM54.1362 96.2065C55.1684 96.4978 55.5601 97.4072 55.5601 99.5118C55.5601 101.921 54.9929 102.939 53.6503 102.939C52.3244 102.939 51.7935 102.073 51.723 99.7941C51.6369 97.0078 52.4885 95.7416 54.1362 96.2065ZM62.0082 96.5218C62.7384 96.8117 62.8454 98.4458 62.1621 98.8712C61.866 99.0554 60.6238 99.1375 60.5187 98.9796C60.4319 98.8494 60.4124 96.5417 60.4975 96.4611C60.6023 96.3613 61.7171 96.4062 62.0082 96.5218Z" fill="white"/>
<path fill-rule="evenodd" clip-rule="evenodd" d="M49.7032 88.3434L28.7373 88.3839V99.5486V110.713L28.9495 110.77C29.299 110.863 70.7072 110.849 70.8912 110.756C71.1457 110.626 71.1414 88.4758 70.8868 88.3464C70.7966 88.3004 70.7106 88.2718 70.6958 88.2829C70.6811 88.2938 61.2344 88.321 49.7032 88.3434ZM54.7146 94.7579C58.2557 95.6292 58.5154 102.944 55.0507 104.223C53.6846 104.727 52.1104 104.447 51.1273 103.524C49.7053 102.19 49.3594 98.6487 50.4408 96.4961C51.1933 94.9982 52.889 94.3086 54.7146 94.7579ZM36.9802 94.8563C37.0451 94.8972 37.0897 95.9274 37.1243 98.1814C37.189 102.428 37.339 102.858 38.7534 102.858C40.1612 102.858 40.3318 102.361 40.3999 98.0605L40.451 94.8349L41.2447 94.8116C42.3738 94.7785 42.276 94.4828 42.276 97.9292C42.276 102.471 41.9827 103.372 40.2479 104.163C38.2757 105.061 36.0686 104.086 35.4292 102.033C35.2518 101.464 35.1525 95.1023 35.318 94.9128C35.4288 94.786 36.7945 94.7396 36.9802 94.8563ZM48.8474 94.8436C49.0169 94.9053 49.0447 96.2346 48.8798 96.3913C48.8085 96.459 48.3321 96.4884 47.2883 96.4892C45.4395 96.4908 45.5754 96.4025 45.6049 97.5831L45.6288 98.5443L47.089 98.5846C48.8183 98.6324 48.7415 98.588 48.7092 99.5192L48.6846 100.238L47.1567 100.283C46.3164 100.307 45.6193 100.335 45.6076 100.343C45.5959 100.352 45.5864 101.204 45.5864 102.238C45.5864 103.591 45.558 104.143 45.4845 104.213C45.2984 104.39 43.9123 104.341 43.8068 104.154C43.6732 103.916 43.6865 95.019 43.8208 94.8914C43.9286 94.789 48.5766 94.7448 48.8474 94.8436ZM62.392 94.9202C63.5831 95.1869 64.1 95.675 64.3941 96.8106C64.5847 97.5462 64.5053 98.7564 64.249 99.0241C64.2087 99.0662 64.1756 99.161 64.1756 99.2346C64.1756 99.9093 62.702 100.678 61.4048 100.68C60.4518 100.681 60.5256 100.526 60.5256 102.526C60.5256 103.656 60.4961 104.144 60.4238 104.213C60.2496 104.379 58.9681 104.34 58.8006 104.165C58.599 103.953 58.6253 94.9952 58.828 94.8736C59.043 94.7444 61.766 94.7801 62.392 94.9202ZM52.7485 96.4842C51.2268 97.5474 51.4326 102.095 53.032 102.747C54.7861 103.462 56.0475 100.933 55.3952 98.0085C55.0476 96.4505 53.8138 95.7401 52.7485 96.4842ZM60.6275 96.5848C60.4579 96.7459 60.4874 98.8759 60.66 98.9388C61.1362 99.1126 62.072 98.9055 62.3351 98.5681C62.594 98.2365 62.5872 97.2636 62.3236 96.9118C62.0425 96.5368 60.9082 96.3181 60.6275 96.5848Z" fill="#962038"/>
</svg>
