<svg width="124" height="119" viewBox="0 0 124 119" fill="none" xmlns="http://www.w3.org/2000/svg">
<path d="M28.4152 103.185C28.4152 103.185 30.3202 87.645 31.4152 84.25C32.5102 80.855 32.2002 48.33 32.2352 48C32.2702 47.67 14.6452 56.455 13.1052 59.07C11.5652 61.685 15.5752 78.74 14.4502 81.205C13.3252 83.67 9.66016 94.47 9.66016 94.47L28.4152 103.185Z" fill="white"/>
<path d="M28.4152 103.435C28.3789 103.434 28.3432 103.425 28.3102 103.41L9.55023 94.6951C9.49338 94.6707 9.44786 94.6257 9.42282 94.5691C9.39778 94.5126 9.39507 94.4486 9.41524 94.3901C9.56524 93.9451 13.1052 83.5451 14.2202 81.1001C14.7202 80.0151 14.1002 75.5251 13.5002 71.1851C12.7752 65.8901 12.0002 60.4151 12.8852 58.9451C13.7702 57.4751 18.8402 54.5401 22.9802 52.2951C24.3402 51.5601 31.8252 47.6101 32.3052 47.7551C32.3605 47.7739 32.4078 47.8108 32.4395 47.8598C32.4713 47.9088 32.4856 47.967 32.4802 48.0251C32.4802 48.1001 32.4802 48.9801 32.4802 50.1901C32.5052 57.9151 32.5802 81.4151 31.6402 84.3301C30.5702 87.6601 28.6802 103.06 28.6402 103.215C28.63 103.275 28.5996 103.329 28.5541 103.369C28.5086 103.409 28.4508 103.433 28.3902 103.435H28.4152ZM9.96524 94.3351L28.2102 102.835C28.5002 100.485 30.1602 87.3351 31.1702 84.2001C31.7752 82.3201 32.0502 70.8851 31.9852 50.2001C31.9852 49.2001 31.9852 48.6401 31.9852 48.3351C29.6652 49.2551 14.6902 56.8701 13.3202 59.2051C12.5452 60.5251 13.3202 66.1551 14.0052 71.1201C14.6652 75.9351 15.2352 80.1201 14.6802 81.3151C13.6552 83.5401 10.5002 92.8101 9.96524 94.3351Z" fill="#231F20"/>
<path d="M28.1352 116.83L31.1502 96.7301L10.6452 86.5801L0.285156 115.815L28.1352 116.83Z" fill="#231F20"/>
<path d="M28.135 117.08L0.290008 116.08C0.250692 116.08 0.211994 116.07 0.177184 116.052C0.142374 116.034 0.112473 116.007 0.090007 115.975C0.0683197 115.942 0.0543517 115.905 0.0491554 115.866C0.0439591 115.827 0.047671 115.787 0.0600082 115.75L10.41 86.5C10.4231 86.4673 10.4426 86.4375 10.4676 86.4126C10.4925 86.3876 10.5222 86.368 10.555 86.3549C10.5877 86.3418 10.6228 86.3355 10.658 86.3364C10.6933 86.3373 10.728 86.3453 10.76 86.36L31.26 96.51C31.3084 96.5322 31.3483 96.5696 31.3736 96.6166C31.3988 96.6635 31.4081 96.7174 31.4 96.77L28.4 116.87C28.3891 116.931 28.3561 116.987 28.3073 117.025C28.2585 117.064 28.1972 117.083 28.135 117.08ZM0.635005 115.58L27.92 116.58L30.875 96.88L10.79 86.93L0.635005 115.58Z" fill="#231F20"/>
<path d="M94.235 9.15503H31.555C29.7877 9.15503 28.355 10.5877 28.355 12.355V95.34C28.355 97.1073 29.7877 98.54 31.555 98.54H94.235C96.0023 98.54 97.435 97.1073 97.435 95.34V12.355C97.435 10.5877 96.0023 9.15503 94.235 9.15503Z" fill="white"/>
<path d="M94.235 98.795H31.55C30.6363 98.7924 29.7608 98.4279 29.1152 97.7813C28.4695 97.1347 28.1063 96.2587 28.105 95.345V12.345C28.1063 11.4313 28.4695 10.5553 29.1152 9.90872C29.7608 9.26215 30.6363 8.89766 31.55 8.89502H94.235C95.1496 8.89634 96.0263 9.26025 96.673 9.90696C97.3197 10.5537 97.6837 11.4304 97.685 12.345V95.345C97.6837 96.2596 97.3197 97.1364 96.673 97.7831C96.0263 98.4298 95.1496 98.7937 94.235 98.795ZM31.55 9.40502C30.7685 9.40634 30.0194 9.71773 29.4672 10.2708C28.9151 10.8239 28.605 11.5735 28.605 12.355V95.355C28.605 96.1366 28.9151 96.8861 29.4672 97.4392C30.0194 97.9923 30.7685 98.3037 31.55 98.305H94.235C95.017 98.3037 95.7665 97.9925 96.3195 97.4395C96.8724 96.8866 97.1837 96.137 97.185 95.355V12.355C97.1837 11.573 96.8724 10.8235 96.3195 10.2705C95.7665 9.71757 95.017 9.40634 94.235 9.40502H31.55Z" fill="#231F20"/>
<path d="M93.2 14.635H32.585V93.07H93.2V14.635Z" fill="white"/>
<path d="M93.2 93.32H32.585C32.5187 93.32 32.4551 93.2937 32.4082 93.2468C32.3613 93.1999 32.335 93.1363 32.335 93.07V14.635C32.335 14.5687 32.3613 14.5051 32.4082 14.4582C32.4551 14.4113 32.5187 14.385 32.585 14.385H93.2C93.2663 14.385 93.3298 14.4113 93.3767 14.4582C93.4236 14.5051 93.45 14.5687 93.45 14.635V93.07C93.45 93.1363 93.4236 93.1999 93.3767 93.2468C93.3298 93.2937 93.2663 93.32 93.2 93.32ZM32.835 92.82H92.95V14.885H32.835V92.82Z" fill="#231F20"/>
<path d="M78.735 6.00002H70C69.6795 4.34615 68.7934 2.85537 67.4938 1.78343C66.1942 0.711501 64.5621 0.125244 62.8775 0.125244C61.1928 0.125244 59.5607 0.711501 58.2611 1.78343C56.9615 2.85537 56.0755 4.34615 55.755 6.00002H47.055C46.5002 6.00002 45.9681 6.22005 45.5753 6.61186C45.1826 7.00367 44.9613 7.53526 44.96 8.09002V15.375C44.9613 15.9298 45.1826 16.4614 45.5753 16.8532C45.9681 17.245 46.5002 17.465 47.055 17.465H78.735C79.2893 17.465 79.8209 17.2448 80.2128 16.8529C80.6048 16.4609 80.825 15.9293 80.825 15.375V8.08502C80.8236 7.53158 80.6029 7.00127 80.2111 6.6104C79.8192 6.21953 79.2884 6.00002 78.735 6.00002ZM62.895 6.95002C62.5269 6.95101 62.1668 6.84276 61.8602 6.63899C61.5537 6.43521 61.3145 6.14506 61.173 5.80528C61.0314 5.4655 60.9939 5.09136 61.0651 4.73023C61.1363 4.36909 61.313 4.0372 61.573 3.77658C61.8329 3.51595 62.1643 3.33831 62.5253 3.26613C62.8862 3.19396 63.2604 3.2305 63.6006 3.37113C63.9408 3.51176 64.2315 3.75016 64.4361 4.05614C64.6407 4.36212 64.75 4.72193 64.75 5.09002C64.7486 5.58205 64.553 6.05363 64.2055 6.40202C63.858 6.75041 63.387 6.94738 62.895 6.95002Z" fill="#CA973C"/>
<path d="M55.9398 39.73H41.2998C41.2388 39.73 41.1803 39.7058 41.1372 39.6626C41.0941 39.6195 41.0698 39.561 41.0698 39.5V23.855C41.0698 23.794 41.0941 23.7355 41.1372 23.6924C41.1803 23.6492 41.2388 23.625 41.2998 23.625H55.9398C56.0004 23.6263 56.0582 23.6509 56.101 23.6938C56.1439 23.7366 56.1685 23.7944 56.1698 23.855V39.5C56.1685 39.5606 56.1439 39.6184 56.101 39.6612C56.0582 39.7041 56.0004 39.7287 55.9398 39.73ZM41.5298 39.265H55.7098V24.085H41.5298V39.265Z" fill="#D1D3D4"/>
<path d="M59.3699 27.68C59.293 27.8096 59.2043 27.9318 59.1049 28.045L49.6449 37.5C49.5971 37.5754 49.531 37.6375 49.4527 37.6805C49.3745 37.7235 49.2867 37.746 49.1974 37.746C49.1081 37.746 49.0203 37.7235 48.9421 37.6805C48.8638 37.6375 48.7977 37.5754 48.7499 37.5L43.4299 32C43.3579 31.9529 43.2993 31.8881 43.2597 31.8117C43.2201 31.7353 43.2009 31.65 43.2039 31.5641C43.2069 31.4781 43.2321 31.3944 43.2769 31.321C43.3218 31.2475 43.3848 31.187 43.4599 31.145L44.7949 29.945C44.8414 29.882 44.902 29.8307 44.9719 29.7954C45.0418 29.7601 45.1191 29.7417 45.1974 29.7417C45.2757 29.7417 45.353 29.7601 45.4229 29.7954C45.4928 29.8307 45.5534 29.882 45.5999 29.945C46.6432 31.015 47.6916 32.0834 48.7449 33.15C48.7933 33.2254 48.8599 33.2873 48.9386 33.3303C49.0172 33.3732 49.1053 33.3957 49.1949 33.3957C49.2845 33.3957 49.3726 33.3732 49.4512 33.3303C49.5299 33.2873 49.5964 33.2254 49.6449 33.15L56.9999 25.855C57.0484 25.7828 57.1139 25.7237 57.1906 25.6828C57.2673 25.6419 57.3529 25.6205 57.4399 25.6205C57.5268 25.6205 57.6125 25.6419 57.6892 25.6828C57.7659 25.7237 57.8314 25.7828 57.8799 25.855C58.2949 26.275 58.7099 26.69 59.1199 27.11C59.212 27.2213 59.2972 27.3382 59.3749 27.46L59.3699 27.68Z" fill="#CA973C"/>
<path d="M85.5901 29.45H64.5651C64.5093 29.4418 64.4583 29.4138 64.4214 29.3711C64.3845 29.3284 64.3643 29.2739 64.3643 29.2175C64.3643 29.1611 64.3845 29.1066 64.4214 29.0639C64.4583 29.0212 64.5093 28.9932 64.5651 28.985H85.5901C85.6459 28.9932 85.6969 29.0212 85.7337 29.0639C85.7706 29.1066 85.7909 29.1611 85.7909 29.2175C85.7909 29.2739 85.7706 29.3284 85.7337 29.3711C85.6969 29.4138 85.6459 29.4418 85.5901 29.45Z" fill="#D1D3D4"/>
<path d="M80 34.365H64.565C64.504 34.365 64.4455 34.3408 64.4023 34.2977C64.3592 34.2545 64.335 34.196 64.335 34.135C64.335 34.074 64.3592 34.0155 64.4023 33.9724C64.4455 33.9293 64.504 33.905 64.565 33.905H80C80.061 33.905 80.1195 33.9293 80.1626 33.9724C80.2057 34.0155 80.23 34.074 80.23 34.135C80.23 34.196 80.2057 34.2545 80.1626 34.2977C80.1195 34.3408 80.061 34.365 80 34.365Z" fill="#D1D3D4"/>
<path d="M55.9399 61.09H41.2999C41.2695 61.0907 41.2393 61.0852 41.2111 61.0739C41.1828 61.0626 41.1572 61.0456 41.1357 61.0241C41.1142 61.0026 41.0973 60.977 41.086 60.9488C41.0747 60.9206 41.0692 60.8904 41.0699 60.86V45.22C41.0699 45.159 41.0941 45.1005 41.1372 45.0574C41.1804 45.0142 41.2389 44.99 41.2999 44.99H55.9399C56.0005 44.9913 56.0582 45.0159 56.1011 45.0588C56.144 45.1016 56.1686 45.1594 56.1699 45.22V60.86C56.1699 60.921 56.1456 60.9795 56.1025 61.0226C56.0594 61.0658 56.0009 61.09 55.9399 61.09ZM41.5299 60.63H55.7099V45.45H41.5299V60.63Z" fill="#D1D3D4"/>
<path d="M59.3699 49.045C59.293 49.1746 59.2043 49.2968 59.1049 49.41L49.6449 58.855C49.5971 58.9304 49.531 58.9925 49.4527 59.0355C49.3745 59.0785 49.2867 59.101 49.1974 59.101C49.1081 59.101 49.0203 59.0785 48.9421 59.0355C48.8638 58.9925 48.7977 58.9304 48.7499 58.855L43.4299 53.355C43.3579 53.3079 43.2993 53.243 43.2597 53.1667C43.2201 53.0903 43.2009 53.005 43.2039 52.9191C43.2069 52.8331 43.2321 52.7493 43.2769 52.6759C43.3218 52.6025 43.3848 52.5419 43.4599 52.5L44.7949 51.3C44.8414 51.237 44.902 51.1857 44.9719 51.1504C45.0418 51.1151 45.1191 51.0966 45.1974 51.0966C45.2757 51.0966 45.353 51.1151 45.4229 51.1504C45.4928 51.1857 45.5534 51.237 45.5999 51.3C46.6432 52.37 47.6916 53.4383 48.7449 54.505C48.7933 54.5803 48.8599 54.6423 48.9386 54.6852C49.0172 54.7282 49.1053 54.7507 49.1949 54.7507C49.2845 54.7507 49.3726 54.7282 49.4512 54.6852C49.5299 54.6423 49.5964 54.5803 49.6449 54.505L56.9999 47.22C57.0484 47.1478 57.1139 47.0887 57.1906 47.0478C57.2673 47.0069 57.3529 46.9855 57.4399 46.9855C57.5268 46.9855 57.6125 47.0069 57.6892 47.0478C57.7659 47.0887 57.8314 47.1478 57.8799 47.22C58.2949 47.635 58.7099 48.05 59.1199 48.475C59.212 48.5863 59.2972 48.7032 59.3749 48.825L59.3699 49.045Z" fill="#CA973C"/>
<path d="M85.5901 50.815H64.5651C64.5093 50.8068 64.4583 50.7788 64.4214 50.7361C64.3845 50.6934 64.3643 50.6389 64.3643 50.5825C64.3643 50.5261 64.3845 50.4716 64.4214 50.4289C64.4583 50.3862 64.5093 50.3582 64.5651 50.35H85.5901C85.6459 50.3582 85.6969 50.3862 85.7337 50.4289C85.7706 50.4716 85.7909 50.5261 85.7909 50.5825C85.7909 50.6389 85.7706 50.6934 85.7337 50.7361C85.6969 50.7788 85.6459 50.8068 85.5901 50.815Z" fill="#D1D3D4"/>
<path d="M80 55.73H64.565C64.504 55.73 64.4455 55.7058 64.4023 55.6627C64.3592 55.6195 64.335 55.561 64.335 55.5C64.335 55.439 64.3592 55.3805 64.4023 55.3374C64.4455 55.2943 64.504 55.27 64.565 55.27H80C80.061 55.27 80.1195 55.2943 80.1626 55.3374C80.2057 55.3805 80.23 55.439 80.23 55.5C80.23 55.561 80.2057 55.6195 80.1626 55.6627C80.1195 55.7058 80.061 55.73 80 55.73Z" fill="#D1D3D4"/>
<path d="M55.9398 82.365H41.2998C41.2388 82.365 41.1803 82.3408 41.1372 82.2977C41.0941 82.2545 41.0698 82.196 41.0698 82.135V66.5C41.0698 66.439 41.0941 66.3805 41.1372 66.3374C41.1803 66.2943 41.2388 66.27 41.2998 66.27H55.9398C56.0004 66.2713 56.0582 66.2959 56.101 66.3388C56.1439 66.3817 56.1685 66.4394 56.1698 66.5V82.145C56.1661 82.2039 56.1403 82.2591 56.0977 82.2999C56.0551 82.3406 55.9988 82.3639 55.9398 82.365ZM41.5298 81.905H55.7098V66.72H41.5298V81.905Z" fill="#D1D3D4"/>
<path d="M59.3699 70.315C59.293 70.4446 59.2043 70.5668 59.1049 70.68L49.6449 80.125C49.3199 80.45 49.0699 80.455 48.7499 80.125C46.9732 78.295 45.1999 76.4617 43.4299 74.625C43.3579 74.5779 43.2993 74.5131 43.2597 74.4367C43.2201 74.3603 43.2009 74.275 43.2039 74.1891C43.2069 74.1031 43.2321 74.0194 43.2769 73.946C43.3218 73.8726 43.3848 73.812 43.4599 73.77L44.7949 72.57C44.8414 72.507 44.902 72.4557 44.9719 72.4204C45.0418 72.3851 45.1191 72.3667 45.1974 72.3667C45.2757 72.3667 45.353 72.3851 45.4229 72.4204C45.4928 72.4557 45.5534 72.507 45.5999 72.57L48.7449 75.78C48.7933 75.8554 48.8599 75.9174 48.9386 75.9603C49.0172 76.0032 49.1053 76.0257 49.1949 76.0257C49.2845 76.0257 49.3726 76.0032 49.4512 75.9603C49.5299 75.9174 49.5964 75.8554 49.6449 75.78L56.9999 68.5C57.0484 68.4279 57.1139 68.3687 57.1906 68.3278C57.2673 68.2869 57.3529 68.2655 57.4399 68.2655C57.5268 68.2655 57.6125 68.2869 57.6892 68.3278C57.7659 68.3687 57.8314 68.4279 57.8799 68.5C58.2949 68.92 58.7099 69.335 59.1199 69.755C59.212 69.8663 59.2972 69.9832 59.3749 70.105L59.3699 70.315Z" fill="#CA973C"/>
<path d="M85.59 72.085H64.565C64.5044 72.0837 64.4466 72.0591 64.4037 72.0162C64.3609 71.9734 64.3362 71.9156 64.335 71.855C64.335 71.794 64.3592 71.7355 64.4023 71.6924C64.4455 71.6492 64.504 71.625 64.565 71.625H85.59C85.651 71.625 85.7095 71.6492 85.7526 71.6924C85.7957 71.7355 85.82 71.794 85.82 71.855C85.8187 71.9156 85.7941 71.9734 85.7512 72.0162C85.7083 72.0591 85.6506 72.0837 85.59 72.085Z" fill="#D1D3D4"/>
<path d="M80 77H64.565C64.504 77 64.4455 76.9758 64.4023 76.9327C64.3592 76.8895 64.335 76.831 64.335 76.77C64.3362 76.7094 64.3609 76.6517 64.4037 76.6088C64.4466 76.566 64.5044 76.5413 64.565 76.54H80C80.0606 76.5413 80.1183 76.566 80.1612 76.6088C80.2041 76.6517 80.2287 76.7094 80.23 76.77C80.23 76.831 80.2057 76.8895 80.1626 76.9327C80.1195 76.9758 80.061 77 80 77Z" fill="#D1D3D4"/>
<path d="M18.77 63.445C22.455 59.445 26.845 56.11 31.435 53.175C32.57 52.445 33.795 51.715 35.145 51.675C36.495 51.635 37.965 52.595 38.005 53.945C38.035 55.005 37.235 55.885 36.505 56.635L26.69 66.5C27.878 68.751 28.3791 71.3012 28.1311 73.8344C27.8831 76.3675 26.897 78.7722 25.295 80.75" fill="white"/>
<path d="M25.2948 81C25.2366 81.0017 25.1797 80.9822 25.1348 80.945C25.0845 80.9015 25.0531 80.8399 25.0475 80.7736C25.0419 80.7073 25.0625 80.6414 25.1048 80.59C26.6678 78.6472 27.6295 76.2903 27.872 73.8087C28.1145 71.3271 27.6271 68.8286 26.4698 66.62C26.4446 66.5725 26.4354 66.5182 26.4435 66.4651C26.4516 66.4119 26.4766 66.3628 26.5148 66.325L36.3098 56.485C37.0548 55.735 37.7848 54.925 37.7548 53.985C37.7198 52.76 36.3448 51.93 35.1498 51.985C33.9548 52.04 32.7348 52.685 31.5698 53.435C26.2348 56.845 22.2248 60.095 18.9548 63.665C18.9097 63.7141 18.847 63.7432 18.7804 63.746C18.7138 63.7488 18.6489 63.7251 18.5998 63.68C18.5507 63.6349 18.5216 63.5722 18.5188 63.5056C18.516 63.439 18.5397 63.3741 18.5848 63.325C21.8848 59.725 25.9248 56.45 31.2998 53.01C32.5298 52.225 33.7498 51.51 35.1398 51.51C36.5298 51.51 38.2098 52.51 38.2548 54.01C38.2898 55.15 37.4898 56.055 36.6648 56.88L26.9998 66.53C28.1799 68.8102 28.6667 71.3859 28.4001 73.9395C28.1336 76.493 27.1253 78.9127 25.4998 80.9C25.4755 80.9312 25.4444 80.9564 25.4089 80.9737C25.3733 80.991 25.3343 81 25.2948 81Z" fill="#231F20"/>
<path d="M104.565 93.0351L92.4599 101.705L69.8299 73.7301C69.8649 72.2301 68.8299 65.6451 71.0649 66.7301C73.2999 67.8151 81.6349 77.3151 83.0099 77.6251C84.3849 77.9351 87.5699 76.3751 87.0899 73.3001C86.6099 70.2251 86.0299 65.0501 83.0199 64.8351C78.4549 64.5101 74.2099 67.5401 72.4049 66.8351C70.5999 66.1301 69.1099 63.7351 72.0549 61.9651C75.4249 59.9651 82.6799 58.6651 88.4949 59.2951C94.3099 59.9251 98.7199 71.6251 99.1299 80.1951C100.66 85.6451 103.615 90.6101 104.565 93.0351Z" fill="white"/>
<path d="M92.4601 101.955C92.4225 101.955 92.3853 101.947 92.3515 101.93C92.3177 101.914 92.2881 101.89 92.2651 101.86L69.6401 73.89C69.6008 73.844 69.5795 73.7854 69.5801 73.725C69.5801 73.425 69.5501 72.9 69.5051 72.295C69.3101 69.595 69.2101 67.125 70.1301 66.495C70.2868 66.3996 70.4667 66.3491 70.6501 66.3491C70.8335 66.3491 71.0134 66.3996 71.1701 66.495C72.3601 67.06 75.0901 69.81 77.7351 72.47C79.9551 74.705 82.4701 77.235 83.0651 77.375C83.6601 77.515 84.9101 77.175 85.8001 76.345C86.2138 75.9741 86.5266 75.5044 86.7094 74.9797C86.8921 74.455 86.9388 73.8926 86.8451 73.345L86.7501 72.735C86.3001 69.77 85.6201 65.285 83.0051 65.095C80.5601 64.92 78.1701 65.74 76.2551 66.4C74.5601 66.98 73.2251 67.44 72.3151 67.095C71.7562 66.9005 71.2599 66.5594 70.8781 66.1072C70.4963 65.6551 70.2431 65.1086 70.1451 64.525C70.0801 63.8 70.3351 62.73 71.9251 61.775C75.4251 59.67 82.8751 58.46 88.5201 59.07C94.6451 59.74 98.9651 71.805 99.3801 80.18C100.425 83.89 102.145 87.41 103.405 89.98C103.99 91.17 104.495 92.2 104.795 92.98C104.815 93.031 104.817 93.0869 104.801 93.1393C104.786 93.1916 104.754 93.2375 104.71 93.27L92.6051 101.945C92.5588 101.963 92.5084 101.966 92.4601 101.955ZM70.0851 73.645L92.5001 101.365L104.255 92.945C103.955 92.215 103.485 91.26 102.95 90.17C101.68 87.575 99.9501 84.02 98.8851 80.26C98.8827 80.2417 98.8827 80.2232 98.8851 80.205C98.5001 72.205 94.2551 60.17 88.4751 59.54C82.9151 58.935 75.6101 60.115 72.1901 62.17C71.1051 62.825 70.5751 63.61 70.6501 64.45C70.7376 64.9412 70.9554 65.3999 71.2809 65.7781C71.6063 66.1564 72.0274 66.4402 72.5001 66.6C73.2351 66.875 74.5601 66.425 76.0951 65.895C78.0601 65.225 80.4951 64.395 83.0451 64.565C86.0451 64.785 86.7751 69.505 87.2501 72.63L87.3451 73.24C87.4523 73.8711 87.3985 74.519 87.1887 75.1238C86.979 75.7286 86.62 76.2708 86.1451 76.7C85.2251 77.56 83.8551 78.055 82.9601 77.85C82.2551 77.69 80.3801 75.85 77.3851 72.815C74.8851 70.315 72.0701 67.465 70.9651 66.935C70.6151 66.77 70.4651 66.875 70.4151 66.91C69.6551 67.41 69.8851 70.57 70.0101 72.255C70.0451 72.845 70.0801 73.32 70.0851 73.645Z" fill="#231F20"/>
<path d="M62.2851 68.51L62.8001 72.595L58.4851 71.79L56.1851 71.36L58.3051 70.37L62.2851 68.51Z" fill="white"/>
<path d="M62.7999 72.845H62.7549L56.1399 71.61C56.0878 71.6006 56.0401 71.5745 56.0041 71.5358C55.968 71.497 55.9455 71.4476 55.9399 71.395C55.9326 71.3424 55.9422 71.2889 55.9674 71.2421C55.9926 71.1954 56.032 71.1578 56.0799 71.135L62.1749 68.29C62.2104 68.2716 62.2498 68.262 62.2899 68.262C62.3299 68.262 62.3693 68.2716 62.4049 68.29C62.439 68.3098 62.468 68.3373 62.4897 68.3703C62.5114 68.4032 62.5252 68.4408 62.5299 68.48L63.0299 72.565C63.0326 72.6 63.0282 72.6351 63.017 72.6683C63.0058 72.7016 62.9879 72.7322 62.9646 72.7583C62.9412 72.7845 62.9128 72.8056 62.8811 72.8205C62.8493 72.8354 62.8149 72.8438 62.7799 72.845H62.7999ZM56.9999 71.255L62.4999 72.285L62.0699 68.88L56.9999 71.255Z" fill="#231F20"/>
<path d="M94.4998 68.575L62.7948 72.575C62.4629 71.9506 62.2397 71.2743 62.1348 70.575C62.0627 69.8735 62.1117 69.1648 62.2798 68.48L93.9798 64.48L94.4998 68.575Z" fill="#CA973C"/>
<path d="M62.8002 72.845C62.7566 72.8448 62.7138 72.8331 62.6761 72.8112C62.6384 72.7892 62.6071 72.7578 62.5852 72.72C62.2349 72.0708 62.0014 71.3651 61.8952 70.635C61.8182 69.9038 61.8672 69.1647 62.0402 68.45C62.0522 68.4014 62.0787 68.3577 62.1162 68.3246C62.1538 68.2915 62.2005 68.2707 62.2502 68.265L93.9552 64.24C94.0211 64.2342 94.0868 64.2537 94.1388 64.2946C94.1908 64.3354 94.2253 64.3946 94.2352 64.46L94.7352 68.545C94.7407 68.5776 94.739 68.6111 94.7304 68.643C94.7218 68.6749 94.7064 68.7046 94.6852 68.73C94.6652 68.7554 94.6403 68.7764 94.6119 68.7919C94.5836 68.8073 94.5524 68.8169 94.5202 68.82L62.8202 72.845H62.8002ZM62.4902 68.74C62.3601 69.3426 62.3264 69.9619 62.3902 70.575C62.48 71.1844 62.6674 71.7753 62.9452 72.325L94.2252 68.355L93.7702 64.77L62.4902 68.74Z" fill="#231F20"/>
<path d="M99.5771 67.9355L94.5077 68.5786L93.9898 64.4963L99.0592 63.8532C99.3591 63.8151 99.6619 63.8978 99.9009 64.083C100.14 64.2682 100.296 64.5407 100.334 64.8406L100.565 66.6611C100.603 66.961 100.52 67.2638 100.335 67.5028C100.15 67.7418 99.877 67.8974 99.5771 67.9355Z" fill="white"/>
<path d="M94.5001 68.825C94.439 68.8243 94.3801 68.8018 94.3343 68.7614C94.2884 68.721 94.2585 68.6655 94.2501 68.605L93.7501 64.52C93.7459 64.4873 93.7481 64.4542 93.7567 64.4225C93.7653 64.3907 93.78 64.361 93.8001 64.335C93.8415 64.2839 93.9003 64.2501 93.9651 64.24L99.0351 63.6C99.4009 63.5546 99.7698 63.6559 100.061 63.8817C100.353 64.1075 100.543 64.4394 100.59 64.805L100.82 66.625C100.865 66.9908 100.764 67.3597 100.538 67.651C100.313 67.9424 99.9807 68.1326 99.6151 68.18L94.5451 68.82L94.5001 68.825ZM94.2601 64.705L94.7151 68.295L99.5401 67.685C99.774 67.6526 99.9857 67.5296 100.13 67.3426C100.274 67.1555 100.339 66.9193 100.31 66.685L100.08 64.865C100.065 64.7486 100.028 64.6363 99.9694 64.5346C99.911 64.4328 99.8332 64.3436 99.7402 64.272C99.6473 64.2005 99.5411 64.148 99.4278 64.1176C99.3146 64.0872 99.1964 64.0795 99.0801 64.095L94.2601 64.705Z" fill="#231F20"/>
<path d="M95.6511 64.2787L95.0708 64.3523L95.5887 68.4346L96.169 68.3609L95.6511 64.2787Z" fill="#231F20"/>
<path d="M96.804 64.1344L96.2236 64.208L96.7415 68.2903L97.3219 68.2167L96.804 64.1344Z" fill="#231F20"/>
<path d="M58.3051 70.3701L58.4851 71.7901L56.1851 71.3601L58.3051 70.3701Z" fill="#CA973C"/>
<path d="M58.5 72.04H58.45L56.155 71.61C56.1029 71.6005 56.0553 71.5745 56.0192 71.5357C55.9832 71.497 55.9606 71.4476 55.955 71.395C55.9477 71.3424 55.9573 71.2888 55.9825 71.2421C56.0077 71.1953 56.0471 71.1578 56.095 71.135L58.21 70.135C58.2455 70.1165 58.285 70.1069 58.325 70.1069C58.365 70.1069 58.4045 70.1165 58.44 70.135C58.4741 70.1548 58.5032 70.1823 58.5249 70.2152C58.5466 70.2482 58.5603 70.2858 58.565 70.325L58.745 71.74C58.75 71.7752 58.7474 71.8111 58.7374 71.8452C58.7274 71.8793 58.7102 71.911 58.6871 71.9379C58.6639 71.9649 58.6352 71.9866 58.6029 72.0016C58.5707 72.0166 58.5356 72.0246 58.5 72.025V72.04ZM57 71.255L58.195 71.48L58.105 70.74L57 71.255Z" fill="#231F20"/>
<path d="M70.9702 75.1401C70.9702 75.1401 67.8402 71.2551 66.9252 69.8201C65.4252 67.4801 69.1102 65.4101 70.4252 66.3901C71.3702 67.0851 76.2402 71.3901 77.2202 72.3151" fill="white"/>
<path d="M70.9698 75.39C70.9322 75.3902 70.895 75.3817 70.8612 75.3652C70.8274 75.3488 70.7978 75.3247 70.7748 75.295C70.6498 75.14 67.6298 71.385 66.7148 69.95C66.4007 69.4706 66.2778 68.8908 66.3704 68.3252C66.463 67.7596 66.7643 67.2492 67.2148 66.895C68.1398 66.03 69.7148 65.54 70.6148 66.19C71.5148 66.84 76.4398 71.19 77.4298 72.135C77.4538 72.1576 77.473 72.1848 77.4865 72.2149C77.5 72.245 77.5074 72.2774 77.5083 72.3104C77.5092 72.3434 77.5037 72.3762 77.4919 72.407C77.4801 72.4378 77.4624 72.466 77.4398 72.49C77.4171 72.5139 77.39 72.5332 77.3599 72.5467C77.3298 72.5602 77.2973 72.5676 77.2644 72.5685C77.2314 72.5694 77.1986 72.5639 77.1678 72.5521C77.1369 72.5403 77.1088 72.5226 77.0848 72.5C76.0848 71.56 71.2448 67.275 70.3148 66.595C69.7148 66.155 68.3998 66.47 67.5548 67.26C67.2 67.5431 66.9627 67.9477 66.8888 68.3956C66.815 68.8435 66.9097 69.3029 67.1548 69.685C68.0548 71.095 71.1548 74.945 71.1848 74.985C71.2059 75.01 71.2219 75.0391 71.2316 75.0704C71.2413 75.1018 71.2446 75.1347 71.2414 75.1674C71.2381 75.2 71.2283 75.2317 71.2126 75.2605C71.1968 75.2893 71.1755 75.3146 71.1498 75.335C71.125 75.3558 71.0963 75.3714 71.0654 75.3809C71.0345 75.3903 71.002 75.3934 70.9698 75.39Z" fill="#231F20"/>
<path d="M102.36 83.615L85.2349 96.61L93.1999 117.88L123.715 116.385L102.36 83.615Z" fill="#231F20"/>
<path d="M93.1999 118.13C93.1491 118.13 93.0995 118.115 93.0575 118.087C93.0155 118.058 92.9832 118.017 92.9649 117.97L84.9999 96.6999C84.9804 96.6502 84.9776 96.5954 84.992 96.544C85.0065 96.4925 85.0373 96.4472 85.0799 96.4149L102.205 83.4149C102.232 83.3938 102.264 83.3789 102.298 83.3711C102.331 83.3634 102.366 83.363 102.4 83.3699C102.434 83.3758 102.466 83.3885 102.494 83.4075C102.522 83.4264 102.547 83.4511 102.565 83.4799L123.915 116.25C123.94 116.286 123.955 116.329 123.958 116.373C123.961 116.417 123.952 116.461 123.932 116.501C123.912 116.54 123.882 116.574 123.845 116.597C123.807 116.621 123.764 116.634 123.72 116.635L93.2199 118.135L93.1999 118.13ZM85.5349 96.6999L93.3699 117.625L123.265 116.16L102.295 83.9999L85.5349 96.6999Z" fill="#231F20"/>
</svg>
