<svg width="106" height="130" viewBox="0 0 106 130" fill="none" xmlns="http://www.w3.org/2000/svg">
<path d="M13.2052 104.355C12.2402 113.01 9.53016 124.56 8.28516 128.885H20.9452L28.7102 127.945C28.7102 127.945 30.5102 111.07 31.6402 107.375C32.7702 103.68 31.8952 68.425 31.9302 68.07C31.9652 67.715 12.9052 76.37 11.0052 84.61C10.2702 87.82 13.5302 101.435 13.2052 104.355Z" fill="white"/>
<path d="M8.28519 129.135C8.24624 129.136 8.20767 129.127 8.17283 129.11C8.13798 129.092 8.1079 129.067 8.08518 129.035C8.06257 129.004 8.04725 128.967 8.04033 128.929C8.03341 128.891 8.03507 128.852 8.04518 128.815C9.28518 124.495 12.0052 112.875 12.9552 104.315C13.0952 103.055 12.5302 99.6399 11.9552 96.0299C11.1702 91.2849 10.3602 86.3799 10.7852 84.5299C12.6102 76.5899 30.7402 67.7849 31.9502 67.7849C32.0151 67.7959 32.0735 67.8307 32.1142 67.8825C32.1549 67.9342 32.1748 67.9993 32.1702 68.0649C32.1702 68.1399 32.1702 69.0949 32.2102 70.4149C32.3652 78.7849 32.8352 104.25 31.8702 107.415C30.7652 111.045 28.9702 127.765 28.9552 127.915C28.9488 127.971 28.9235 128.023 28.8836 128.063C28.8436 128.103 28.7913 128.128 28.7352 128.135L21.0002 129.135H8.28519ZM8.61519 128.635H20.9452L28.5002 127.72C28.7152 125.72 30.3502 110.805 31.4202 107.3C32.0452 105.25 32.1502 92.8549 31.7352 70.4549C31.7352 69.3199 31.7052 68.7099 31.7002 68.3849C29.4052 69.2399 13.0302 77.0349 11.2702 84.6699C10.8702 86.4049 11.7102 91.4799 12.4502 95.9549C13.0502 99.6049 13.6202 103.055 13.4502 104.38H13.2052H13.4502C12.5002 112.76 9.90019 124.07 8.61519 128.635Z" fill="#231F20"/>
<path d="M7.9502 115.98L9.07519 108.485L32.0052 112.52L31.0802 120.62L7.9502 115.98Z" fill="white"/>
<path d="M31.0852 120.87H31.0352L7.90017 116.23C7.83749 116.216 7.78235 116.179 7.74542 116.126C7.70848 116.073 7.69236 116.009 7.70017 115.945L8.83017 108.445C8.83508 108.412 8.84644 108.381 8.86361 108.352C8.88077 108.324 8.9034 108.299 8.93017 108.28C8.95733 108.26 8.98809 108.246 9.02069 108.239C9.05329 108.231 9.0871 108.23 9.12017 108.235L32.0452 112.275C32.1076 112.285 32.1637 112.318 32.2019 112.369C32.2401 112.419 32.2574 112.482 32.2502 112.545L31.3302 120.65C31.3263 120.684 31.3154 120.718 31.2982 120.748C31.281 120.778 31.2579 120.804 31.2302 120.825C31.1874 120.854 31.1369 120.87 31.0852 120.87ZM8.23017 115.78L30.8652 120.325L31.7302 112.725L9.28517 108.775L8.23017 115.78Z" fill="#231F20"/>
<path d="M32.5899 128.885L33.0799 117.405L6.90992 112.275L3.41992 128.885H32.5899Z" fill="#231F20"/>
<path d="M32.59 129.135H3.41997C3.38282 129.135 3.34604 129.128 3.31231 129.112C3.27858 129.096 3.24874 129.074 3.22497 129.045C3.20236 129.015 3.18623 128.982 3.17762 128.945C3.169 128.909 3.1681 128.872 3.17497 128.835L6.67497 112.225C6.68029 112.193 6.69216 112.162 6.70986 112.134C6.72755 112.107 6.75069 112.083 6.77785 112.065C6.80502 112.047 6.83563 112.034 6.86781 112.028C6.89999 112.022 6.93305 112.023 6.96497 112.03L33.14 117.16C33.1991 117.17 33.2525 117.201 33.2895 117.249C33.3265 117.296 33.3445 117.355 33.34 117.415L32.84 128.915C32.8316 128.976 32.8017 129.031 32.7558 129.071C32.71 129.112 32.6511 129.134 32.59 129.135ZM3.72997 128.635H32.35L32.85 117.605L7.12997 112.565L3.72997 128.635Z" fill="#231F20"/>
<path d="M72.6226 3.08475L5.17578 27.6467L37.7979 117.227L105.245 92.6647L72.6226 3.08475Z" fill="white"/>
<path d="M37.8002 117.47C37.7488 117.47 37.6987 117.454 37.6566 117.425C37.6146 117.395 37.5826 117.353 37.5652 117.305L4.94016 27.73C4.91765 27.6677 4.9208 27.599 4.94893 27.539C4.97706 27.479 5.02786 27.4326 5.09017 27.41L72.5352 2.84501C72.566 2.83297 72.5989 2.82717 72.632 2.82795C72.6651 2.82873 72.6977 2.83608 72.728 2.84957C72.7582 2.86306 72.7855 2.88242 72.8082 2.90653C72.8308 2.93064 72.8485 2.95902 72.8602 2.99001L105.5 92.57C105.525 92.6309 105.525 92.6992 105.5 92.76C105.487 92.7901 105.468 92.8172 105.444 92.8395C105.42 92.8619 105.391 92.8791 105.36 92.89L37.9102 117.455C37.8752 117.469 37.8375 117.474 37.8002 117.47ZM5.50017 27.79L37.9502 116.9L104.95 92.505L72.5002 3.40001L5.50017 27.79Z" fill="#231F20"/>
<path d="M70.5967 2.70536L3.1499 27.2673L35.772 116.847L103.219 92.2853L70.5967 2.70536Z" fill="white"/>
<path d="M35.7753 117.09C35.7243 117.091 35.6743 117.076 35.6322 117.048C35.5901 117.019 35.5579 116.978 35.5403 116.93L2.91527 27.3499C2.90341 27.3191 2.89791 27.2863 2.89908 27.2533C2.90025 27.2203 2.90808 27.1879 2.92209 27.158C2.9361 27.1281 2.956 27.1014 2.9806 27.0794C3.00521 27.0574 3.034 27.0405 3.06526 27.0299L70.5003 2.46495C70.5311 2.4531 70.564 2.44759 70.5969 2.44876C70.6299 2.44994 70.6623 2.45776 70.6922 2.47177C70.7221 2.48578 70.7489 2.50568 70.7709 2.53029C70.7929 2.55489 70.8097 2.58369 70.8203 2.61495L103.445 92.1899C103.457 92.2208 103.463 92.2536 103.461 92.2866C103.46 92.3196 103.452 92.352 103.438 92.3819C103.424 92.4118 103.405 92.4385 103.38 92.4605C103.355 92.4825 103.327 92.4994 103.295 92.5099L35.8603 117.075L35.7753 117.09ZM3.47027 27.4149L35.9253 116.5L102.925 92.1049L70.4453 2.99995L3.47027 27.4149Z" fill="#231F20"/>
<path d="M68.5035 1.44221L1.03027 25.8474L33.4442 115.462L100.917 91.0571L68.5035 1.44221Z" fill="white"/>
<path d="M33.6752 115.5C33.6245 115.5 33.5752 115.484 33.5333 115.456C33.4915 115.427 33.459 115.387 33.4402 115.34L0.815164 25.765C0.792648 25.7026 0.795803 25.6339 0.82393 25.5739C0.852057 25.5139 0.902856 25.4675 0.965165 25.445L68.4152 0.879959C68.476 0.854955 68.5443 0.854955 68.6052 0.879959C68.6653 0.910041 68.7118 0.961878 68.7352 1.02496L101.36 90.6C101.383 90.6623 101.38 90.731 101.351 90.791C101.323 90.851 101.272 90.8974 101.21 90.92L33.7602 115.5C33.7321 115.505 33.7033 115.505 33.6752 115.5ZM1.37016 25.83L33.8252 114.935L100.825 90.54L68.3502 1.43496L1.37016 25.83Z" fill="#231F20"/>
<path d="M31.6982 23.3974L13.1943 30.0903L21.2761 52.4341L39.78 45.7412L31.6982 23.3974Z" fill="white"/>
<path d="M31.74 23.1799L39.875 45.4999L21.375 52.2349L13.245 29.9149L31.745 23.1799H31.74ZM31.745 22.6799C31.687 22.68 31.6295 22.6901 31.575 22.7099L13.075 29.4449C13.0126 29.4672 12.9554 29.5017 12.9064 29.5463C12.8575 29.591 12.8179 29.6449 12.79 29.7049C12.7646 29.7659 12.7515 29.8313 12.7515 29.8974C12.7515 29.9635 12.7646 30.0289 12.79 30.0899L20.925 52.4249C20.9608 52.5206 21.025 52.6031 21.109 52.6612C21.193 52.7193 21.2928 52.7503 21.395 52.7499C21.453 52.7499 21.5105 52.7397 21.565 52.7199L40.065 45.9849C40.1896 45.9398 40.2912 45.847 40.3475 45.727C40.4037 45.607 40.41 45.4696 40.365 45.3449L32.21 22.9999C32.1751 22.9033 32.1112 22.8198 32.0271 22.7607C31.943 22.7017 31.8428 22.67 31.74 22.6699L31.745 22.6799Z" fill="#231F20"/>
<path d="M40.4553 24C40.389 24.012 40.3206 23.9971 40.2653 23.9586C40.21 23.9202 40.1722 23.8613 40.1603 23.795C40.1483 23.7287 40.1632 23.6604 40.2017 23.6051C40.2401 23.5497 40.299 23.512 40.3653 23.5L54.1503 18.5C54.1811 18.4885 54.2139 18.4832 54.2469 18.4844C54.2798 18.4856 54.3121 18.4933 54.3421 18.507C54.372 18.5207 54.399 18.5401 54.4214 18.5642C54.4438 18.5884 54.4613 18.6167 54.4728 18.6475C54.4843 18.6784 54.4896 18.7112 54.4884 18.7441C54.4872 18.777 54.4795 18.8094 54.4658 18.8393C54.4521 18.8693 54.4326 18.8962 54.4085 18.9186C54.3844 18.9411 54.3561 18.9585 54.3253 18.97L40.5403 24H40.4553Z" fill="#231F20"/>
<path d="M42.3602 29.2499C42.309 29.2492 42.2592 29.2331 42.2173 29.2037C42.1754 29.1742 42.1433 29.1329 42.1252 29.0849C42.1134 29.0541 42.1079 29.0212 42.109 28.9883C42.1102 28.9553 42.118 28.9229 42.132 28.893C42.1461 28.8631 42.166 28.8363 42.1906 28.8143C42.2152 28.7923 42.244 28.7755 42.2752 28.7649L62.0002 21.5799C62.0625 21.5574 62.1313 21.5606 62.1913 21.5887C62.2513 21.6168 62.2977 21.6676 62.3202 21.7299C62.343 21.7916 62.3405 21.8598 62.3134 21.9197C62.2863 21.9796 62.2366 22.0264 62.1752 22.0499L42.4452 29.2349C42.4179 29.2447 42.3892 29.2498 42.3602 29.2499Z" fill="#231F20"/>
<path d="M44.265 34.5C44.214 34.4986 44.1645 34.4822 44.1227 34.4529C44.0809 34.4235 44.0486 34.3825 44.03 34.335C44.0075 34.2727 44.0106 34.204 44.0388 34.1439C44.0669 34.0839 44.1177 34.0376 44.18 34.015L53.08 30.77C53.1423 30.7475 53.2111 30.7506 53.2711 30.7788C53.3311 30.8069 53.3774 30.8577 53.4 30.92C53.4119 30.9508 53.4174 30.9837 53.4162 31.0167C53.415 31.0497 53.4072 31.0821 53.3932 31.112C53.3792 31.1418 53.3593 31.1686 53.3347 31.1906C53.3101 31.2126 53.2813 31.2294 53.25 31.24L44.35 34.485C44.3228 34.4952 44.294 34.5003 44.265 34.5Z" fill="#231F20"/>
<path d="M56.6551 29.97C56.6036 29.9707 56.5531 29.9552 56.5109 29.9255C56.4687 29.8959 56.437 29.8537 56.4201 29.805C56.3976 29.7427 56.4008 29.674 56.4289 29.614C56.457 29.554 56.5078 29.5076 56.5701 29.485L65.4701 26.245C65.5319 26.2246 65.5993 26.2291 65.6578 26.2576C65.7163 26.286 65.7615 26.3362 65.7836 26.3974C65.8057 26.4586 65.8031 26.526 65.7763 26.5853C65.7495 26.6446 65.7007 26.6912 65.6401 26.715L56.7401 29.955C56.7129 29.9648 56.6841 29.9699 56.6551 29.97Z" fill="#231F20"/>
<path d="M46.175 39.72C46.1087 39.7319 46.0404 39.717 45.985 39.6785C45.9297 39.6401 45.8919 39.5813 45.88 39.5149C45.8681 39.4486 45.883 39.3803 45.9214 39.325C45.9598 39.2697 46.0187 39.2319 46.085 39.22L59.87 34.22C59.9323 34.1974 60.0011 34.2006 60.0611 34.2287C60.1211 34.2568 60.1674 34.3076 60.19 34.3699C60.202 34.4004 60.2077 34.433 60.2069 34.4658C60.206 34.4985 60.1986 34.5307 60.1851 34.5606C60.1716 34.5904 60.1522 34.6172 60.1282 34.6395C60.1041 34.6617 60.0758 34.6788 60.045 34.6899L46.26 39.6899L46.175 39.72Z" fill="#D1D3D4"/>
<path d="M32.7601 56.0649C32.7084 56.0664 32.6576 56.0512 32.6152 56.0214C32.5729 55.9917 32.5413 55.9491 32.5251 55.8999C32.5026 55.8376 32.5058 55.7689 32.5339 55.7089C32.562 55.6488 32.6128 55.6025 32.6751 55.5799L46.2851 50.6249C46.3469 50.6045 46.4142 50.609 46.4728 50.6375C46.5313 50.6659 46.5764 50.7161 46.5986 50.7773C46.6207 50.8385 46.6181 50.9059 46.5913 50.9652C46.5645 51.0245 46.5157 51.071 46.4551 51.0949L32.8451 56.0499L32.7601 56.0649Z" fill="#D1D3D4"/>
<path d="M32.0598 62.5967L25.9521 64.8209L27.7315 69.707L33.8391 67.4828L32.0598 62.5967Z" fill="white"/>
<path d="M27.735 69.9499C27.7003 69.9571 27.6646 69.9571 27.6299 69.9499C27.5713 69.9203 27.5252 69.8706 27.5 69.8099L25.72 64.9199C25.6974 64.8576 25.7006 64.7889 25.7287 64.7289C25.7568 64.6689 25.8076 64.6225 25.87 64.5999L31.9999 62.3549C32.0608 62.3299 32.1291 62.3299 32.19 62.3549C32.2486 62.3846 32.2947 62.4342 32.3199 62.4949L34.0999 67.3799C34.1225 67.4423 34.1193 67.511 34.0912 67.571C34.0631 67.631 34.0123 67.6774 33.9499 67.6999L27.8399 69.9249C27.8074 69.9413 27.7714 69.9499 27.735 69.9499ZM26.275 64.9499L27.885 69.3649L33.525 67.3149L31.915 62.8949L26.275 64.9499Z" fill="#231F20"/>
<path d="M28.7224 53.8428L22.6147 56.067L24.3941 60.9531L30.5017 58.7289L28.7224 53.8428Z" fill="white"/>
<path d="M24.3951 61.2C24.3441 61.1986 24.2946 61.1822 24.2528 61.1529C24.211 61.1235 24.1787 61.0825 24.1601 61.035L22.3801 56.15C22.3576 56.0876 22.3607 56.0189 22.3889 55.9589C22.417 55.8989 22.4678 55.8525 22.5301 55.83L28.6401 53.605C28.7024 53.5824 28.7711 53.5856 28.8312 53.6137C28.8912 53.6418 28.9375 53.6927 28.9601 53.755L30.7401 58.64C30.7626 58.7023 30.7595 58.771 30.7313 58.831C30.7032 58.891 30.6524 58.9374 30.5901 58.96L24.5001 61.185C24.4667 61.1979 24.4308 61.203 24.3951 61.2ZM22.9351 56.2L24.5451 60.62L30.1851 58.565L28.5751 54.15L22.9351 56.2Z" fill="#231F20"/>
<path d="M35.745 64.2699C35.6939 64.2685 35.6444 64.2522 35.6026 64.2228C35.5609 64.1935 35.5286 64.1525 35.51 64.1049C35.4875 64.0426 35.4906 63.9739 35.5187 63.9139C35.5469 63.8539 35.5977 63.8075 35.66 63.7849L49.27 58.8249C49.3323 58.8024 49.401 58.8056 49.461 58.8337C49.521 58.8618 49.5674 58.9126 49.59 58.9749C49.6018 59.0057 49.6073 59.0386 49.6062 59.0716C49.605 59.1046 49.5972 59.137 49.5832 59.1669C49.5691 59.1968 49.5492 59.2235 49.5246 59.2455C49.5 59.2675 49.4712 59.2843 49.44 59.2949L35.83 64.2549C35.8028 64.2651 35.774 64.2702 35.745 64.2699Z" fill="#D1D3D4"/>
<path d="M57.6066 44.0029L51.499 46.2271L53.2784 51.1131L59.386 48.8889L57.6066 44.0029Z" fill="white"/>
<path d="M53.2802 51.36C53.2288 51.36 53.1787 51.3441 53.1366 51.3146C53.0946 51.2851 53.0626 51.2433 53.0452 51.195L51.2652 46.31C51.2516 46.2802 51.2446 46.2478 51.2446 46.215C51.2446 46.1822 51.2516 46.1498 51.2652 46.12C51.2775 46.0894 51.2965 46.0619 51.3207 46.0394C51.3449 46.0169 51.3737 46.0001 51.4052 45.99L57.5002 43.765C57.5625 43.7425 57.6312 43.7456 57.6912 43.7738C57.7512 43.8019 57.7976 43.8527 57.8202 43.915L59.6002 48.8C59.612 48.8308 59.6175 48.8637 59.6164 48.8967C59.6152 48.9297 59.6074 48.9621 59.5934 48.992C59.5793 49.0218 59.5594 49.0486 59.5348 49.0706C59.5102 49.0926 59.4814 49.1094 59.4502 49.12L53.3452 51.345L53.2802 51.36ZM51.8202 46.36L53.4302 50.775L59.0652 48.72L57.4552 44.305L51.8202 46.36Z" fill="#231F20"/>
<path d="M61.2904 45.675C61.2387 45.6765 61.1879 45.6613 61.1455 45.6315C61.1032 45.6018 61.0715 45.5592 61.0554 45.51C61.0329 45.4477 61.036 45.379 61.0642 45.319C61.0923 45.259 61.1431 45.2126 61.2054 45.19L74.8154 40.235C74.8772 40.2146 74.9445 40.2191 75.0031 40.2476C75.0616 40.276 75.1067 40.3262 75.1288 40.3874C75.151 40.4486 75.1484 40.516 75.1216 40.5753C75.0948 40.6346 75.0459 40.6812 74.9854 40.705L61.3754 45.66L61.2904 45.675Z" fill="#D1D3D4"/>
<path d="M60.592 52.2065L54.4844 54.4307L56.2637 59.3168L62.3714 57.0926L60.592 52.2065Z" fill="white"/>
<path d="M56.2652 59.5599C56.2138 59.5599 56.1637 59.5441 56.1217 59.5146C56.0796 59.485 56.0477 59.4433 56.0302 59.3949L54.2502 54.4999C54.2277 54.4376 54.2309 54.3689 54.259 54.3089C54.2871 54.2489 54.3379 54.2025 54.4002 54.1799L60.5002 51.9649C60.5626 51.9438 60.6308 51.9476 60.6904 51.9755C60.7501 52.0035 60.7966 52.0535 60.8202 52.115L62.6002 56.9999C62.6252 57.0608 62.6252 57.1291 62.6002 57.19C62.5722 57.2498 62.522 57.2964 62.4602 57.3199L56.3502 59.5449C56.3231 59.5552 56.2942 59.5602 56.2652 59.5599ZM54.8052 54.5599L56.4152 58.9749L62.0502 56.925L60.4452 52.4999L54.8052 54.5599Z" fill="#231F20"/>
<path d="M64.2754 53.875C64.2238 53.8757 64.1734 53.8601 64.1312 53.8305C64.089 53.8009 64.0572 53.7587 64.0404 53.71C64.0192 53.6476 64.023 53.5794 64.051 53.5198C64.0789 53.4601 64.1289 53.4136 64.1904 53.39L77.8004 48.435C77.8622 48.4146 77.9295 48.4191 77.988 48.4475C78.0466 48.476 78.0917 48.5261 78.1138 48.5873C78.136 48.6485 78.1334 48.7159 78.1066 48.7753C78.0798 48.8346 78.0309 48.8811 77.9704 48.905L64.3604 53.86C64.3332 53.8702 64.3044 53.8752 64.2754 53.875Z" fill="#D1D3D4"/>
<path d="M81.1908 57.748L30.1499 76.3354L35.7737 91.7783L86.8146 73.1909L81.1908 57.748Z" fill="white"/>
<path d="M35.7751 92.025C35.7385 92.0262 35.7022 92.0175 35.6701 92C35.64 91.9868 35.6129 91.9676 35.5905 91.9435C35.5682 91.9194 35.551 91.891 35.5401 91.86L29.9151 76.42C29.8903 76.3573 29.8903 76.2876 29.9151 76.225C29.929 76.196 29.9486 76.17 29.9726 76.1485C29.9967 76.1271 30.0247 76.1106 30.0551 76.1L81.1051 57.5C81.1359 57.4881 81.1688 57.4826 81.2018 57.4838C81.2347 57.485 81.2671 57.4928 81.297 57.5068C81.3269 57.5208 81.3537 57.5407 81.3757 57.5653C81.3977 57.5899 81.4145 57.6187 81.4251 57.65L87.0501 73.1C87.0751 73.1608 87.0751 73.2291 87.0501 73.29C87.0377 73.3206 87.0187 73.3481 86.9946 73.3706C86.9704 73.393 86.9415 73.4099 86.9101 73.42L35.8601 92C35.8336 92.0136 35.8047 92.0221 35.7751 92.025ZM30.4701 76.5L35.9251 91.475L86.5001 73.035L81.0451 58.065L30.4701 76.5Z" fill="#231F20"/>
<path d="M31.3601 79.8999C31.2938 79.9112 31.2257 79.8957 31.1708 79.8568C31.116 79.8179 31.0788 79.7587 31.0676 79.6924C31.0563 79.6261 31.0718 79.5581 31.1107 79.5032C31.1496 79.4484 31.2088 79.4112 31.2751 79.3999L82.31 60.8099C82.3409 60.7985 82.3737 60.7932 82.4066 60.7944C82.4395 60.7955 82.4719 60.8032 82.5018 60.8169C82.5318 60.8306 82.5588 60.8501 82.5812 60.8742C82.6036 60.8983 82.6211 60.9266 82.6326 60.9574C82.644 60.9883 82.6493 61.0211 82.6481 61.054C82.647 61.087 82.6393 61.1193 82.6256 61.1493C82.6119 61.1792 82.5924 61.2062 82.5683 61.2286C82.5442 61.251 82.5159 61.2685 82.485 61.2799L31.4451 79.8849L31.3601 79.8999Z" fill="#231F20"/>
<path d="M49.9101 86.875C49.8593 86.8753 49.8096 86.8602 49.7677 86.8316C49.7257 86.8031 49.6934 86.7624 49.6751 86.715L44.0501 71.27C44.0379 71.2389 44.032 71.2057 44.0328 71.1722C44.0336 71.1388 44.0411 71.1059 44.0549 71.0755C44.0686 71.045 44.0884 71.0176 44.1129 70.9949C44.1374 70.9722 44.1663 70.9546 44.1977 70.9433C44.2291 70.9319 44.2625 70.9269 44.2959 70.9287C44.3293 70.9305 44.362 70.9389 44.392 70.9535C44.4221 70.9681 44.4489 70.9886 44.4709 71.0138C44.4929 71.0389 44.5096 71.0683 44.5201 71.1L50.1451 86.54C50.1676 86.6023 50.1645 86.671 50.1364 86.731C50.1082 86.791 50.0574 86.8374 49.9951 86.86C49.9686 86.8722 49.9393 86.8774 49.9101 86.875Z" fill="#231F20"/>
<path d="M71.215 94.6349C71.1487 94.6462 71.0807 94.6306 71.0258 94.5917C70.971 94.5528 70.9338 94.4937 70.9225 94.4274C70.9113 94.3611 70.9268 94.293 70.9657 94.2382C71.0046 94.1833 71.0637 94.1462 71.13 94.1349L91.72 86.6349C91.7818 86.6145 91.8492 86.619 91.9077 86.6475C91.9662 86.6759 92.0113 86.7261 92.0335 86.7873C92.0556 86.8485 92.053 86.9159 92.0262 86.9752C91.9994 87.0345 91.9506 87.0811 91.89 87.1049L71.3 94.6049L71.215 94.6349Z" fill="#D1D3D4"/>
<path d="M37.5251 96.825C37.4588 96.8363 37.3907 96.8208 37.3359 96.7818C37.281 96.7429 37.2439 96.6838 37.2326 96.6175C37.2213 96.5512 37.2369 96.4831 37.2758 96.4283C37.3147 96.3734 37.3738 96.3363 37.4401 96.325L88.5001 77.75C88.531 77.7385 88.5638 77.7332 88.5967 77.7344C88.6296 77.7356 88.6619 77.7433 88.6919 77.757C88.7218 77.7707 88.7488 77.7901 88.7712 77.8142C88.7937 77.8384 88.8111 77.8667 88.8226 77.8975C88.8341 77.9284 88.8394 77.9612 88.8382 77.9941C88.837 78.027 88.8293 78.0594 88.8156 78.0893C88.8019 78.1193 88.7825 78.1462 88.7584 78.1686C88.7342 78.1911 88.706 78.2085 88.6751 78.22L37.6101 96.81L37.5251 96.825Z" fill="#D1D3D4"/>
<path d="M37.5254 39.065L39.8754 45.515L21.3754 52.25L19.0254 45.805C20.2504 43.35 22.7104 41.77 24.9304 40.73C25.7804 40.33 26.6004 40.015 27.3004 39.76L27.4654 39.7C28.1154 39.465 28.8754 39.2 29.7004 38.99H29.7454C32.1154 38.345 35.0004 38 37.5254 39.065Z" fill="#CA973C"/>
<path d="M30.2553 40.1949L30.7053 46.8549L30.8353 48.8049L30.4203 48.9549L29.2653 47.3749L25.3403 41.9999C26.8312 41.0547 28.507 40.4393 30.2553 40.1949Z" fill="#CA973C"/>
<path d="M28.195 33.2C27.915 31.755 30.065 30.59 30.54 32.245C30.7348 32.8163 30.7206 33.4382 30.5 34C30.3834 34.2726 30.1887 34.5045 29.9404 34.6664C29.6921 34.8284 29.4014 34.9132 29.105 34.91" fill="white"/>
<path d="M29.1703 35.15H29.0703C29.0367 35.1474 29.004 35.1383 28.9741 35.1231C28.9441 35.1079 28.9174 35.0869 28.8956 35.0613C28.8737 35.0358 28.8571 35.0062 28.8468 34.9742C28.8365 34.9422 28.8325 34.9085 28.8353 34.875C28.8404 34.8068 28.8721 34.7435 28.9236 34.6986C28.975 34.6537 29.0421 34.6308 29.1103 34.635C29.3541 34.635 29.5924 34.5628 29.7953 34.4275C29.9982 34.2923 30.1565 34.1 30.2503 33.875C30.4434 33.3769 30.4575 32.8273 30.2903 32.3199C30.1003 31.6599 29.6553 31.6649 29.4053 31.7199C29.097 31.8013 28.8291 31.9926 28.6522 32.2579C28.4754 32.5232 28.4017 32.8441 28.4453 33.16C28.4525 33.1928 28.4531 33.2268 28.4469 33.2599C28.4407 33.293 28.4278 33.3245 28.4092 33.3525C28.3905 33.3806 28.3663 33.4045 28.3382 33.423C28.31 33.4414 28.2784 33.454 28.2453 33.46C28.1776 33.4732 28.1075 33.459 28.0503 33.4206C27.9932 33.3821 27.9536 33.3226 27.9403 33.255C27.8704 32.8091 27.9696 32.3533 28.2185 31.9768C28.4673 31.6004 28.8477 31.3304 29.2853 31.2199C29.4471 31.1788 29.6156 31.1714 29.7804 31.198C29.9452 31.2246 30.1028 31.2848 30.2434 31.3748C30.384 31.4648 30.5046 31.5827 30.5978 31.7212C30.691 31.8597 30.7548 32.0158 30.7853 32.1799C30.9896 32.8044 30.9665 33.4809 30.7203 34.09C30.5873 34.3942 30.3715 34.655 30.0974 34.8424C29.8233 35.0299 29.502 35.1364 29.1703 35.15Z" fill="#231F20"/>
<path d="M22.5353 35.265C21.8203 33.975 19.4253 34.465 20.1253 36.035C20.3452 36.5896 20.7544 37.0483 21.2803 37.33C21.545 37.4641 21.8435 37.5167 22.1381 37.4811C22.4327 37.4455 22.7101 37.3233 22.9353 37.13" fill="white"/>
<path d="M22.0001 37.7499C21.718 37.75 21.4395 37.6868 21.1851 37.5649C20.6034 37.2562 20.1499 36.7513 19.9051 36.1399C19.8221 35.9953 19.7699 35.8351 19.7518 35.6693C19.7337 35.5035 19.75 35.3358 19.7998 35.1766C19.8495 35.0175 19.9317 34.8703 20.041 34.7444C20.1503 34.6185 20.2845 34.5165 20.4351 34.4449C20.8413 34.2468 21.3071 34.2082 21.7404 34.3369C22.1737 34.4656 22.5429 34.7522 22.7751 35.1399C22.8083 35.1996 22.8164 35.27 22.7976 35.3357C22.7789 35.4013 22.7348 35.4568 22.6751 35.4899C22.6155 35.5231 22.545 35.5312 22.4794 35.5124C22.4138 35.4937 22.3583 35.4496 22.3251 35.3899C22.1584 35.117 21.8969 34.9151 21.5906 34.8228C21.2844 34.7306 20.9549 34.7545 20.6651 34.8899C20.5761 34.932 20.4971 34.9926 20.4333 35.0675C20.3694 35.1424 20.3223 35.2301 20.2948 35.3246C20.2674 35.4192 20.2604 35.5184 20.2742 35.6159C20.2881 35.7134 20.3225 35.8068 20.3751 35.8899C20.5739 36.3866 20.9376 36.7998 21.4051 37.0599C21.6228 37.1709 21.8682 37.2153 22.1109 37.1878C22.3537 37.1602 22.5829 37.0618 22.7701 36.9049C22.8188 36.857 22.8843 36.8301 22.9526 36.8301C23.0209 36.8301 23.0865 36.857 23.1351 36.9049C23.1828 36.9527 23.2095 37.0175 23.2095 37.0849C23.2095 37.1524 23.1828 37.2171 23.1351 37.2649C22.8356 37.5701 22.4276 37.7444 22.0001 37.7499Z" fill="#231F20"/>
<path d="M25.3254 41.9999C25.7177 42.3396 26.1972 42.5627 26.7097 42.644C27.2222 42.7253 27.7472 42.6615 28.2254 42.4599C28.7296 42.2912 29.1816 41.9949 29.5373 41.5997C29.8931 41.2045 30.1404 40.724 30.2554 40.2049L28.1004 35.0249L23.6504 36.6449L25.3254 41.9999Z" fill="white"/>
<path d="M27.1101 42.9149C26.3845 42.9239 25.6823 42.6577 25.1451 42.1699C25.116 42.1401 25.0938 42.1042 25.0801 42.0649L23.4051 36.7199C23.3859 36.6569 23.3919 36.5889 23.4217 36.5302C23.4515 36.4715 23.5029 36.4266 23.5651 36.4049L28.0001 34.7849C28.0625 34.7615 28.1316 34.7629 28.1931 34.789C28.2545 34.815 28.3036 34.8637 28.3301 34.9249L30.5001 40.0949C30.5103 40.141 30.5103 40.1888 30.5001 40.2349C30.3788 40.8008 30.1121 41.3253 29.7263 41.7566C29.3405 42.188 28.8489 42.5114 28.3001 42.6949C27.9192 42.8368 27.5165 42.9112 27.1101 42.9149ZM25.5551 41.8449C25.9113 42.1346 26.3398 42.3216 26.7944 42.3859C27.249 42.4502 27.7125 42.3894 28.1351 42.2099C28.5864 42.0583 28.9923 41.7957 29.3156 41.4462C29.6388 41.0968 29.8691 40.6716 29.9851 40.2099L27.9551 35.3399L23.9551 36.7949L25.5551 41.8449Z" fill="#231F20"/>
<path d="M24.4701 38.895C24.9952 39.2689 25.6053 39.506 26.2451 39.585C27.3051 39.75 28.8201 39.82 29.8301 39.265L28.8301 37.105C28.0915 37.4944 27.3094 37.7949 26.5001 38C25.7972 38.2272 25.0637 38.3453 24.3251 38.35C24.1851 38.32 24.2551 38.73 24.4701 38.895Z" fill="#231F20"/>
<path d="M27.7002 39.9499C27.1979 39.9475 26.6965 39.9074 26.2002 39.8299C25.5194 39.7467 24.8708 39.492 24.3152 39.0899C24.1956 38.9958 24.105 38.8699 24.0537 38.7266C24.0025 38.5834 23.9926 38.4285 24.0252 38.2799C24.046 38.2181 24.0868 38.1649 24.1411 38.1288C24.1954 38.0926 24.2601 38.0754 24.3252 38.0799C25.0369 38.0756 25.7436 37.9609 26.4202 37.7399C27.2201 37.5486 27.994 37.2615 28.7252 36.8849C28.7878 36.8601 28.8575 36.8601 28.9202 36.8849C28.9526 36.8958 28.9823 36.9135 29.0073 36.9368C29.0323 36.96 29.052 36.9884 29.0652 37.0199L30.0652 39.1749C30.0922 39.2323 30.0963 39.2978 30.0768 39.3582C30.0573 39.4185 30.0156 39.4692 29.9602 39.4999C29.2547 39.8316 28.4789 39.9861 27.7002 39.9499ZM24.5402 38.5799C24.5597 38.6255 24.5887 38.6664 24.6252 38.6999C25.1172 39.0471 25.6875 39.267 26.2852 39.3399C26.9152 39.4349 28.4402 39.6049 29.5052 39.1499L28.7252 37.4449C28.031 37.7785 27.3037 38.0383 26.5552 38.2199C25.9018 38.4263 25.2246 38.5473 24.5402 38.5799Z" fill="#231F20"/>
<path d="M26.7051 38.5L27.0701 38.365C27.4823 38.2159 27.8611 37.9869 28.1848 37.6913C28.5084 37.3957 28.7706 37.0391 28.9564 36.6421C29.1421 36.245 29.2478 35.8153 29.2673 35.3774C29.2868 34.9394 29.2198 34.502 29.0701 34.09L27.2601 29.125C26.0614 28.583 24.699 28.5277 23.4602 28.9708C22.2215 29.4139 21.2032 30.3207 20.6201 31.5L22.4251 36.5C22.5748 36.9124 22.8042 37.2912 23.1003 37.6149C23.3964 37.9387 23.7534 38.2009 24.1508 38.3866C24.5483 38.5723 24.9784 38.6779 25.4167 38.6974C25.855 38.7168 26.2928 38.6497 26.7051 38.5Z" fill="white"/>
<path d="M25.2552 28.6399C25.9501 28.6262 26.6375 28.7861 27.2552 29.1049L29.0652 34.0699C29.2149 34.4819 29.2819 34.9194 29.2624 35.3573C29.2428 35.7952 29.1372 36.225 28.9514 36.6221C28.7657 37.0191 28.5035 37.3756 28.1798 37.6713C27.8561 37.9669 27.4774 38.1958 27.0652 38.3449L26.7002 38.4799C26.3328 38.6116 25.9455 38.6793 25.5552 38.6799C24.8733 38.6795 24.2079 38.4704 23.6484 38.0807C23.0888 37.691 22.662 37.1394 22.4252 36.4999L20.6202 31.4999C20.8851 30.8992 21.2743 30.3614 21.7621 29.9218C22.2498 29.4823 22.8252 29.1511 23.4502 28.9499C24.0276 28.734 24.6387 28.6223 25.2552 28.6199V28.6399ZM25.2552 28.1199C24.5724 28.1206 23.8953 28.2425 23.2552 28.4799C22.5577 28.7073 21.9168 29.081 21.3753 29.5759C20.8338 30.0709 20.4042 30.6757 20.1152 31.3499C20.0742 31.4613 20.0742 31.5836 20.1152 31.6949L21.9202 36.6599C22.0926 37.136 22.3574 37.5733 22.6992 37.9467C23.0411 38.3202 23.4534 38.6224 23.9124 38.8361C24.3714 39.0498 24.8681 39.1708 25.3739 39.192C25.8798 39.2133 26.3849 39.1344 26.8602 38.9599L27.2252 38.8249C28.1859 38.4754 28.9684 37.7587 29.4006 36.8323C29.8329 35.9059 29.8795 34.8457 29.5302 33.8849L27.7202 28.9249C27.6816 28.8115 27.6035 28.7157 27.5002 28.6549C26.8016 28.2905 26.023 28.1066 25.2352 28.1199H25.2552Z" fill="#231F20"/>
<path d="M23.6852 51.6699C23.6371 51.6699 23.5899 51.6563 23.5492 51.6306C23.5085 51.605 23.4759 51.5683 23.4552 51.5249L20.9252 46.3099C20.9041 46.2497 20.906 46.1838 20.9304 46.1249C20.9548 46.0659 21 46.018 21.0574 45.9902C21.1148 45.9624 21.1805 45.9567 21.2418 45.9742C21.3032 45.9916 21.356 46.031 21.3902 46.0849L23.9152 51.2999C23.9304 51.3304 23.9394 51.3636 23.9416 51.3975C23.9437 51.4315 23.9391 51.4656 23.9279 51.4977C23.9167 51.5299 23.8992 51.5595 23.8764 51.5848C23.8536 51.61 23.826 51.6305 23.7952 51.6449C23.7607 51.6609 23.7232 51.6694 23.6852 51.6699Z" fill="#231F20"/>
<path d="M37.5749 46.61C37.5171 46.6114 37.4607 46.5927 37.4151 46.5572C37.3695 46.5216 37.3376 46.4714 37.3249 46.415L35.9049 40.795C35.8979 40.7324 35.9139 40.6694 35.9498 40.6177C35.9857 40.5659 36.0392 40.529 36.1003 40.5137C36.1614 40.4985 36.2259 40.5059 36.2819 40.5346C36.338 40.5634 36.3817 40.6114 36.4049 40.67L37.8249 46.29C37.8332 46.3231 37.8348 46.3576 37.8297 46.3914C37.8246 46.4251 37.8129 46.4576 37.7952 46.4868C37.7776 46.5161 37.7543 46.5416 37.7268 46.5618C37.6993 46.5821 37.6681 46.5968 37.6349 46.605L37.5749 46.61Z" fill="#231F20"/>
<path d="M22.0952 35.825C21.6202 34.27 20.8152 32.38 21.0702 31.975C21.3252 31.57 21.6352 31.975 21.8902 31.515C22.1452 31.055 21.9302 31.015 21.9302 31.015C22.4433 30.6016 23.0211 30.2756 23.6402 30.05C24.2302 29.95 25.6402 29.86 26.1702 29.11C26.1702 29.11 27.5202 29.925 27.7952 30.57C28.0702 31.215 28.5502 33.07 28.6752 32.995C28.8002 32.92 29.0502 31.235 29.0002 30.495C28.9378 29.7994 28.6454 29.1445 28.169 28.6337C27.6927 28.123 27.0597 27.7856 26.3702 27.675C26.3702 27.675 26.1752 26.855 24.1402 27.055C22.1052 27.255 20.3602 28.62 19.9802 29.42C19.5547 30.5732 19.4884 31.8283 19.7902 33.02C20.0852 33.91 20.4252 33.9 20.4252 33.9L22.0952 35.825Z" fill="white"/>
<path d="M22.095 36.0799C22.0579 36.0803 22.0211 36.0725 21.9874 36.0569C21.9537 36.0414 21.9238 36.0185 21.9 35.9899L20.28 34.0949C20.095 34.0299 19.78 33.7999 19.545 33.0599C19.2241 31.8057 19.2939 30.4834 19.745 29.2699C20.17 28.3749 21.97 26.9699 24.115 26.7699C25.83 26.6049 26.38 27.1249 26.55 27.4149C27.269 27.5602 27.9215 27.9344 28.4101 28.4815C28.8986 29.0286 29.1968 29.7192 29.26 30.4499C29.26 30.8499 29.16 32.9999 28.805 33.2049C28.7683 33.2223 28.7282 33.2313 28.6875 33.2313C28.6469 33.2313 28.6068 33.2223 28.57 33.2049C28.39 33.1349 28.32 32.9799 27.95 31.7949C27.81 31.3499 27.665 30.8899 27.555 30.6399C27.2035 30.1402 26.7481 29.7223 26.22 29.4149C25.635 29.9949 24.605 30.1399 23.965 30.2299L23.68 30.2749C23.1679 30.4535 22.6895 30.7172 22.265 31.0549C22.2785 31.2578 22.2259 31.4595 22.115 31.6299C22.0586 31.7504 21.9676 31.8513 21.8537 31.9199C21.7397 31.9884 21.6079 32.0215 21.475 32.0149C21.355 32.0149 21.335 32.0149 21.285 32.0999C21.185 32.3299 21.61 33.5699 21.895 34.3899C22.05 34.8399 22.21 35.2999 22.34 35.7399C22.3578 35.7961 22.3555 35.8567 22.3336 35.9113C22.3117 35.966 22.2716 36.0115 22.22 36.0399C22.1823 36.0633 22.1394 36.0771 22.095 36.0799ZM20.46 33.5799C20.492 33.5811 20.5231 33.5898 20.551 33.6055C20.5788 33.6211 20.6025 33.6432 20.62 33.6699L21.435 34.6249L21.405 34.5399C20.88 33.0099 20.615 32.1949 20.85 31.8149C20.9098 31.7087 20.9982 31.6215 21.1052 31.5631C21.2122 31.5048 21.3334 31.4777 21.455 31.4849C21.58 31.4849 21.6 31.4849 21.66 31.3649C21.699 31.2991 21.7293 31.2285 21.75 31.1549C21.7135 31.1174 21.6876 31.0708 21.675 31.0199C21.6674 30.9728 21.6721 30.9246 21.6888 30.8798C21.7054 30.8351 21.7334 30.7955 21.77 30.7649C22.3168 30.3298 22.9341 29.9916 23.595 29.7649L23.895 29.7199C24.515 29.6349 25.555 29.4849 25.96 28.9299C25.9974 28.8775 26.0532 28.8411 26.1163 28.8281C26.1794 28.8152 26.245 28.8265 26.3 28.8599C26.45 28.9449 27.73 29.7349 28.03 30.4349C28.145 30.7099 28.295 31.1849 28.44 31.6399C28.495 31.8099 28.555 31.9999 28.615 32.1799C28.707 31.613 28.7505 31.0392 28.745 30.4649C28.6874 29.8255 28.418 29.2236 27.9797 28.7544C27.5414 28.2853 26.9591 27.9758 26.325 27.8749C26.2754 27.8663 26.2295 27.8432 26.193 27.8085C26.1565 27.7738 26.1311 27.729 26.12 27.6799C26.12 27.6799 25.89 27.0899 24.165 27.2599C22.165 27.4549 20.53 28.8099 20.215 29.4849C19.8152 30.5743 19.7508 31.7585 20.03 32.8849C20.245 33.5249 20.455 33.5949 20.455 33.5949L20.46 33.5799Z" fill="#231F20"/>
<path d="M59.2352 15.735C58.9425 15.7343 58.6571 15.6437 58.4174 15.4756C58.1778 15.3075 57.9955 15.07 57.8952 14.795L55.6302 8.56996C55.6183 8.53947 55.6125 8.50689 55.6134 8.47414C55.6142 8.4414 55.6216 8.40916 55.6351 8.37933C55.6487 8.3495 55.668 8.32267 55.6921 8.30045C55.7162 8.27823 55.7444 8.26106 55.7752 8.24996C55.8383 8.22858 55.9072 8.23222 55.9677 8.26013C56.0281 8.28803 56.0756 8.33809 56.1002 8.39996L58.3652 14.625C58.4542 14.8475 58.626 15.0269 58.8446 15.1252C59.0631 15.2236 59.3113 15.2333 59.5369 15.1522C59.7624 15.0712 59.9477 14.9058 60.0538 14.6909C60.1598 14.4759 60.1782 14.2282 60.1052 14L56.8202 4.99996C56.6624 4.57001 56.341 4.21992 55.926 4.02603C55.5111 3.83214 55.0363 3.81019 54.6052 3.96496C54.391 4.04198 54.194 4.16068 54.0259 4.31419C53.8577 4.4677 53.7215 4.65299 53.6253 4.85937C53.5291 5.06575 53.4747 5.28914 53.4652 5.51666C53.4558 5.74417 53.4915 5.9713 53.5702 6.18496L53.6952 6.52996C53.7178 6.59229 53.7146 6.661 53.6865 6.72101C53.6583 6.78101 53.6076 6.82739 53.5452 6.84996C53.5144 6.86181 53.4816 6.86731 53.4486 6.86614C53.4156 6.86497 53.3832 6.85714 53.3533 6.84313C53.3234 6.82912 53.2967 6.80922 53.2746 6.78462C53.2526 6.76001 53.2358 6.73122 53.2252 6.69996L53.1002 6.35496C52.9495 5.94077 52.9249 5.49121 53.0296 5.06306C53.1342 4.63491 53.3633 4.24736 53.6881 3.94936C54.0128 3.65136 54.4186 3.45628 54.8542 3.38876C55.2897 3.32123 55.7355 3.38428 56.1352 3.56996C56.4015 3.69324 56.6406 3.86807 56.8389 4.08434C57.0371 4.30061 57.1905 4.55403 57.2902 4.82996L60.5752 13.83C60.6517 14.0455 60.6756 14.2761 60.6449 14.5028C60.6142 14.7294 60.5298 14.9454 60.3987 15.1327C60.2675 15.3201 60.0936 15.4734 59.8912 15.5799C59.6888 15.6864 59.4639 15.743 59.2352 15.745V15.735Z" fill="#231F20"/>
<path d="M14.1753 88.805C16.9103 84.305 20.4353 77.39 22.7303 72.67C23.8553 70.355 28.0003 71.64 28.3003 73.605C28.7153 76.355 23.8753 90.515 23.8453 90.48C25.7005 92.7652 26.8424 95.5458 27.1287 98.4753C27.4149 101.405 26.833 104.354 25.4553 106.955" fill="white"/>
<path d="M25.4551 107.21C25.4125 107.21 25.3708 107.198 25.3351 107.175C25.306 107.159 25.2805 107.138 25.2599 107.112C25.2393 107.087 25.2241 107.057 25.2152 107.025C25.2064 106.993 25.204 106.96 25.2083 106.928C25.2125 106.895 25.2233 106.863 25.2401 106.835C26.5806 104.274 27.1443 101.377 26.8618 98.5002C26.5794 95.6233 25.4631 92.8915 23.6501 90.64C23.6218 90.6056 23.6031 90.5644 23.5961 90.5204C23.5891 90.4765 23.5939 90.4314 23.6101 90.39V90.355C23.8851 89.705 28.4301 76.23 28.0351 73.645C27.9001 72.765 26.7751 71.92 25.4651 71.72C24.2951 71.545 23.3501 71.94 22.9401 72.78C21.7551 75.21 17.6401 83.57 14.3751 88.935C14.3577 88.9629 14.335 88.9872 14.3083 89.0063C14.2815 89.0255 14.2512 89.0392 14.2192 89.0466C14.1871 89.054 14.1539 89.0551 14.1215 89.0496C14.089 89.0442 14.058 89.0324 14.0301 89.015C14.0019 88.9985 13.9773 88.9766 13.9577 88.9504C13.9381 88.9243 13.9239 88.8945 13.916 88.8629C13.9081 88.8312 13.9066 88.7983 13.9116 88.766C13.9166 88.7337 13.928 88.7028 13.9451 88.675C17.2001 83.33 21.3101 74.99 22.4901 72.56C22.9901 71.51 24.1401 71.01 25.5401 71.225C26.8451 71.425 28.3401 72.315 28.5401 73.57C28.9001 75.94 25.0401 88.365 24.1151 90.42C25.9799 92.7382 27.1217 95.5538 27.3982 98.5161C27.6747 101.478 27.0737 104.457 25.6701 107.08C25.6485 107.118 25.6174 107.151 25.5797 107.173C25.542 107.196 25.4991 107.209 25.4551 107.21Z" fill="#231F20"/>
<path d="M28.8702 115.105C29.4694 115.105 29.9552 114.619 29.9552 114.02C29.9552 113.421 29.4694 112.935 28.8702 112.935C28.2709 112.935 27.7852 113.421 27.7852 114.02C27.7852 114.619 28.2709 115.105 28.8702 115.105Z" fill="#231F20"/>
</svg>
