<svg width="100" height="72" viewBox="0 0 100 72" fill="none" xmlns="http://www.w3.org/2000/svg">
<g clip-path="url(#clip0_238_242)">
<mask id="path-1-inside-1_238_242" fill="white">
<path fill-rule="evenodd" clip-rule="evenodd" d="M48.3227 0.149953C47.7011 0.343528 46.9237 1.02684 46.9237 1.37997V1.5688H48.2642C50.3717 1.5688 50.381 1.58093 50.3452 4.29598L50.321 6.14918L50.0704 6.40552L49.8195 6.66212L48.2717 6.67294L46.7241 6.68375V7.48125V8.27876L49.9614 8.29959C53.1341 8.32016 53.2034 8.32412 53.4406 8.49739C53.8375 8.78722 54.0336 9.29595 54.0699 10.1304L54.1018 10.8577L55.2815 10.8804C56.6784 10.9073 56.9862 10.8295 57.6323 10.287C58.3885 9.65171 58.347 9.92546 58.3509 5.54709L58.3543 1.70989L58.1041 1.29162C57.743 0.687162 57.3546 0.363043 56.767 0.175798C56.0811 -0.0428299 49.0112 -0.0644552 48.3227 0.149953ZM39.6099 4.34767C39.1207 4.55496 39.0525 4.76066 39.0249 6.10804C38.9788 8.37818 38.8802 8.28852 41.3944 8.26056L43.3647 8.23867L43.476 8.00132C43.6315 7.6685 43.6315 4.94685 43.476 4.69157C43.241 4.30626 40.3208 4.04676 39.6099 4.34767ZM60.4198 9.04435C59.747 9.35054 59.6432 9.73611 59.6419 11.9337C59.6399 15.0275 59.6004 14.9906 62.9125 14.9906C66.1611 14.9906 66.1078 15.0409 66.1078 11.9759C66.1078 8.88269 66.1632 8.93464 62.8705 8.94229C61.3324 8.94598 60.5659 8.9779 60.4198 9.04435ZM31.3368 13.1329C30.9278 13.4786 30.8461 15.5882 31.2243 16.0481L31.4311 16.3H32.8264C34.6936 16.3 34.6141 16.3728 34.6141 14.663C34.6141 12.963 34.6823 13.0253 32.8241 13.029C31.8584 13.0308 31.4216 13.0614 31.3368 13.1329ZM54.0681 14.9637C53.8167 16.0054 52.9249 16.5191 51.4891 16.4487L50.7658 16.4134L50.7177 16.7454C50.6911 16.9279 50.6811 18.0532 50.6953 19.246C50.7336 22.5297 50.5897 22.4342 55.3967 22.3577C57.7762 22.3198 58.0964 22.2992 58.2721 22.1718C58.3808 22.093 58.5312 22.0286 58.6062 22.0286C58.9982 22.0286 59.0871 21.3097 59.0564 18.3889C59.0245 15.344 59.0557 15.513 58.4467 15.0955L57.9944 14.7859L56.0592 14.759L54.124 14.7321L54.0681 14.9637ZM42.5051 17.1296C41.7963 17.6708 41.8429 20.7754 42.5649 21.1122C42.9113 21.2738 45.9163 21.2464 46.1654 21.0792C46.8045 20.6506 46.8202 17.3636 46.1845 17.1534C46.1074 17.1281 46.0446 17.0729 46.0446 17.031C46.0446 16.8533 42.7467 16.945 42.5051 17.1296ZM14.4512 24.4085C14.3216 24.4857 14.311 24.7318 14.31 27.7C14.3087 31.2954 14.3172 31.239 13.8139 30.9729C13.6259 30.8734 13.3639 30.7677 13.232 30.7379C13.1001 30.7078 12.7586 30.5683 12.4727 30.4275C11.7136 30.0535 10.0388 30.0084 9.11558 30.337C8.78588 30.4544 8.33613 30.6081 8.11642 30.6783C7.56106 30.856 6.23811 31.8964 6.23811 32.1554C6.23811 32.1852 6.13508 32.3221 6.00938 32.4592C5.67916 32.8197 5.40586 33.3949 5.16888 34.2299C5.06173 34.607 5.03906 35.1191 5.03906 37.1533C5.03906 39.9603 5.11479 40.5529 5.57458 41.3346C5.7196 41.5812 5.83834 41.827 5.83834 41.8808C5.83834 41.9728 6.44032 42.6279 6.7726 42.8975C6.8558 42.965 7.09149 43.1593 7.29653 43.3292C7.72257 43.6831 8.55044 44.1251 8.78665 44.1251C8.87448 44.1251 8.9685 44.162 8.99581 44.2069C9.02594 44.2572 9.68562 44.2889 10.708 44.2889C12.5242 44.2889 12.4961 44.2944 13.8453 43.6396C14.4347 43.3534 14.6652 43.4223 14.6951 43.8925L14.7191 44.2738L15.9338 44.3039C16.6023 44.3203 17.2117 44.3195 17.2887 44.3018C17.4554 44.2635 17.5115 24.7953 17.3459 24.4783C17.2516 24.2982 14.7379 24.2376 14.4512 24.4085ZM28.2595 29.8032C28.1276 29.8378 27.8891 29.8702 27.7291 29.8755C27.2376 29.8918 26.3227 30.2152 25.8214 30.5498C25.7117 30.6232 25.51 30.7078 25.3735 30.7381C25.1365 30.7906 24.3517 31.5077 23.6634 32.3007C23.3468 32.6652 23.2703 32.8015 23.09 33.3224C22.6918 34.473 22.6949 34.4371 22.7235 37.5048L22.7503 40.4013L22.9692 41.0543C23.0898 41.4135 23.2232 41.7431 23.2659 41.7869C23.3087 41.8304 23.3437 41.9264 23.3437 42C23.3437 42.1184 23.6011 42.4212 24.1415 42.9383C24.2355 43.0285 24.4428 43.2371 24.602 43.4022C24.9606 43.7733 25.85 44.2889 26.1323 44.2889C26.2477 44.2889 26.4677 44.3298 26.6215 44.3796C27.8597 44.7823 29.8351 44.7942 31.0172 44.406C31.215 44.3411 31.4942 44.2881 31.6377 44.2883C31.7811 44.2886 31.9782 44.2427 32.0756 44.1865C32.3793 44.0106 33.4441 43.1622 33.6883 42.9012C33.8166 42.764 33.9454 42.6519 33.9745 42.6519C34.0883 42.6519 34.5236 41.9333 34.5731 41.6635C34.6362 41.3199 34.4822 41.1447 34.0469 41.0651C33.889 41.0361 33.619 40.9438 33.4475 40.8599C33.2759 40.7758 32.9735 40.6286 32.7757 40.5324C32.5779 40.4364 32.3527 40.3122 32.2754 40.2568C32.1536 40.1695 32.0805 40.213 31.7291 40.5822C31.5061 40.8167 31.2546 41.0308 31.1704 41.0582C31.0862 41.0857 31.0172 41.1405 31.0172 41.1803C31.0172 41.3196 30.4149 41.8576 30.0978 42.0016C28.9825 42.5087 27.7033 42.2408 26.6545 41.2803C25.9788 40.6616 25.8966 40.4343 25.8418 39.0331C25.7815 37.4866 25.2076 37.6599 30.3928 37.6599C33.2671 37.6599 34.8379 37.6306 34.9391 37.5752C35.1181 37.4768 35.1728 34.9029 35.0092 34.2636C34.832 33.5698 34.4819 32.8055 34.1945 32.4843C34.0296 32.3002 33.8949 32.1153 33.8949 32.0739C33.8949 31.8848 32.7139 30.8629 32.2961 30.6907C32.0544 30.5907 31.8386 30.4884 31.8164 30.4631C31.4486 30.0395 29.0559 29.5957 28.2595 29.8032ZM45.4784 29.7542C45.4601 29.7724 45.126 29.8267 44.7361 29.8752C43.8925 29.9802 43.6266 30.0585 42.8871 30.4196C42.5796 30.5696 42.2555 30.7131 42.1672 30.7381C42.0173 30.7809 41.1466 31.5926 40.9689 31.8555C40.9249 31.9204 40.7546 32.1446 40.5903 32.3535C40.3579 32.6491 40.243 32.9205 40.0707 33.58C39.7057 34.9791 39.7624 40.9055 40.1431 41.1466C40.1797 41.1695 40.2095 41.2523 40.2095 41.3301C40.2095 41.6094 40.7433 42.528 41.0168 42.7189C41.166 42.8231 41.3205 42.9705 41.3602 43.0462C41.5613 43.4315 42.893 44.2889 43.29 44.2889C43.4311 44.2889 43.6995 44.344 43.8863 44.4115C44.0733 44.479 44.3275 44.5341 44.4512 44.5341C44.5751 44.5341 44.6985 44.5711 44.7258 44.6161C44.7554 44.6652 45.2845 44.6979 46.0446 44.6979C46.8047 44.6979 47.3338 44.6652 47.3634 44.6161C47.3907 44.5711 47.5321 44.5341 47.6782 44.5341C47.824 44.5341 48.0725 44.479 48.2304 44.4115C48.3883 44.344 48.6354 44.286 48.7796 44.2828C48.9241 44.2794 49.15 44.2063 49.2819 44.1204C49.4138 44.0341 49.5936 43.9305 49.6814 43.8896C49.7695 43.849 50.1111 43.5552 50.4408 43.2369C50.7705 42.9186 51.077 42.6567 51.1216 42.6551C51.2475 42.6503 51.7199 41.7914 51.7199 41.5675C51.7199 41.3135 51.5167 41.1318 51.1594 41.0664C51.0049 41.0382 50.5374 40.8409 50.1201 40.6281C49.703 40.4153 49.3365 40.2288 49.3053 40.2135C49.2744 40.1982 49.055 40.3908 48.8177 40.6413C48.5808 40.8921 48.3363 41.0983 48.2747 41.1002C48.2132 41.1017 48.0622 41.2521 47.9394 41.4338C47.2006 42.5267 45.0938 42.4903 43.8629 41.3634C42.9327 40.5115 42.8969 40.3354 42.9404 36.8465L42.9708 34.4271L43.2426 33.9105C43.8469 32.7614 44.5743 32.3403 45.9537 32.3403C47.2812 32.3403 47.9298 32.7074 48.7016 33.8952C48.9826 34.328 49.42 34.3346 50.1634 33.9173C50.4699 33.7451 50.8485 33.5426 51.0049 33.4672C51.7454 33.1093 51.8224 32.8659 51.3961 32.2303C50.8578 31.4275 50.2811 30.9209 49.6196 30.6698C49.4099 30.5899 49.0841 30.4409 48.896 30.3386C48.2433 29.9834 45.6891 29.5466 45.4784 29.7542ZM61.5449 29.7542C61.5267 29.7724 61.1926 29.8267 60.8026 29.8752C59.9654 29.9794 59.7001 30.0567 58.9537 30.4143C58.6461 30.562 58.3043 30.7194 58.1943 30.7645C57.955 30.8629 57.0754 31.5939 57.0754 31.6947C57.0754 31.7337 56.9213 31.9776 56.7333 32.2371C55.9173 33.3617 55.9162 33.3672 55.9162 37.3323V40.7288L56.3873 41.6904C56.6465 42.2192 56.8881 42.6519 56.9244 42.6519C56.9607 42.6519 57.1802 42.8413 57.4125 43.0723C57.8893 43.5473 58.6245 44.1251 58.7515 44.1251C58.7981 44.1251 58.8985 44.1581 58.9748 44.1982C59.051 44.2385 59.3114 44.3139 59.5533 44.3656C59.7949 44.4176 60.1728 44.4988 60.3925 44.546C60.9597 44.6678 62.9748 44.7267 63.3097 44.6309C63.9356 44.4521 64.4057 44.3427 64.7029 44.3068C65.1542 44.2522 66.3746 43.5605 66.4676 43.3068C66.4924 43.2392 66.675 43.0549 66.8736 42.8975C67.3784 42.4969 67.6736 42.004 67.949 41.1025L68.186 40.3261V37.3574C68.186 35.4319 68.1543 34.2515 68.0956 33.9986C67.8831 33.0832 67.7406 32.7018 67.5108 32.4347C67.3766 32.2786 67.1948 32.0354 67.1069 31.8943C66.8852 31.5388 66.1096 30.8188 65.868 30.7445C65.758 30.7104 65.4522 30.5667 65.1885 30.4248C64.4206 30.0121 61.777 29.5255 61.5449 29.7542ZM79.1768 30.1337C78.9568 30.1579 78.6985 30.2223 78.6024 30.2769C78.5066 30.3315 78.369 30.376 78.2972 30.376C78.225 30.376 78.1122 30.4314 78.0463 30.4987C77.9806 30.5662 77.8302 30.6416 77.7125 30.6661C77.5945 30.6909 77.3183 30.788 77.0986 30.8819C76.526 31.1266 76.3045 31.1226 76.2777 30.8671C76.2659 30.7548 76.2373 30.543 76.2141 30.3966L76.1721 30.1308H74.9491C73.885 30.1308 73.7101 30.1492 73.6019 30.274C73.4917 30.4008 73.4775 31.191 73.4762 37.2719C73.4747 44.71 73.4597 44.4563 73.893 44.3371C73.9855 44.3118 74.6449 44.2905 75.3587 44.2899L76.6564 44.2889L76.6821 39.5215C76.6963 36.8998 76.7378 34.6442 76.7746 34.5091C76.9286 33.9421 78.1114 32.7496 78.5197 32.7496C78.59 32.7496 78.6699 32.7127 78.6972 32.6676C78.8762 32.3709 80.287 32.6607 80.8977 33.1196C82.062 33.9946 82.0901 34.1486 82.0924 39.6716C82.0934 42.1959 82.1092 44.2767 82.1274 44.2955C82.1455 44.3145 82.8381 44.3113 83.666 44.2889L85.1718 44.2477L85.2117 39.4603C85.2548 34.2884 85.2293 34.5738 85.7017 33.9769C86.3402 33.1705 86.4752 33.0463 86.9576 32.8218C87.4831 32.5774 88.4189 32.4856 88.5289 32.6676C88.556 32.7127 88.6667 32.7496 88.7749 32.7496C89.1298 32.7496 90.1658 33.5763 90.1671 33.8604C90.1674 33.9089 90.2576 34.035 90.3673 34.1407C90.4773 34.2465 90.5672 34.3981 90.5672 34.4775C90.5672 34.5571 90.6032 34.645 90.647 34.6727C90.6991 34.7054 90.7271 36.4059 90.7271 39.5059V44.2889L91.0669 44.2894C91.2536 44.2899 91.8922 44.2934 92.4856 44.2976C93.0791 44.3015 93.6275 44.3013 93.7045 44.2968C93.9889 44.2804 93.8882 34.6705 93.5951 33.8543C93.381 33.2583 93.0443 32.5945 92.9047 32.4924C92.821 32.4313 92.6835 32.2717 92.599 32.138C92.2827 31.6369 91.2691 30.8059 90.8868 30.7344C90.733 30.7057 90.5713 30.6537 90.5272 30.6189C89.7195 29.9794 86.7784 29.9425 85.6486 30.5575C85.5152 30.63 85.273 30.7149 85.1105 30.7463C84.9413 30.7787 84.669 30.9338 84.4738 31.1089C83.793 31.7192 83.7234 31.7239 83.0465 31.202C82.7598 30.981 82.3835 30.7611 82.2099 30.7131C82.0365 30.6651 81.8225 30.5754 81.7346 30.5137C81.296 30.2065 80.1126 30.0306 79.1768 30.1337ZM30.248 32.5507C31.4939 33.1547 32.5289 35.0598 31.8218 35.4472C31.5498 35.5962 26.0239 35.5601 25.901 35.4087C25.6401 35.0867 26.1076 33.5711 26.5952 33.1583C26.8072 32.9787 27.6 32.4531 27.7399 32.3993C28.1461 32.243 29.8217 32.3442 30.248 32.5507ZM63.3341 32.4756C64.0798 32.8704 64.5437 33.334 64.9183 34.059C65.402 34.9949 65.1511 40.6315 64.6094 40.9949C64.5033 41.0662 64.2452 41.2932 64.036 41.4995C62.9341 42.586 61.0298 42.4702 59.7903 41.2415C58.9493 40.4079 58.9699 40.5026 58.9341 37.3183L58.9039 34.6444L59.1651 34.1265C59.4786 33.5054 60.1859 32.7519 60.6761 32.517C61.1542 32.2875 62.9269 32.2601 63.3341 32.4756ZM12.0675 32.6776C13.0916 33.0064 13.9102 33.752 14.2101 34.6294C14.3747 35.1112 14.3484 39.3525 14.1774 39.8949C13.9971 40.4672 13.7083 40.9232 13.4669 41.0171C13.3575 41.0598 13.188 41.1724 13.0901 41.2679C11.8954 42.432 9.2655 41.8945 8.45102 40.3195C7.93714 39.3258 7.92014 34.7795 8.42835 34.238C8.4997 34.1621 8.7189 33.8941 8.91544 33.6428C9.27554 33.1826 9.90842 32.7496 10.2209 32.7496C10.311 32.7496 10.4074 32.7127 10.4344 32.6676C10.5016 32.5565 11.7133 32.5636 12.0675 32.6776Z"/>
</mask>
<path fill-rule="evenodd" clip-rule="evenodd" d="M48.3227 0.149953C47.7011 0.343528 46.9237 1.02684 46.9237 1.37997V1.5688H48.2642C50.3717 1.5688 50.381 1.58093 50.3452 4.29598L50.321 6.14918L50.0704 6.40552L49.8195 6.66212L48.2717 6.67294L46.7241 6.68375V7.48125V8.27876L49.9614 8.29959C53.1341 8.32016 53.2034 8.32412 53.4406 8.49739C53.8375 8.78722 54.0336 9.29595 54.0699 10.1304L54.1018 10.8577L55.2815 10.8804C56.6784 10.9073 56.9862 10.8295 57.6323 10.287C58.3885 9.65171 58.347 9.92546 58.3509 5.54709L58.3543 1.70989L58.1041 1.29162C57.743 0.687162 57.3546 0.363043 56.767 0.175798C56.0811 -0.0428299 49.0112 -0.0644552 48.3227 0.149953ZM39.6099 4.34767C39.1207 4.55496 39.0525 4.76066 39.0249 6.10804C38.9788 8.37818 38.8802 8.28852 41.3944 8.26056L43.3647 8.23867L43.476 8.00132C43.6315 7.6685 43.6315 4.94685 43.476 4.69157C43.241 4.30626 40.3208 4.04676 39.6099 4.34767ZM60.4198 9.04435C59.747 9.35054 59.6432 9.73611 59.6419 11.9337C59.6399 15.0275 59.6004 14.9906 62.9125 14.9906C66.1611 14.9906 66.1078 15.0409 66.1078 11.9759C66.1078 8.88269 66.1632 8.93464 62.8705 8.94229C61.3324 8.94598 60.5659 8.9779 60.4198 9.04435ZM31.3368 13.1329C30.9278 13.4786 30.8461 15.5882 31.2243 16.0481L31.4311 16.3H32.8264C34.6936 16.3 34.6141 16.3728 34.6141 14.663C34.6141 12.963 34.6823 13.0253 32.8241 13.029C31.8584 13.0308 31.4216 13.0614 31.3368 13.1329ZM54.0681 14.9637C53.8167 16.0054 52.9249 16.5191 51.4891 16.4487L50.7658 16.4134L50.7177 16.7454C50.6911 16.9279 50.6811 18.0532 50.6953 19.246C50.7336 22.5297 50.5897 22.4342 55.3967 22.3577C57.7762 22.3198 58.0964 22.2992 58.2721 22.1718C58.3808 22.093 58.5312 22.0286 58.6062 22.0286C58.9982 22.0286 59.0871 21.3097 59.0564 18.3889C59.0245 15.344 59.0557 15.513 58.4467 15.0955L57.9944 14.7859L56.0592 14.759L54.124 14.7321L54.0681 14.9637ZM42.5051 17.1296C41.7963 17.6708 41.8429 20.7754 42.5649 21.1122C42.9113 21.2738 45.9163 21.2464 46.1654 21.0792C46.8045 20.6506 46.8202 17.3636 46.1845 17.1534C46.1074 17.1281 46.0446 17.0729 46.0446 17.031C46.0446 16.8533 42.7467 16.945 42.5051 17.1296ZM14.4512 24.4085C14.3216 24.4857 14.311 24.7318 14.31 27.7C14.3087 31.2954 14.3172 31.239 13.8139 30.9729C13.6259 30.8734 13.3639 30.7677 13.232 30.7379C13.1001 30.7078 12.7586 30.5683 12.4727 30.4275C11.7136 30.0535 10.0388 30.0084 9.11558 30.337C8.78588 30.4544 8.33613 30.6081 8.11642 30.6783C7.56106 30.856 6.23811 31.8964 6.23811 32.1554C6.23811 32.1852 6.13508 32.3221 6.00938 32.4592C5.67916 32.8197 5.40586 33.3949 5.16888 34.2299C5.06173 34.607 5.03906 35.1191 5.03906 37.1533C5.03906 39.9603 5.11479 40.5529 5.57458 41.3346C5.7196 41.5812 5.83834 41.827 5.83834 41.8808C5.83834 41.9728 6.44032 42.6279 6.7726 42.8975C6.8558 42.965 7.09149 43.1593 7.29653 43.3292C7.72257 43.6831 8.55044 44.1251 8.78665 44.1251C8.87448 44.1251 8.9685 44.162 8.99581 44.2069C9.02594 44.2572 9.68562 44.2889 10.708 44.2889C12.5242 44.2889 12.4961 44.2944 13.8453 43.6396C14.4347 43.3534 14.6652 43.4223 14.6951 43.8925L14.7191 44.2738L15.9338 44.3039C16.6023 44.3203 17.2117 44.3195 17.2887 44.3018C17.4554 44.2635 17.5115 24.7953 17.3459 24.4783C17.2516 24.2982 14.7379 24.2376 14.4512 24.4085ZM28.2595 29.8032C28.1276 29.8378 27.8891 29.8702 27.7291 29.8755C27.2376 29.8918 26.3227 30.2152 25.8214 30.5498C25.7117 30.6232 25.51 30.7078 25.3735 30.7381C25.1365 30.7906 24.3517 31.5077 23.6634 32.3007C23.3468 32.6652 23.2703 32.8015 23.09 33.3224C22.6918 34.473 22.6949 34.4371 22.7235 37.5048L22.7503 40.4013L22.9692 41.0543C23.0898 41.4135 23.2232 41.7431 23.2659 41.7869C23.3087 41.8304 23.3437 41.9264 23.3437 42C23.3437 42.1184 23.6011 42.4212 24.1415 42.9383C24.2355 43.0285 24.4428 43.2371 24.602 43.4022C24.9606 43.7733 25.85 44.2889 26.1323 44.2889C26.2477 44.2889 26.4677 44.3298 26.6215 44.3796C27.8597 44.7823 29.8351 44.7942 31.0172 44.406C31.215 44.3411 31.4942 44.2881 31.6377 44.2883C31.7811 44.2886 31.9782 44.2427 32.0756 44.1865C32.3793 44.0106 33.4441 43.1622 33.6883 42.9012C33.8166 42.764 33.9454 42.6519 33.9745 42.6519C34.0883 42.6519 34.5236 41.9333 34.5731 41.6635C34.6362 41.3199 34.4822 41.1447 34.0469 41.0651C33.889 41.0361 33.619 40.9438 33.4475 40.8599C33.2759 40.7758 32.9735 40.6286 32.7757 40.5324C32.5779 40.4364 32.3527 40.3122 32.2754 40.2568C32.1536 40.1695 32.0805 40.213 31.7291 40.5822C31.5061 40.8167 31.2546 41.0308 31.1704 41.0582C31.0862 41.0857 31.0172 41.1405 31.0172 41.1803C31.0172 41.3196 30.4149 41.8576 30.0978 42.0016C28.9825 42.5087 27.7033 42.2408 26.6545 41.2803C25.9788 40.6616 25.8966 40.4343 25.8418 39.0331C25.7815 37.4866 25.2076 37.6599 30.3928 37.6599C33.2671 37.6599 34.8379 37.6306 34.9391 37.5752C35.1181 37.4768 35.1728 34.9029 35.0092 34.2636C34.832 33.5698 34.4819 32.8055 34.1945 32.4843C34.0296 32.3002 33.8949 32.1153 33.8949 32.0739C33.8949 31.8848 32.7139 30.8629 32.2961 30.6907C32.0544 30.5907 31.8386 30.4884 31.8164 30.4631C31.4486 30.0395 29.0559 29.5957 28.2595 29.8032ZM45.4784 29.7542C45.4601 29.7724 45.126 29.8267 44.7361 29.8752C43.8925 29.9802 43.6266 30.0585 42.8871 30.4196C42.5796 30.5696 42.2555 30.7131 42.1672 30.7381C42.0173 30.7809 41.1466 31.5926 40.9689 31.8555C40.9249 31.9204 40.7546 32.1446 40.5903 32.3535C40.3579 32.6491 40.243 32.9205 40.0707 33.58C39.7057 34.9791 39.7624 40.9055 40.1431 41.1466C40.1797 41.1695 40.2095 41.2523 40.2095 41.3301C40.2095 41.6094 40.7433 42.528 41.0168 42.7189C41.166 42.8231 41.3205 42.9705 41.3602 43.0462C41.5613 43.4315 42.893 44.2889 43.29 44.2889C43.4311 44.2889 43.6995 44.344 43.8863 44.4115C44.0733 44.479 44.3275 44.5341 44.4512 44.5341C44.5751 44.5341 44.6985 44.5711 44.7258 44.6161C44.7554 44.6652 45.2845 44.6979 46.0446 44.6979C46.8047 44.6979 47.3338 44.6652 47.3634 44.6161C47.3907 44.5711 47.5321 44.5341 47.6782 44.5341C47.824 44.5341 48.0725 44.479 48.2304 44.4115C48.3883 44.344 48.6354 44.286 48.7796 44.2828C48.9241 44.2794 49.15 44.2063 49.2819 44.1204C49.4138 44.0341 49.5936 43.9305 49.6814 43.8896C49.7695 43.849 50.1111 43.5552 50.4408 43.2369C50.7705 42.9186 51.077 42.6567 51.1216 42.6551C51.2475 42.6503 51.7199 41.7914 51.7199 41.5675C51.7199 41.3135 51.5167 41.1318 51.1594 41.0664C51.0049 41.0382 50.5374 40.8409 50.1201 40.6281C49.703 40.4153 49.3365 40.2288 49.3053 40.2135C49.2744 40.1982 49.055 40.3908 48.8177 40.6413C48.5808 40.8921 48.3363 41.0983 48.2747 41.1002C48.2132 41.1017 48.0622 41.2521 47.9394 41.4338C47.2006 42.5267 45.0938 42.4903 43.8629 41.3634C42.9327 40.5115 42.8969 40.3354 42.9404 36.8465L42.9708 34.4271L43.2426 33.9105C43.8469 32.7614 44.5743 32.3403 45.9537 32.3403C47.2812 32.3403 47.9298 32.7074 48.7016 33.8952C48.9826 34.328 49.42 34.3346 50.1634 33.9173C50.4699 33.7451 50.8485 33.5426 51.0049 33.4672C51.7454 33.1093 51.8224 32.8659 51.3961 32.2303C50.8578 31.4275 50.2811 30.9209 49.6196 30.6698C49.4099 30.5899 49.0841 30.4409 48.896 30.3386C48.2433 29.9834 45.6891 29.5466 45.4784 29.7542ZM61.5449 29.7542C61.5267 29.7724 61.1926 29.8267 60.8026 29.8752C59.9654 29.9794 59.7001 30.0567 58.9537 30.4143C58.6461 30.562 58.3043 30.7194 58.1943 30.7645C57.955 30.8629 57.0754 31.5939 57.0754 31.6947C57.0754 31.7337 56.9213 31.9776 56.7333 32.2371C55.9173 33.3617 55.9162 33.3672 55.9162 37.3323V40.7288L56.3873 41.6904C56.6465 42.2192 56.8881 42.6519 56.9244 42.6519C56.9607 42.6519 57.1802 42.8413 57.4125 43.0723C57.8893 43.5473 58.6245 44.1251 58.7515 44.1251C58.7981 44.1251 58.8985 44.1581 58.9748 44.1982C59.051 44.2385 59.3114 44.3139 59.5533 44.3656C59.7949 44.4176 60.1728 44.4988 60.3925 44.546C60.9597 44.6678 62.9748 44.7267 63.3097 44.6309C63.9356 44.4521 64.4057 44.3427 64.7029 44.3068C65.1542 44.2522 66.3746 43.5605 66.4676 43.3068C66.4924 43.2392 66.675 43.0549 66.8736 42.8975C67.3784 42.4969 67.6736 42.004 67.949 41.1025L68.186 40.3261V37.3574C68.186 35.4319 68.1543 34.2515 68.0956 33.9986C67.8831 33.0832 67.7406 32.7018 67.5108 32.4347C67.3766 32.2786 67.1948 32.0354 67.1069 31.8943C66.8852 31.5388 66.1096 30.8188 65.868 30.7445C65.758 30.7104 65.4522 30.5667 65.1885 30.4248C64.4206 30.0121 61.777 29.5255 61.5449 29.7542ZM79.1768 30.1337C78.9568 30.1579 78.6985 30.2223 78.6024 30.2769C78.5066 30.3315 78.369 30.376 78.2972 30.376C78.225 30.376 78.1122 30.4314 78.0463 30.4987C77.9806 30.5662 77.8302 30.6416 77.7125 30.6661C77.5945 30.6909 77.3183 30.788 77.0986 30.8819C76.526 31.1266 76.3045 31.1226 76.2777 30.8671C76.2659 30.7548 76.2373 30.543 76.2141 30.3966L76.1721 30.1308H74.9491C73.885 30.1308 73.7101 30.1492 73.6019 30.274C73.4917 30.4008 73.4775 31.191 73.4762 37.2719C73.4747 44.71 73.4597 44.4563 73.893 44.3371C73.9855 44.3118 74.6449 44.2905 75.3587 44.2899L76.6564 44.2889L76.6821 39.5215C76.6963 36.8998 76.7378 34.6442 76.7746 34.5091C76.9286 33.9421 78.1114 32.7496 78.5197 32.7496C78.59 32.7496 78.6699 32.7127 78.6972 32.6676C78.8762 32.3709 80.287 32.6607 80.8977 33.1196C82.062 33.9946 82.0901 34.1486 82.0924 39.6716C82.0934 42.1959 82.1092 44.2767 82.1274 44.2955C82.1455 44.3145 82.8381 44.3113 83.666 44.2889L85.1718 44.2477L85.2117 39.4603C85.2548 34.2884 85.2293 34.5738 85.7017 33.9769C86.3402 33.1705 86.4752 33.0463 86.9576 32.8218C87.4831 32.5774 88.4189 32.4856 88.5289 32.6676C88.556 32.7127 88.6667 32.7496 88.7749 32.7496C89.1298 32.7496 90.1658 33.5763 90.1671 33.8604C90.1674 33.9089 90.2576 34.035 90.3673 34.1407C90.4773 34.2465 90.5672 34.3981 90.5672 34.4775C90.5672 34.5571 90.6032 34.645 90.647 34.6727C90.6991 34.7054 90.7271 36.4059 90.7271 39.5059V44.2889L91.0669 44.2894C91.2536 44.2899 91.8922 44.2934 92.4856 44.2976C93.0791 44.3015 93.6275 44.3013 93.7045 44.2968C93.9889 44.2804 93.8882 34.6705 93.5951 33.8543C93.381 33.2583 93.0443 32.5945 92.9047 32.4924C92.821 32.4313 92.6835 32.2717 92.599 32.138C92.2827 31.6369 91.2691 30.8059 90.8868 30.7344C90.733 30.7057 90.5713 30.6537 90.5272 30.6189C89.7195 29.9794 86.7784 29.9425 85.6486 30.5575C85.5152 30.63 85.273 30.7149 85.1105 30.7463C84.9413 30.7787 84.669 30.9338 84.4738 31.1089C83.793 31.7192 83.7234 31.7239 83.0465 31.202C82.7598 30.981 82.3835 30.7611 82.2099 30.7131C82.0365 30.6651 81.8225 30.5754 81.7346 30.5137C81.296 30.2065 80.1126 30.0306 79.1768 30.1337ZM30.248 32.5507C31.4939 33.1547 32.5289 35.0598 31.8218 35.4472C31.5498 35.5962 26.0239 35.5601 25.901 35.4087C25.6401 35.0867 26.1076 33.5711 26.5952 33.1583C26.8072 32.9787 27.6 32.4531 27.7399 32.3993C28.1461 32.243 29.8217 32.3442 30.248 32.5507ZM63.3341 32.4756C64.0798 32.8704 64.5437 33.334 64.9183 34.059C65.402 34.9949 65.1511 40.6315 64.6094 40.9949C64.5033 41.0662 64.2452 41.2932 64.036 41.4995C62.9341 42.586 61.0298 42.4702 59.7903 41.2415C58.9493 40.4079 58.9699 40.5026 58.9341 37.3183L58.9039 34.6444L59.1651 34.1265C59.4786 33.5054 60.1859 32.7519 60.6761 32.517C61.1542 32.2875 62.9269 32.2601 63.3341 32.4756ZM12.0675 32.6776C13.0916 33.0064 13.9102 33.752 14.2101 34.6294C14.3747 35.1112 14.3484 39.3525 14.1774 39.8949C13.9971 40.4672 13.7083 40.9232 13.4669 41.0171C13.3575 41.0598 13.188 41.1724 13.0901 41.2679C11.8954 42.432 9.2655 41.8945 8.45102 40.3195C7.93714 39.3258 7.92014 34.7795 8.42835 34.238C8.4997 34.1621 8.7189 33.8941 8.91544 33.6428C9.27554 33.1826 9.90842 32.7496 10.2209 32.7496C10.311 32.7496 10.4074 32.7127 10.4344 32.6676C10.5016 32.5565 11.7133 32.5636 12.0675 32.6776Z" fill="#276387" stroke="white" mask="url(#path-1-inside-1_238_242)"/>
<mask id="path-2-inside-2_238_242" fill="white">
<path fill-rule="evenodd" clip-rule="evenodd" d="M55.443 3.81972C55.0576 4.00855 54.9879 4.31394 55.0289 5.6352L55.0639 6.76553L55.2833 6.99049L55.5023 7.21545H56.7575H58.0124L58.2256 6.96438L58.4386 6.71331V5.51178C58.4386 3.75036 58.3853 3.69445 56.7046 3.69972C55.9831 3.70183 55.6111 3.73744 55.443 3.81972ZM34.1905 10.2499C33.7778 10.5481 33.7184 10.886 33.7453 12.7882C33.782 15.3756 33.7385 15.3345 36.3935 15.3002L38.2199 15.2767L38.4146 15.0721C38.984 14.474 38.9686 10.7515 38.3945 10.242C38.1093 9.98905 34.5424 9.99564 34.1905 10.2499ZM7.17461 52.3549C7.13556 52.4704 7.10376 53.039 7.10376 53.6187C7.10376 54.7791 7.06518 54.8835 6.7369 54.6095C5.85447 53.8737 4.36341 54.4497 4.00707 55.6642C3.24248 58.2698 5.02278 60.2738 6.84563 58.8592C7.24546 58.5488 7.24897 58.549 7.24897 58.8951C7.24897 59.2247 7.48746 59.355 7.79844 59.1952C7.99789 59.0928 7.98362 59.47 7.9745 54.5626C7.96983 52.0574 7.98713 52.1484 7.51926 52.1463C7.29152 52.1453 7.23353 52.1803 7.17461 52.3549ZM39.8456 53.1793C39.7858 53.2078 39.7549 53.4114 39.7549 53.779C39.7549 54.3856 39.7172 54.4326 39.2267 54.4355C39.1128 54.436 39.0062 54.4914 38.9821 54.5623C38.9206 54.7427 39.1636 55.0093 39.389 55.0093C39.7374 55.0093 39.7549 55.0937 39.7563 56.7649C39.7577 58.8286 39.9342 59.2276 40.8866 59.3197C41.538 59.3827 41.8752 59.197 41.8452 58.7914L41.823 58.4876L41.4173 58.515C41.0439 58.5401 40.9939 58.5219 40.7825 58.2835L40.5532 58.0248V56.6154C40.5532 54.9737 40.5387 55.0093 41.2062 55.0093C41.6989 55.0093 41.8593 54.926 41.8593 54.6704C41.8593 54.4566 41.7262 54.4025 41.2443 54.4202C40.6504 54.4421 40.5964 54.3877 40.5532 53.7234L40.5169 53.168L40.2267 53.1522C40.067 53.1432 39.8957 53.1556 39.8456 53.1793ZM77.721 53.1812C77.663 53.2078 77.6302 53.3948 77.6302 53.701C77.6302 54.2617 77.5189 54.4365 77.1612 54.4365C76.89 54.4365 76.789 54.6019 76.9075 54.8516C76.962 54.9666 77.0602 55.0093 77.2688 55.0093C77.6302 55.0093 77.6221 54.9684 77.6471 56.8918C77.6749 59.0504 78.1311 59.6683 79.4012 59.2672C80.0332 59.0675 79.9598 58.4243 79.313 58.4958C78.9377 58.5372 78.8819 58.5216 78.699 58.3254L78.4979 58.1094L78.5176 56.5798L78.5372 55.0502L79.1024 55.0093C79.6574 54.9692 79.8029 54.8899 79.8059 54.6253C79.8078 54.4647 79.674 54.4191 79.2031 54.4204C78.5003 54.4223 78.501 54.4228 78.501 53.8202C78.501 53.1886 78.2167 52.9557 77.721 53.1812ZM13.0804 54.3577C12.7372 54.4344 12.0441 54.8194 11.9132 55.0062C11.5959 55.4585 11.5 55.8646 11.4967 56.7689C11.4925 57.9952 11.4895 57.986 12.1299 58.7666C12.9198 59.7295 15.8638 59.3621 15.3073 58.37C15.2509 58.2695 15.1904 58.2682 14.8913 58.361C13.3951 58.8249 12.3305 58.3418 12.3284 57.1985C12.328 56.934 12.1914 56.9546 14.0493 56.9395C15.579 56.9269 15.5516 56.9398 15.5346 56.2356C15.5007 54.8503 14.4557 54.0504 13.0804 54.3577ZM20.8537 54.3925C20.694 54.4521 20.4382 54.5763 20.2851 54.6681C19.9942 54.8427 19.8015 54.8276 19.8015 54.6304C19.8015 54.48 19.4552 54.3323 19.2432 54.3922C19.0014 54.4608 18.9974 54.5249 19.0194 57.9145L19.0397 61.0246H19.4386H19.8378L19.874 59.9468C19.9161 58.697 19.9119 58.7073 20.2696 58.981C22.0109 60.3139 23.8959 57.79 22.962 55.3754C22.6347 54.5288 21.6793 54.0834 20.8537 54.3925ZM27.674 54.364C26.9802 54.5423 26.622 54.7662 26.622 55.0215C26.622 55.3548 26.7553 55.3788 27.2643 55.1372C28.3163 54.6377 29.1615 54.9769 29.1615 55.8986C29.1615 56.4018 29.0668 56.4809 28.4589 56.4862C26.9949 56.4986 26.5565 56.7444 26.3966 57.6429C26.1546 59.0019 27.775 59.9001 28.8748 59.0166C29.129 58.8125 29.2796 58.8122 29.3268 59.0158C29.3708 59.2049 29.7154 59.3239 29.8803 59.2068C30.0549 59.0826 30.0898 55.6995 29.9214 55.1987C29.689 54.5082 28.6352 54.1169 27.674 54.364ZM35.2927 54.4107C35.173 54.4832 34.9972 54.6106 34.902 54.6939C34.6656 54.9012 34.5309 54.8854 34.5309 54.6504C34.5309 54.4352 34.2889 54.3463 33.9494 54.4368L33.7689 54.4848V56.8116V59.1382L33.9686 59.2173C34.0967 59.2682 34.2393 59.2685 34.3675 59.2176L34.5672 59.1387L34.6034 57.6126L34.6396 56.0866L34.8573 55.7398C35.1947 55.2024 35.4204 55.0502 35.881 55.0502C36.1543 55.0502 36.2988 55.0122 36.3463 54.9276C36.6173 54.4442 35.856 54.0707 35.2927 54.4107ZM46.0675 54.3867C45.2821 54.5837 44.8353 54.964 45.0736 55.2327C45.1774 55.3498 45.2225 55.3443 45.5732 55.1723C46.7723 54.5845 47.8137 55.1051 47.6315 56.2014L47.5848 56.4825L46.9895 56.4851C45.4888 56.492 45.0308 56.7228 44.8274 57.5746C44.4855 59.0066 45.9607 59.807 47.3921 58.966C47.6516 58.8136 47.7445 58.7898 47.7662 58.8708C47.8647 59.2384 47.8864 59.2651 48.088 59.2651C48.4616 59.2651 48.4738 59.1936 48.4487 57.1223C48.4233 55.0207 48.424 55.023 47.9453 54.6567C47.4653 54.2894 46.8232 54.1971 46.0675 54.3867ZM53.8736 54.4336C53.6774 54.5222 53.4831 54.6327 53.4419 54.6794C53.3225 54.8139 52.9605 54.7838 52.9605 54.6391C52.9605 54.4779 52.6381 54.34 52.4113 54.4043C52.2076 54.4621 52.2191 54.2841 52.2284 57.2958C52.2347 59.2811 52.2305 59.2614 52.6376 59.2637C53.0183 59.2659 53.0332 59.2007 53.0332 57.5419V56.0149L53.2902 55.6351C53.8612 54.7918 54.6 54.7506 54.98 55.5413C55.074 55.7367 55.1058 56.1299 55.1359 57.4628L55.1736 59.1387L55.363 59.2136C55.9349 59.4399 56.006 59.2237 56.0072 57.2576C56.0081 55.8282 56.0156 55.7973 56.4743 55.324C56.8823 54.9033 57.4529 54.8482 57.732 55.2026C57.978 55.5152 58.0397 55.9893 58.0397 57.5735C58.0397 59.2358 58.0479 59.2669 58.4884 59.2637C58.8719 59.2608 58.8745 59.2479 58.8693 57.2832C58.864 55.1631 58.8333 55.0204 58.3 54.6219C57.7372 54.2015 57.0591 54.1907 56.5159 54.5937C56.1989 54.8289 55.7972 55.0064 55.7553 54.9297C55.5037 54.4705 54.4223 54.1855 53.8736 54.4336ZM63.9532 54.3632C61.772 54.9189 61.7172 58.6137 63.8805 59.2593C64.8839 59.5586 66.2388 59.1548 66.2388 58.5564V58.2608L65.897 58.3135C65.709 58.3425 65.5229 58.4027 65.4834 58.4475C65.3157 58.6363 64.1202 58.5314 63.7426 58.2943C63.1667 57.9327 62.9656 56.9772 63.4634 56.9688C63.613 56.9662 64.3143 56.9561 65.0218 56.9461C65.8701 56.9343 66.3363 56.896 66.391 56.8343C66.6366 56.5574 66.2685 55.0286 65.9042 54.8113C65.8287 54.7662 65.6854 54.6699 65.5858 54.5969C65.1937 54.3105 64.5319 54.2158 63.9532 54.3632ZM71.7481 54.3838C71.6057 54.4352 71.4027 54.542 71.297 54.6206C71.0335 54.8173 70.8488 54.8002 70.6351 54.5591C70.4387 54.3376 70.2981 54.3073 70.0795 54.4394C69.8829 54.5581 69.8583 59.1306 70.054 59.2152C70.6578 59.4766 70.7373 59.2904 70.7373 57.6173C70.7373 55.7507 70.9262 55.282 71.7878 55.0099C72.6798 54.7282 72.9368 55.2628 72.9866 57.5036L73.0228 59.1387L73.2122 59.2136C73.3163 59.2548 73.4879 59.264 73.5931 59.2342L73.7849 59.1801V57.3633C73.7849 55.2253 73.7416 55.0064 73.2557 54.6831C72.6681 54.2917 72.2381 54.2065 71.7481 54.3838ZM84.3058 54.384C83.1149 54.7493 82.746 55.3353 82.7457 56.8607V57.8528L83.0219 58.3056C83.8292 59.6293 85.5768 59.7155 86.6432 58.4842C87.2944 57.7326 87.3377 55.7623 86.7202 54.988C86.3089 54.4724 85.047 54.1567 84.3058 54.384ZM14.022 54.965C14.5322 55.1702 14.9657 56.1961 14.6077 56.3509C14.3058 56.4814 12.4795 56.4034 12.41 56.257C12.0724 55.5452 13.206 54.6369 14.022 54.965ZM64.7913 54.9273C65.1656 55.0447 65.4848 55.431 65.5423 55.8364C65.6185 56.3741 65.5659 56.4007 64.434 56.3994C63.3035 56.3978 63.2256 56.3694 63.2908 55.9798C63.426 55.1723 64.0891 54.7074 64.7913 54.9273ZM6.35367 55.0977C6.96675 55.4323 7.10423 55.7491 7.10143 56.8216C7.09885 57.9016 7.08436 57.9359 6.479 58.2819C5.30991 58.9507 4.45577 57.9214 4.7761 56.2301C4.98163 55.1457 5.61224 54.6929 6.35367 55.0977ZM21.6915 55.1119C22.2035 55.5012 22.4511 57.0031 22.1399 57.8336C21.9127 58.4404 21.164 58.6799 20.6103 58.3228C20.4368 58.2109 20.2561 58.1192 20.2088 58.1192C19.8773 58.1192 19.7183 56.3005 20.0066 55.8074C20.4578 55.0357 21.1923 54.7324 21.6915 55.1119ZM85.524 55.0824C86.1756 55.4577 86.4368 56.4577 86.1817 57.6007C85.9112 58.8122 83.9076 58.8262 83.6506 57.6184C83.2671 55.8153 84.3203 54.3896 85.524 55.0824ZM29.1589 57.1318C29.2857 57.3987 29.2272 58.1192 29.079 58.1192C29.0427 58.1192 28.8793 58.2194 28.7154 58.3415C27.8849 58.9615 26.7775 58.1946 27.374 57.4124C27.6849 57.0047 29.0006 56.7979 29.1589 57.1318ZM47.6182 57.1576C47.7648 57.7747 47.6874 58.0103 47.2467 58.288C46.266 58.9061 45.2714 58.3383 45.7961 57.4599C46.078 56.9881 47.5209 56.7486 47.6182 57.1576ZM7.32402 62.6149C7.28217 62.7032 7.24897 63.3001 7.24897 63.9654C7.24897 64.6211 7.23634 65.1575 7.22091 65.1575C7.20524 65.1575 6.97376 65.042 6.70627 64.9006C6.10653 64.5841 5.42986 64.5965 4.95123 64.933C4.79831 65.0404 4.6171 65.1517 4.54836 65.1801C4.30355 65.2819 3.98392 66.4278 3.98392 67.2035C3.98392 69.2658 5.3873 70.3141 6.8323 69.3312C7.39884 68.9459 7.39417 68.9469 7.39417 69.2025C7.39417 69.6047 7.87817 69.7964 8.06336 69.4678C8.14964 69.3151 8.13163 62.7987 8.04465 62.6149C7.98994 62.4997 7.89197 62.4567 7.68434 62.4567C7.47671 62.4567 7.37874 62.4997 7.32402 62.6149ZM76.2409 62.9453C76.0969 63.0793 75.9645 63.2761 75.9463 63.3826C75.8497 63.952 76.3028 64.158 76.5203 63.6434C76.6582 63.3169 77.1509 63.2225 77.3445 63.4857C77.8631 64.1907 79.0102 63.9913 79.1943 63.1642C79.3058 62.6624 78.793 62.507 78.6146 62.9886C78.5213 63.2407 78.4771 63.275 78.248 63.275C78.0703 63.275 77.8673 63.1838 77.6104 62.9886C77.0997 62.6007 76.6276 62.5859 76.2409 62.9453ZM58.3825 63.4594C58.2946 63.5337 58.2565 63.7165 58.2415 64.1345L58.221 64.7073L57.9065 64.7545C57.3013 64.8458 57.3203 65.2403 57.9364 65.3843L58.221 65.451L58.2616 67.0431C58.3019 68.6244 58.3332 68.8818 58.5275 69.2217C58.8925 69.8607 60.434 69.8098 60.434 69.1587C60.434 68.8159 60.3716 68.7763 59.8977 68.819C59.159 68.886 59.1198 68.7871 59.1445 66.9242L59.1644 65.4439L59.7265 65.3988C60.3386 65.3497 60.4591 65.2777 60.4221 64.9826C60.3992 64.8004 60.362 64.7867 59.781 64.7482L59.1644 64.7073L59.1443 64.1754C59.1176 63.4607 58.7676 63.1318 58.3825 63.4594ZM12.7271 64.7382C11.8103 65.0132 11.4367 65.4357 11.2099 66.4529C10.7034 68.7273 12.4072 70.3215 14.5051 69.5356C15.2743 69.2473 15.3089 68.4509 14.5406 68.7151C13.1816 69.1827 12.0862 68.7618 12.0778 67.7686L12.074 67.3261L13.5789 67.3039C15.3732 67.2776 15.3419 67.2952 15.2159 66.3851C15.0384 65.1024 13.9388 64.3747 12.7271 64.7382ZM21.7969 64.7384C19.6844 65.3766 19.7819 69.3198 21.9185 69.6606C22.9031 69.8175 23.9261 69.327 23.8513 68.7336C23.8192 68.4812 23.5686 68.4633 23.096 68.6795C21.9538 69.2025 21.1801 68.5732 21.1801 67.1214C21.1801 65.5971 22.1593 64.8837 23.2562 65.6087C23.6525 65.8706 23.7921 65.8318 23.7921 65.4594C23.7921 64.937 22.5844 64.5005 21.7969 64.7384ZM28.0368 64.7165C26.972 65.0235 26.5696 65.5024 26.3632 66.7079C26.0688 68.4253 26.9844 69.688 28.519 69.6812C30.4237 69.673 31.3898 67.6584 30.4873 65.5765C30.2378 65.0011 28.8003 64.4966 28.0368 64.7165ZM35.2927 64.9032C34.7596 65.2081 34.62 65.2171 34.5309 64.9528C34.4542 64.7258 34.0579 64.6596 33.8924 64.8463C33.7067 65.0557 33.7752 69.38 33.9665 69.5311C34.5496 69.9918 34.6759 69.6846 34.6759 67.8082V66.215L34.9628 65.8883C35.6476 65.1079 36.4141 65.1886 36.6367 66.0644C36.6757 66.2177 36.7075 67.0315 36.7075 67.8733C36.7075 69.5422 36.7386 69.6585 37.1841 69.6585C37.539 69.6585 37.5783 69.4765 37.5783 67.8293V66.2994L37.8713 65.9407C38.3868 65.3099 38.9305 65.1751 39.3179 65.5823C39.5812 65.859 39.6216 66.1227 39.6637 67.8414C39.7091 69.6957 39.7201 69.7302 40.2284 69.6226L40.4685 69.5717L40.5204 68.9475C40.6275 67.6594 40.5012 65.8764 40.2639 65.3218C39.9915 64.6854 38.8584 64.5343 38.0073 65.0206L37.459 65.3339L37.2392 65.1844C37.1186 65.1021 36.9376 64.9692 36.8373 64.8893C36.4875 64.6108 35.7935 64.6171 35.2927 64.9032ZM45.6322 64.7358C45.5326 64.7687 45.2735 64.8937 45.0567 65.0132C44.6291 65.249 44.5688 65.2419 44.4687 64.9449C44.3815 64.6862 43.9372 64.6611 43.8198 64.9082C43.7698 65.014 43.7504 66.134 43.763 68.1993L43.782 71.33L43.9676 71.4473C44.1275 71.5486 44.1825 71.5491 44.3665 71.4494L44.5802 71.3342L44.6003 70.2508C44.6228 69.0461 44.6094 69.0677 45.1166 69.4232C45.9712 70.0224 47.0718 69.6424 47.6336 68.5537C48.0489 67.7488 47.9011 65.508 47.4127 65.2047C47.3344 65.1562 47.145 65.0319 46.992 64.9288C46.6953 64.7289 45.9661 64.6253 45.6322 64.7358ZM64.1707 64.72C63.7615 64.7906 63.1571 65.1809 63.1307 65.3919C63.0874 65.7369 63.2181 65.7683 63.7314 65.5364C64.8238 65.0433 65.5823 65.3004 65.6922 66.2013C65.7576 66.7388 65.7228 66.7934 65.3094 66.7981C63.7964 66.8155 63.191 67.0795 62.9357 67.8335C62.4891 69.1526 63.9832 70.1725 65.2858 69.4377C65.5095 69.3117 65.7176 69.1962 65.748 69.1811C65.7784 69.1661 65.8035 69.2112 65.8035 69.2816C65.8035 69.7827 66.4874 69.7057 66.5723 69.1951C66.6281 68.8589 66.5575 65.9935 66.4829 65.5728C66.3726 64.9507 65.2449 64.5346 64.1707 64.72ZM71.0639 64.7384C69.1882 65.2408 68.9121 68.497 70.6608 69.4926C71.4219 69.9259 71.5437 70.6271 70.8815 70.7632C70.1448 70.9149 70.0634 71.2055 70.6992 71.4138C71.5662 71.6981 72.5589 70.8553 72.0483 70.2682C71.8521 70.0427 71.93 69.7302 72.2101 69.62C72.76 69.4035 73.0591 69.1139 73.0591 68.7979C73.0591 68.4498 72.8365 68.4116 72.3508 68.6764C71.2222 69.2914 70.4027 68.563 70.4637 66.9988C70.5226 65.4818 71.3047 64.9109 72.4116 65.5765C72.8928 65.8658 73.0591 65.8455 73.0591 65.4974C73.0591 64.9631 71.8881 64.5179 71.0639 64.7384ZM76.8685 64.7387C76.0945 64.9043 75.6411 65.2951 75.8499 65.6171C75.9343 65.7474 75.9753 65.7414 76.4408 65.5299C77.5996 65.0037 78.3212 65.2928 78.3703 66.3031L78.3923 66.7533L78.1383 66.7717C76.0765 66.9228 75.5988 67.2003 75.5988 68.2465C75.5988 69.4694 76.8112 70.0825 77.9667 69.4443C78.2008 69.3148 78.4126 69.1983 78.4374 69.1851C78.4622 69.1716 78.4998 69.2355 78.5211 69.3267C78.6195 69.7513 79.1982 69.7081 79.2709 69.2705C79.353 68.7776 79.2487 65.8883 79.136 65.532C78.9331 64.8901 77.8809 64.5219 76.8685 64.7387ZM83.8697 64.7458C82.6622 65.0942 82.229 65.8268 82.29 67.4165C82.3482 68.9274 83.0679 69.6811 84.4507 69.6793C86.3122 69.6772 87.301 67.6874 86.4405 65.6752C86.1242 64.9349 84.8326 64.4681 83.8697 64.7458ZM50.9583 64.8428C50.8157 65.1029 50.9314 68.424 51.0953 68.7755C51.5503 69.7521 52.7508 69.9958 53.582 69.2806C53.8441 69.0553 54.0709 69.0672 54.0342 69.3043C53.9996 69.5282 54.3543 69.7144 54.5874 69.5944L54.7768 69.4971L54.7574 67.1431L54.7382 64.7891H54.3756H54.0127L53.9764 66.426C53.9351 68.2911 53.9414 68.2694 53.3283 68.6273C52.1405 69.3204 51.7271 68.7639 51.7271 66.4719C51.7271 65.6662 51.7072 64.9489 51.6832 64.8777C51.6303 64.7226 51.0397 64.6944 50.9583 64.8428ZM13.8113 65.4006C14.1765 65.6 14.3788 65.9898 14.3465 66.4331L14.3234 66.7533H13.1996C11.9013 66.7533 11.9087 66.7585 12.2043 66.0307C12.4952 65.3139 13.1688 65.0499 13.8113 65.4006ZM6.47245 65.4528C6.60035 65.5254 6.82716 65.7168 6.9768 65.8788L7.24897 66.1725V67.1663C7.24897 68.2758 7.2665 68.232 6.66208 68.6241C5.80934 69.1774 4.99776 68.7431 4.90143 67.6821C4.74687 65.9816 5.50608 64.9043 6.47245 65.4528ZM29.3336 65.5264C29.8569 65.913 30.1022 67.5191 29.743 68.2059C29.4009 68.8599 28.3754 69.0709 27.7406 68.6178C26.857 67.9872 27.0768 65.8432 28.0731 65.375C28.2875 65.2746 29.1295 65.3756 29.3336 65.5264ZM46.4393 65.5206C46.9238 65.8919 47.1426 66.9376 46.9376 67.9018C46.7484 68.7911 45.9742 69.1136 45.2099 68.6218C44.5982 68.228 44.6165 68.2713 44.6165 67.2077V66.2554L44.9249 65.9149C45.4736 65.3094 45.9887 65.1751 46.4393 65.5206ZM85.1255 65.456C85.9953 65.9616 86.1101 68.0292 85.3018 68.6334C84.316 69.3705 83.2321 68.7246 83.16 67.3572C83.0784 65.807 84.0736 64.8447 85.1255 65.456ZM65.5905 67.3699C65.8397 67.5205 65.7897 68.2908 65.5163 68.5102C64.8214 69.0683 64.2631 69.0922 63.881 68.5801C63.4667 68.0249 63.8903 67.4727 64.8069 67.3728C65.1354 67.3369 65.4146 67.3024 65.4272 67.2963C65.4399 67.2902 65.5133 67.3232 65.5905 67.3699ZM78.2424 67.3651C78.4107 67.4371 78.4285 67.4872 78.4285 67.8913C78.4285 68.3979 78.2912 68.5645 77.6478 68.8401C76.6568 69.2645 75.9713 68.073 76.8953 67.5331C77.232 67.3364 77.9627 67.2451 78.2424 67.3651Z"/>
<path d="M42.2084 1.49023C41.0928 1.58043 41.0248 1.73312 41.0248 4.14305C41.0248 6.6073 41.076 6.72465 42.1508 6.72465L42.7662 6.68351L44.171 6.6727L45.576 6.66189L45.8038 6.40528L46.0313 6.14894L46.0533 4.29574C46.0858 1.58069 46.0774 1.56856 44.1642 1.56856H42.9475L42.2084 1.49023Z"/>
<path d="M42.3524 8.27958C42.004 8.27958 41.5661 8.78356 41.4218 9.35109C41.3823 9.50643 41.3512 10.8467 41.3512 12.3929V15.1573L41.542 15.5033C42.0318 16.3931 42.2175 16.4569 44.3714 16.478C45.544 16.4896 46.2726 16.4131 46.4351 16.4131L47.0917 16.4485C48.395 16.5189 49.2044 16.0051 49.4326 14.9634L49.4834 14.7319L49.4633 10.8575L49.4343 10.1301C49.4013 9.29571 49.2234 8.78699 48.8631 8.49715C48.6477 8.32388 48.5848 8.31993 45.7049 8.29936L42.7662 8.27852L42.3524 8.27958Z"/>
</mask>
<path fill-rule="evenodd" clip-rule="evenodd" d="M55.443 3.81972C55.0576 4.00855 54.9879 4.31394 55.0289 5.6352L55.0639 6.76553L55.2833 6.99049L55.5023 7.21545H56.7575H58.0124L58.2256 6.96438L58.4386 6.71331V5.51178C58.4386 3.75036 58.3853 3.69445 56.7046 3.69972C55.9831 3.70183 55.6111 3.73744 55.443 3.81972ZM34.1905 10.2499C33.7778 10.5481 33.7184 10.886 33.7453 12.7882C33.782 15.3756 33.7385 15.3345 36.3935 15.3002L38.2199 15.2767L38.4146 15.0721C38.984 14.474 38.9686 10.7515 38.3945 10.242C38.1093 9.98905 34.5424 9.99564 34.1905 10.2499ZM7.17461 52.3549C7.13556 52.4704 7.10376 53.039 7.10376 53.6187C7.10376 54.7791 7.06518 54.8835 6.7369 54.6095C5.85447 53.8737 4.36341 54.4497 4.00707 55.6642C3.24248 58.2698 5.02278 60.2738 6.84563 58.8592C7.24546 58.5488 7.24897 58.549 7.24897 58.8951C7.24897 59.2247 7.48746 59.355 7.79844 59.1952C7.99789 59.0928 7.98362 59.47 7.9745 54.5626C7.96983 52.0574 7.98713 52.1484 7.51926 52.1463C7.29152 52.1453 7.23353 52.1803 7.17461 52.3549ZM39.8456 53.1793C39.7858 53.2078 39.7549 53.4114 39.7549 53.779C39.7549 54.3856 39.7172 54.4326 39.2267 54.4355C39.1128 54.436 39.0062 54.4914 38.9821 54.5623C38.9206 54.7427 39.1636 55.0093 39.389 55.0093C39.7374 55.0093 39.7549 55.0937 39.7563 56.7649C39.7577 58.8286 39.9342 59.2276 40.8866 59.3197C41.538 59.3827 41.8752 59.197 41.8452 58.7914L41.823 58.4876L41.4173 58.515C41.0439 58.5401 40.9939 58.5219 40.7825 58.2835L40.5532 58.0248V56.6154C40.5532 54.9737 40.5387 55.0093 41.2062 55.0093C41.6989 55.0093 41.8593 54.926 41.8593 54.6704C41.8593 54.4566 41.7262 54.4025 41.2443 54.4202C40.6504 54.4421 40.5964 54.3877 40.5532 53.7234L40.5169 53.168L40.2267 53.1522C40.067 53.1432 39.8957 53.1556 39.8456 53.1793ZM77.721 53.1812C77.663 53.2078 77.6302 53.3948 77.6302 53.701C77.6302 54.2617 77.5189 54.4365 77.1612 54.4365C76.89 54.4365 76.789 54.6019 76.9075 54.8516C76.962 54.9666 77.0602 55.0093 77.2688 55.0093C77.6302 55.0093 77.6221 54.9684 77.6471 56.8918C77.6749 59.0504 78.1311 59.6683 79.4012 59.2672C80.0332 59.0675 79.9598 58.4243 79.313 58.4958C78.9377 58.5372 78.8819 58.5216 78.699 58.3254L78.4979 58.1094L78.5176 56.5798L78.5372 55.0502L79.1024 55.0093C79.6574 54.9692 79.8029 54.8899 79.8059 54.6253C79.8078 54.4647 79.674 54.4191 79.2031 54.4204C78.5003 54.4223 78.501 54.4228 78.501 53.8202C78.501 53.1886 78.2167 52.9557 77.721 53.1812ZM13.0804 54.3577C12.7372 54.4344 12.0441 54.8194 11.9132 55.0062C11.5959 55.4585 11.5 55.8646 11.4967 56.7689C11.4925 57.9952 11.4895 57.986 12.1299 58.7666C12.9198 59.7295 15.8638 59.3621 15.3073 58.37C15.2509 58.2695 15.1904 58.2682 14.8913 58.361C13.3951 58.8249 12.3305 58.3418 12.3284 57.1985C12.328 56.934 12.1914 56.9546 14.0493 56.9395C15.579 56.9269 15.5516 56.9398 15.5346 56.2356C15.5007 54.8503 14.4557 54.0504 13.0804 54.3577ZM20.8537 54.3925C20.694 54.4521 20.4382 54.5763 20.2851 54.6681C19.9942 54.8427 19.8015 54.8276 19.8015 54.6304C19.8015 54.48 19.4552 54.3323 19.2432 54.3922C19.0014 54.4608 18.9974 54.5249 19.0194 57.9145L19.0397 61.0246H19.4386H19.8378L19.874 59.9468C19.9161 58.697 19.9119 58.7073 20.2696 58.981C22.0109 60.3139 23.8959 57.79 22.962 55.3754C22.6347 54.5288 21.6793 54.0834 20.8537 54.3925ZM27.674 54.364C26.9802 54.5423 26.622 54.7662 26.622 55.0215C26.622 55.3548 26.7553 55.3788 27.2643 55.1372C28.3163 54.6377 29.1615 54.9769 29.1615 55.8986C29.1615 56.4018 29.0668 56.4809 28.4589 56.4862C26.9949 56.4986 26.5565 56.7444 26.3966 57.6429C26.1546 59.0019 27.775 59.9001 28.8748 59.0166C29.129 58.8125 29.2796 58.8122 29.3268 59.0158C29.3708 59.2049 29.7154 59.3239 29.8803 59.2068C30.0549 59.0826 30.0898 55.6995 29.9214 55.1987C29.689 54.5082 28.6352 54.1169 27.674 54.364ZM35.2927 54.4107C35.173 54.4832 34.9972 54.6106 34.902 54.6939C34.6656 54.9012 34.5309 54.8854 34.5309 54.6504C34.5309 54.4352 34.2889 54.3463 33.9494 54.4368L33.7689 54.4848V56.8116V59.1382L33.9686 59.2173C34.0967 59.2682 34.2393 59.2685 34.3675 59.2176L34.5672 59.1387L34.6034 57.6126L34.6396 56.0866L34.8573 55.7398C35.1947 55.2024 35.4204 55.0502 35.881 55.0502C36.1543 55.0502 36.2988 55.0122 36.3463 54.9276C36.6173 54.4442 35.856 54.0707 35.2927 54.4107ZM46.0675 54.3867C45.2821 54.5837 44.8353 54.964 45.0736 55.2327C45.1774 55.3498 45.2225 55.3443 45.5732 55.1723C46.7723 54.5845 47.8137 55.1051 47.6315 56.2014L47.5848 56.4825L46.9895 56.4851C45.4888 56.492 45.0308 56.7228 44.8274 57.5746C44.4855 59.0066 45.9607 59.807 47.3921 58.966C47.6516 58.8136 47.7445 58.7898 47.7662 58.8708C47.8647 59.2384 47.8864 59.2651 48.088 59.2651C48.4616 59.2651 48.4738 59.1936 48.4487 57.1223C48.4233 55.0207 48.424 55.023 47.9453 54.6567C47.4653 54.2894 46.8232 54.1971 46.0675 54.3867ZM53.8736 54.4336C53.6774 54.5222 53.4831 54.6327 53.4419 54.6794C53.3225 54.8139 52.9605 54.7838 52.9605 54.6391C52.9605 54.4779 52.6381 54.34 52.4113 54.4043C52.2076 54.4621 52.2191 54.2841 52.2284 57.2958C52.2347 59.2811 52.2305 59.2614 52.6376 59.2637C53.0183 59.2659 53.0332 59.2007 53.0332 57.5419V56.0149L53.2902 55.6351C53.8612 54.7918 54.6 54.7506 54.98 55.5413C55.074 55.7367 55.1058 56.1299 55.1359 57.4628L55.1736 59.1387L55.363 59.2136C55.9349 59.4399 56.006 59.2237 56.0072 57.2576C56.0081 55.8282 56.0156 55.7973 56.4743 55.324C56.8823 54.9033 57.4529 54.8482 57.732 55.2026C57.978 55.5152 58.0397 55.9893 58.0397 57.5735C58.0397 59.2358 58.0479 59.2669 58.4884 59.2637C58.8719 59.2608 58.8745 59.2479 58.8693 57.2832C58.864 55.1631 58.8333 55.0204 58.3 54.6219C57.7372 54.2015 57.0591 54.1907 56.5159 54.5937C56.1989 54.8289 55.7972 55.0064 55.7553 54.9297C55.5037 54.4705 54.4223 54.1855 53.8736 54.4336ZM63.9532 54.3632C61.772 54.9189 61.7172 58.6137 63.8805 59.2593C64.8839 59.5586 66.2388 59.1548 66.2388 58.5564V58.2608L65.897 58.3135C65.709 58.3425 65.5229 58.4027 65.4834 58.4475C65.3157 58.6363 64.1202 58.5314 63.7426 58.2943C63.1667 57.9327 62.9656 56.9772 63.4634 56.9688C63.613 56.9662 64.3143 56.9561 65.0218 56.9461C65.8701 56.9343 66.3363 56.896 66.391 56.8343C66.6366 56.5574 66.2685 55.0286 65.9042 54.8113C65.8287 54.7662 65.6854 54.6699 65.5858 54.5969C65.1937 54.3105 64.5319 54.2158 63.9532 54.3632ZM71.7481 54.3838C71.6057 54.4352 71.4027 54.542 71.297 54.6206C71.0335 54.8173 70.8488 54.8002 70.6351 54.5591C70.4387 54.3376 70.2981 54.3073 70.0795 54.4394C69.8829 54.5581 69.8583 59.1306 70.054 59.2152C70.6578 59.4766 70.7373 59.2904 70.7373 57.6173C70.7373 55.7507 70.9262 55.282 71.7878 55.0099C72.6798 54.7282 72.9368 55.2628 72.9866 57.5036L73.0228 59.1387L73.2122 59.2136C73.3163 59.2548 73.4879 59.264 73.5931 59.2342L73.7849 59.1801V57.3633C73.7849 55.2253 73.7416 55.0064 73.2557 54.6831C72.6681 54.2917 72.2381 54.2065 71.7481 54.3838ZM84.3058 54.384C83.1149 54.7493 82.746 55.3353 82.7457 56.8607V57.8528L83.0219 58.3056C83.8292 59.6293 85.5768 59.7155 86.6432 58.4842C87.2944 57.7326 87.3377 55.7623 86.7202 54.988C86.3089 54.4724 85.047 54.1567 84.3058 54.384ZM14.022 54.965C14.5322 55.1702 14.9657 56.1961 14.6077 56.3509C14.3058 56.4814 12.4795 56.4034 12.41 56.257C12.0724 55.5452 13.206 54.6369 14.022 54.965ZM64.7913 54.9273C65.1656 55.0447 65.4848 55.431 65.5423 55.8364C65.6185 56.3741 65.5659 56.4007 64.434 56.3994C63.3035 56.3978 63.2256 56.3694 63.2908 55.9798C63.426 55.1723 64.0891 54.7074 64.7913 54.9273ZM6.35367 55.0977C6.96675 55.4323 7.10423 55.7491 7.10143 56.8216C7.09885 57.9016 7.08436 57.9359 6.479 58.2819C5.30991 58.9507 4.45577 57.9214 4.7761 56.2301C4.98163 55.1457 5.61224 54.6929 6.35367 55.0977ZM21.6915 55.1119C22.2035 55.5012 22.4511 57.0031 22.1399 57.8336C21.9127 58.4404 21.164 58.6799 20.6103 58.3228C20.4368 58.2109 20.2561 58.1192 20.2088 58.1192C19.8773 58.1192 19.7183 56.3005 20.0066 55.8074C20.4578 55.0357 21.1923 54.7324 21.6915 55.1119ZM85.524 55.0824C86.1756 55.4577 86.4368 56.4577 86.1817 57.6007C85.9112 58.8122 83.9076 58.8262 83.6506 57.6184C83.2671 55.8153 84.3203 54.3896 85.524 55.0824ZM29.1589 57.1318C29.2857 57.3987 29.2272 58.1192 29.079 58.1192C29.0427 58.1192 28.8793 58.2194 28.7154 58.3415C27.8849 58.9615 26.7775 58.1946 27.374 57.4124C27.6849 57.0047 29.0006 56.7979 29.1589 57.1318ZM47.6182 57.1576C47.7648 57.7747 47.6874 58.0103 47.2467 58.288C46.266 58.9061 45.2714 58.3383 45.7961 57.4599C46.078 56.9881 47.5209 56.7486 47.6182 57.1576ZM7.32402 62.6149C7.28217 62.7032 7.24897 63.3001 7.24897 63.9654C7.24897 64.6211 7.23634 65.1575 7.22091 65.1575C7.20524 65.1575 6.97376 65.042 6.70627 64.9006C6.10653 64.5841 5.42986 64.5965 4.95123 64.933C4.79831 65.0404 4.6171 65.1517 4.54836 65.1801C4.30355 65.2819 3.98392 66.4278 3.98392 67.2035C3.98392 69.2658 5.3873 70.3141 6.8323 69.3312C7.39884 68.9459 7.39417 68.9469 7.39417 69.2025C7.39417 69.6047 7.87817 69.7964 8.06336 69.4678C8.14964 69.3151 8.13163 62.7987 8.04465 62.6149C7.98994 62.4997 7.89197 62.4567 7.68434 62.4567C7.47671 62.4567 7.37874 62.4997 7.32402 62.6149ZM76.2409 62.9453C76.0969 63.0793 75.9645 63.2761 75.9463 63.3826C75.8497 63.952 76.3028 64.158 76.5203 63.6434C76.6582 63.3169 77.1509 63.2225 77.3445 63.4857C77.8631 64.1907 79.0102 63.9913 79.1943 63.1642C79.3058 62.6624 78.793 62.507 78.6146 62.9886C78.5213 63.2407 78.4771 63.275 78.248 63.275C78.0703 63.275 77.8673 63.1838 77.6104 62.9886C77.0997 62.6007 76.6276 62.5859 76.2409 62.9453ZM58.3825 63.4594C58.2946 63.5337 58.2565 63.7165 58.2415 64.1345L58.221 64.7073L57.9065 64.7545C57.3013 64.8458 57.3203 65.2403 57.9364 65.3843L58.221 65.451L58.2616 67.0431C58.3019 68.6244 58.3332 68.8818 58.5275 69.2217C58.8925 69.8607 60.434 69.8098 60.434 69.1587C60.434 68.8159 60.3716 68.7763 59.8977 68.819C59.159 68.886 59.1198 68.7871 59.1445 66.9242L59.1644 65.4439L59.7265 65.3988C60.3386 65.3497 60.4591 65.2777 60.4221 64.9826C60.3992 64.8004 60.362 64.7867 59.781 64.7482L59.1644 64.7073L59.1443 64.1754C59.1176 63.4607 58.7676 63.1318 58.3825 63.4594ZM12.7271 64.7382C11.8103 65.0132 11.4367 65.4357 11.2099 66.4529C10.7034 68.7273 12.4072 70.3215 14.5051 69.5356C15.2743 69.2473 15.3089 68.4509 14.5406 68.7151C13.1816 69.1827 12.0862 68.7618 12.0778 67.7686L12.074 67.3261L13.5789 67.3039C15.3732 67.2776 15.3419 67.2952 15.2159 66.3851C15.0384 65.1024 13.9388 64.3747 12.7271 64.7382ZM21.7969 64.7384C19.6844 65.3766 19.7819 69.3198 21.9185 69.6606C22.9031 69.8175 23.9261 69.327 23.8513 68.7336C23.8192 68.4812 23.5686 68.4633 23.096 68.6795C21.9538 69.2025 21.1801 68.5732 21.1801 67.1214C21.1801 65.5971 22.1593 64.8837 23.2562 65.6087C23.6525 65.8706 23.7921 65.8318 23.7921 65.4594C23.7921 64.937 22.5844 64.5005 21.7969 64.7384ZM28.0368 64.7165C26.972 65.0235 26.5696 65.5024 26.3632 66.7079C26.0688 68.4253 26.9844 69.688 28.519 69.6812C30.4237 69.673 31.3898 67.6584 30.4873 65.5765C30.2378 65.0011 28.8003 64.4966 28.0368 64.7165ZM35.2927 64.9032C34.7596 65.2081 34.62 65.2171 34.5309 64.9528C34.4542 64.7258 34.0579 64.6596 33.8924 64.8463C33.7067 65.0557 33.7752 69.38 33.9665 69.5311C34.5496 69.9918 34.6759 69.6846 34.6759 67.8082V66.215L34.9628 65.8883C35.6476 65.1079 36.4141 65.1886 36.6367 66.0644C36.6757 66.2177 36.7075 67.0315 36.7075 67.8733C36.7075 69.5422 36.7386 69.6585 37.1841 69.6585C37.539 69.6585 37.5783 69.4765 37.5783 67.8293V66.2994L37.8713 65.9407C38.3868 65.3099 38.9305 65.1751 39.3179 65.5823C39.5812 65.859 39.6216 66.1227 39.6637 67.8414C39.7091 69.6957 39.7201 69.7302 40.2284 69.6226L40.4685 69.5717L40.5204 68.9475C40.6275 67.6594 40.5012 65.8764 40.2639 65.3218C39.9915 64.6854 38.8584 64.5343 38.0073 65.0206L37.459 65.3339L37.2392 65.1844C37.1186 65.1021 36.9376 64.9692 36.8373 64.8893C36.4875 64.6108 35.7935 64.6171 35.2927 64.9032ZM45.6322 64.7358C45.5326 64.7687 45.2735 64.8937 45.0567 65.0132C44.6291 65.249 44.5688 65.2419 44.4687 64.9449C44.3815 64.6862 43.9372 64.6611 43.8198 64.9082C43.7698 65.014 43.7504 66.134 43.763 68.1993L43.782 71.33L43.9676 71.4473C44.1275 71.5486 44.1825 71.5491 44.3665 71.4494L44.5802 71.3342L44.6003 70.2508C44.6228 69.0461 44.6094 69.0677 45.1166 69.4232C45.9712 70.0224 47.0718 69.6424 47.6336 68.5537C48.0489 67.7488 47.9011 65.508 47.4127 65.2047C47.3344 65.1562 47.145 65.0319 46.992 64.9288C46.6953 64.7289 45.9661 64.6253 45.6322 64.7358ZM64.1707 64.72C63.7615 64.7906 63.1571 65.1809 63.1307 65.3919C63.0874 65.7369 63.2181 65.7683 63.7314 65.5364C64.8238 65.0433 65.5823 65.3004 65.6922 66.2013C65.7576 66.7388 65.7228 66.7934 65.3094 66.7981C63.7964 66.8155 63.191 67.0795 62.9357 67.8335C62.4891 69.1526 63.9832 70.1725 65.2858 69.4377C65.5095 69.3117 65.7176 69.1962 65.748 69.1811C65.7784 69.1661 65.8035 69.2112 65.8035 69.2816C65.8035 69.7827 66.4874 69.7057 66.5723 69.1951C66.6281 68.8589 66.5575 65.9935 66.4829 65.5728C66.3726 64.9507 65.2449 64.5346 64.1707 64.72ZM71.0639 64.7384C69.1882 65.2408 68.9121 68.497 70.6608 69.4926C71.4219 69.9259 71.5437 70.6271 70.8815 70.7632C70.1448 70.9149 70.0634 71.2055 70.6992 71.4138C71.5662 71.6981 72.5589 70.8553 72.0483 70.2682C71.8521 70.0427 71.93 69.7302 72.2101 69.62C72.76 69.4035 73.0591 69.1139 73.0591 68.7979C73.0591 68.4498 72.8365 68.4116 72.3508 68.6764C71.2222 69.2914 70.4027 68.563 70.4637 66.9988C70.5226 65.4818 71.3047 64.9109 72.4116 65.5765C72.8928 65.8658 73.0591 65.8455 73.0591 65.4974C73.0591 64.9631 71.8881 64.5179 71.0639 64.7384ZM76.8685 64.7387C76.0945 64.9043 75.6411 65.2951 75.8499 65.6171C75.9343 65.7474 75.9753 65.7414 76.4408 65.5299C77.5996 65.0037 78.3212 65.2928 78.3703 66.3031L78.3923 66.7533L78.1383 66.7717C76.0765 66.9228 75.5988 67.2003 75.5988 68.2465C75.5988 69.4694 76.8112 70.0825 77.9667 69.4443C78.2008 69.3148 78.4126 69.1983 78.4374 69.1851C78.4622 69.1716 78.4998 69.2355 78.5211 69.3267C78.6195 69.7513 79.1982 69.7081 79.2709 69.2705C79.353 68.7776 79.2487 65.8883 79.136 65.532C78.9331 64.8901 77.8809 64.5219 76.8685 64.7387ZM83.8697 64.7458C82.6622 65.0942 82.229 65.8268 82.29 67.4165C82.3482 68.9274 83.0679 69.6811 84.4507 69.6793C86.3122 69.6772 87.301 67.6874 86.4405 65.6752C86.1242 64.9349 84.8326 64.4681 83.8697 64.7458ZM50.9583 64.8428C50.8157 65.1029 50.9314 68.424 51.0953 68.7755C51.5503 69.7521 52.7508 69.9958 53.582 69.2806C53.8441 69.0553 54.0709 69.0672 54.0342 69.3043C53.9996 69.5282 54.3543 69.7144 54.5874 69.5944L54.7768 69.4971L54.7574 67.1431L54.7382 64.7891H54.3756H54.0127L53.9764 66.426C53.9351 68.2911 53.9414 68.2694 53.3283 68.6273C52.1405 69.3204 51.7271 68.7639 51.7271 66.4719C51.7271 65.6662 51.7072 64.9489 51.6832 64.8777C51.6303 64.7226 51.0397 64.6944 50.9583 64.8428ZM13.8113 65.4006C14.1765 65.6 14.3788 65.9898 14.3465 66.4331L14.3234 66.7533H13.1996C11.9013 66.7533 11.9087 66.7585 12.2043 66.0307C12.4952 65.3139 13.1688 65.0499 13.8113 65.4006ZM6.47245 65.4528C6.60035 65.5254 6.82716 65.7168 6.9768 65.8788L7.24897 66.1725V67.1663C7.24897 68.2758 7.2665 68.232 6.66208 68.6241C5.80934 69.1774 4.99776 68.7431 4.90143 67.6821C4.74687 65.9816 5.50608 64.9043 6.47245 65.4528ZM29.3336 65.5264C29.8569 65.913 30.1022 67.5191 29.743 68.2059C29.4009 68.8599 28.3754 69.0709 27.7406 68.6178C26.857 67.9872 27.0768 65.8432 28.0731 65.375C28.2875 65.2746 29.1295 65.3756 29.3336 65.5264ZM46.4393 65.5206C46.9238 65.8919 47.1426 66.9376 46.9376 67.9018C46.7484 68.7911 45.9742 69.1136 45.2099 68.6218C44.5982 68.228 44.6165 68.2713 44.6165 67.2077V66.2554L44.9249 65.9149C45.4736 65.3094 45.9887 65.1751 46.4393 65.5206ZM85.1255 65.456C85.9953 65.9616 86.1101 68.0292 85.3018 68.6334C84.316 69.3705 83.2321 68.7246 83.16 67.3572C83.0784 65.807 84.0736 64.8447 85.1255 65.456ZM65.5905 67.3699C65.8397 67.5205 65.7897 68.2908 65.5163 68.5102C64.8214 69.0683 64.2631 69.0922 63.881 68.5801C63.4667 68.0249 63.8903 67.4727 64.8069 67.3728C65.1354 67.3369 65.4146 67.3024 65.4272 67.2963C65.4399 67.2902 65.5133 67.3232 65.5905 67.3699ZM78.2424 67.3651C78.4107 67.4371 78.4285 67.4872 78.4285 67.8913C78.4285 68.3979 78.2912 68.5645 77.6478 68.8401C76.6568 69.2645 75.9713 68.073 76.8953 67.5331C77.232 67.3364 77.9627 67.2451 78.2424 67.3651Z" fill="#4DAEB0"/>
<path d="M42.2084 1.49023C41.0928 1.58043 41.0248 1.73312 41.0248 4.14305C41.0248 6.6073 41.076 6.72465 42.1508 6.72465L42.7662 6.68351L44.171 6.6727L45.576 6.66189L45.8038 6.40528L46.0313 6.14894L46.0533 4.29574C46.0858 1.58069 46.0774 1.56856 44.1642 1.56856H42.9475L42.2084 1.49023Z" fill="#4DAEB0"/>
<path d="M42.3524 8.27958C42.004 8.27958 41.5661 8.78356 41.4218 9.35109C41.3823 9.50643 41.3512 10.8467 41.3512 12.3929V15.1573L41.542 15.5033C42.0318 16.3931 42.2175 16.4569 44.3714 16.478C45.544 16.4896 46.2726 16.4131 46.4351 16.4131L47.0917 16.4485C48.395 16.5189 49.2044 16.0051 49.4326 14.9634L49.4834 14.7319L49.4633 10.8575L49.4343 10.1301C49.4013 9.29571 49.2234 8.78699 48.8631 8.49715C48.6477 8.32388 48.5848 8.31993 45.7049 8.29936L42.7662 8.27852L42.3524 8.27958Z" fill="#4DAEB0"/>
<path fill-rule="evenodd" clip-rule="evenodd" d="M55.443 3.81972C55.0576 4.00855 54.9879 4.31394 55.0289 5.6352L55.0639 6.76553L55.2833 6.99049L55.5023 7.21545H56.7575H58.0124L58.2256 6.96438L58.4386 6.71331V5.51178C58.4386 3.75036 58.3853 3.69445 56.7046 3.69972C55.9831 3.70183 55.6111 3.73744 55.443 3.81972ZM34.1905 10.2499C33.7778 10.5481 33.7184 10.886 33.7453 12.7882C33.782 15.3756 33.7385 15.3345 36.3935 15.3002L38.2199 15.2767L38.4146 15.0721C38.984 14.474 38.9686 10.7515 38.3945 10.242C38.1093 9.98905 34.5424 9.99564 34.1905 10.2499ZM7.17461 52.3549C7.13556 52.4704 7.10376 53.039 7.10376 53.6187C7.10376 54.7791 7.06518 54.8835 6.7369 54.6095C5.85447 53.8737 4.36341 54.4497 4.00707 55.6642C3.24248 58.2698 5.02278 60.2738 6.84563 58.8592C7.24546 58.5488 7.24897 58.549 7.24897 58.8951C7.24897 59.2247 7.48746 59.355 7.79844 59.1952C7.99789 59.0928 7.98362 59.47 7.9745 54.5626C7.96983 52.0574 7.98713 52.1484 7.51926 52.1463C7.29152 52.1453 7.23353 52.1803 7.17461 52.3549ZM39.8456 53.1793C39.7858 53.2078 39.7549 53.4114 39.7549 53.779C39.7549 54.3856 39.7172 54.4326 39.2267 54.4355C39.1128 54.436 39.0062 54.4914 38.9821 54.5623C38.9206 54.7427 39.1636 55.0093 39.389 55.0093C39.7374 55.0093 39.7549 55.0937 39.7563 56.7649C39.7577 58.8286 39.9342 59.2276 40.8866 59.3197C41.538 59.3827 41.8752 59.197 41.8452 58.7914L41.823 58.4876L41.4173 58.515C41.0439 58.5401 40.9939 58.5219 40.7825 58.2835L40.5532 58.0248V56.6154C40.5532 54.9737 40.5387 55.0093 41.2062 55.0093C41.6989 55.0093 41.8593 54.926 41.8593 54.6704C41.8593 54.4566 41.7262 54.4025 41.2443 54.4202C40.6504 54.4421 40.5964 54.3877 40.5532 53.7234L40.5169 53.168L40.2267 53.1522C40.067 53.1432 39.8957 53.1556 39.8456 53.1793ZM77.721 53.1812C77.663 53.2078 77.6302 53.3948 77.6302 53.701C77.6302 54.2617 77.5189 54.4365 77.1612 54.4365C76.89 54.4365 76.789 54.6019 76.9075 54.8516C76.962 54.9666 77.0602 55.0093 77.2688 55.0093C77.6302 55.0093 77.6221 54.9684 77.6471 56.8918C77.6749 59.0504 78.1311 59.6683 79.4012 59.2672C80.0332 59.0675 79.9598 58.4243 79.313 58.4958C78.9377 58.5372 78.8819 58.5216 78.699 58.3254L78.4979 58.1094L78.5176 56.5798L78.5372 55.0502L79.1024 55.0093C79.6574 54.9692 79.8029 54.8899 79.8059 54.6253C79.8078 54.4647 79.674 54.4191 79.2031 54.4204C78.5003 54.4223 78.501 54.4228 78.501 53.8202C78.501 53.1886 78.2167 52.9557 77.721 53.1812ZM13.0804 54.3577C12.7372 54.4344 12.0441 54.8194 11.9132 55.0062C11.5959 55.4585 11.5 55.8646 11.4967 56.7689C11.4925 57.9952 11.4895 57.986 12.1299 58.7666C12.9198 59.7295 15.8638 59.3621 15.3073 58.37C15.2509 58.2695 15.1904 58.2682 14.8913 58.361C13.3951 58.8249 12.3305 58.3418 12.3284 57.1985C12.328 56.934 12.1914 56.9546 14.0493 56.9395C15.579 56.9269 15.5516 56.9398 15.5346 56.2356C15.5007 54.8503 14.4557 54.0504 13.0804 54.3577ZM20.8537 54.3925C20.694 54.4521 20.4382 54.5763 20.2851 54.6681C19.9942 54.8427 19.8015 54.8276 19.8015 54.6304C19.8015 54.48 19.4552 54.3323 19.2432 54.3922C19.0014 54.4608 18.9974 54.5249 19.0194 57.9145L19.0397 61.0246H19.4386H19.8378L19.874 59.9468C19.9161 58.697 19.9119 58.7073 20.2696 58.981C22.0109 60.3139 23.8959 57.79 22.962 55.3754C22.6347 54.5288 21.6793 54.0834 20.8537 54.3925ZM27.674 54.364C26.9802 54.5423 26.622 54.7662 26.622 55.0215C26.622 55.3548 26.7553 55.3788 27.2643 55.1372C28.3163 54.6377 29.1615 54.9769 29.1615 55.8986C29.1615 56.4018 29.0668 56.4809 28.4589 56.4862C26.9949 56.4986 26.5565 56.7444 26.3966 57.6429C26.1546 59.0019 27.775 59.9001 28.8748 59.0166C29.129 58.8125 29.2796 58.8122 29.3268 59.0158C29.3708 59.2049 29.7154 59.3239 29.8803 59.2068C30.0549 59.0826 30.0898 55.6995 29.9214 55.1987C29.689 54.5082 28.6352 54.1169 27.674 54.364ZM35.2927 54.4107C35.173 54.4832 34.9972 54.6106 34.902 54.6939C34.6656 54.9012 34.5309 54.8854 34.5309 54.6504C34.5309 54.4352 34.2889 54.3463 33.9494 54.4368L33.7689 54.4848V56.8116V59.1382L33.9686 59.2173C34.0967 59.2682 34.2393 59.2685 34.3675 59.2176L34.5672 59.1387L34.6034 57.6126L34.6396 56.0866L34.8573 55.7398C35.1947 55.2024 35.4204 55.0502 35.881 55.0502C36.1543 55.0502 36.2988 55.0122 36.3463 54.9276C36.6173 54.4442 35.856 54.0707 35.2927 54.4107ZM46.0675 54.3867C45.2821 54.5837 44.8353 54.964 45.0736 55.2327C45.1774 55.3498 45.2225 55.3443 45.5732 55.1723C46.7723 54.5845 47.8137 55.1051 47.6315 56.2014L47.5848 56.4825L46.9895 56.4851C45.4888 56.492 45.0308 56.7228 44.8274 57.5746C44.4855 59.0066 45.9607 59.807 47.3921 58.966C47.6516 58.8136 47.7445 58.7898 47.7662 58.8708C47.8647 59.2384 47.8864 59.2651 48.088 59.2651C48.4616 59.2651 48.4738 59.1936 48.4487 57.1223C48.4233 55.0207 48.424 55.023 47.9453 54.6567C47.4653 54.2894 46.8232 54.1971 46.0675 54.3867ZM53.8736 54.4336C53.6774 54.5222 53.4831 54.6327 53.4419 54.6794C53.3225 54.8139 52.9605 54.7838 52.9605 54.6391C52.9605 54.4779 52.6381 54.34 52.4113 54.4043C52.2076 54.4621 52.2191 54.2841 52.2284 57.2958C52.2347 59.2811 52.2305 59.2614 52.6376 59.2637C53.0183 59.2659 53.0332 59.2007 53.0332 57.5419V56.0149L53.2902 55.6351C53.8612 54.7918 54.6 54.7506 54.98 55.5413C55.074 55.7367 55.1058 56.1299 55.1359 57.4628L55.1736 59.1387L55.363 59.2136C55.9349 59.4399 56.006 59.2237 56.0072 57.2576C56.0081 55.8282 56.0156 55.7973 56.4743 55.324C56.8823 54.9033 57.4529 54.8482 57.732 55.2026C57.978 55.5152 58.0397 55.9893 58.0397 57.5735C58.0397 59.2358 58.0479 59.2669 58.4884 59.2637C58.8719 59.2608 58.8745 59.2479 58.8693 57.2832C58.864 55.1631 58.8333 55.0204 58.3 54.6219C57.7372 54.2015 57.0591 54.1907 56.5159 54.5937C56.1989 54.8289 55.7972 55.0064 55.7553 54.9297C55.5037 54.4705 54.4223 54.1855 53.8736 54.4336ZM63.9532 54.3632C61.772 54.9189 61.7172 58.6137 63.8805 59.2593C64.8839 59.5586 66.2388 59.1548 66.2388 58.5564V58.2608L65.897 58.3135C65.709 58.3425 65.5229 58.4027 65.4834 58.4475C65.3157 58.6363 64.1202 58.5314 63.7426 58.2943C63.1667 57.9327 62.9656 56.9772 63.4634 56.9688C63.613 56.9662 64.3143 56.9561 65.0218 56.9461C65.8701 56.9343 66.3363 56.896 66.391 56.8343C66.6366 56.5574 66.2685 55.0286 65.9042 54.8113C65.8287 54.7662 65.6854 54.6699 65.5858 54.5969C65.1937 54.3105 64.5319 54.2158 63.9532 54.3632ZM71.7481 54.3838C71.6057 54.4352 71.4027 54.542 71.297 54.6206C71.0335 54.8173 70.8488 54.8002 70.6351 54.5591C70.4387 54.3376 70.2981 54.3073 70.0795 54.4394C69.8829 54.5581 69.8583 59.1306 70.054 59.2152C70.6578 59.4766 70.7373 59.2904 70.7373 57.6173C70.7373 55.7507 70.9262 55.282 71.7878 55.0099C72.6798 54.7282 72.9368 55.2628 72.9866 57.5036L73.0228 59.1387L73.2122 59.2136C73.3163 59.2548 73.4879 59.264 73.5931 59.2342L73.7849 59.1801V57.3633C73.7849 55.2253 73.7416 55.0064 73.2557 54.6831C72.6681 54.2917 72.2381 54.2065 71.7481 54.3838ZM84.3058 54.384C83.1149 54.7493 82.746 55.3353 82.7457 56.8607V57.8528L83.0219 58.3056C83.8292 59.6293 85.5768 59.7155 86.6432 58.4842C87.2944 57.7326 87.3377 55.7623 86.7202 54.988C86.3089 54.4724 85.047 54.1567 84.3058 54.384ZM14.022 54.965C14.5322 55.1702 14.9657 56.1961 14.6077 56.3509C14.3058 56.4814 12.4795 56.4034 12.41 56.257C12.0724 55.5452 13.206 54.6369 14.022 54.965ZM64.7913 54.9273C65.1656 55.0447 65.4848 55.431 65.5423 55.8364C65.6185 56.3741 65.5659 56.4007 64.434 56.3994C63.3035 56.3978 63.2256 56.3694 63.2908 55.9798C63.426 55.1723 64.0891 54.7074 64.7913 54.9273ZM6.35367 55.0977C6.96675 55.4323 7.10423 55.7491 7.10143 56.8216C7.09885 57.9016 7.08436 57.9359 6.479 58.2819C5.30991 58.9507 4.45577 57.9214 4.7761 56.2301C4.98163 55.1457 5.61224 54.6929 6.35367 55.0977ZM21.6915 55.1119C22.2035 55.5012 22.4511 57.0031 22.1399 57.8336C21.9127 58.4404 21.164 58.6799 20.6103 58.3228C20.4368 58.2109 20.2561 58.1192 20.2088 58.1192C19.8773 58.1192 19.7183 56.3005 20.0066 55.8074C20.4578 55.0357 21.1923 54.7324 21.6915 55.1119ZM85.524 55.0824C86.1756 55.4577 86.4368 56.4577 86.1817 57.6007C85.9112 58.8122 83.9076 58.8262 83.6506 57.6184C83.2671 55.8153 84.3203 54.3896 85.524 55.0824ZM29.1589 57.1318C29.2857 57.3987 29.2272 58.1192 29.079 58.1192C29.0427 58.1192 28.8793 58.2194 28.7154 58.3415C27.8849 58.9615 26.7775 58.1946 27.374 57.4124C27.6849 57.0047 29.0006 56.7979 29.1589 57.1318ZM47.6182 57.1576C47.7648 57.7747 47.6874 58.0103 47.2467 58.288C46.266 58.9061 45.2714 58.3383 45.7961 57.4599C46.078 56.9881 47.5209 56.7486 47.6182 57.1576ZM7.32402 62.6149C7.28217 62.7032 7.24897 63.3001 7.24897 63.9654C7.24897 64.6211 7.23634 65.1575 7.22091 65.1575C7.20524 65.1575 6.97376 65.042 6.70627 64.9006C6.10653 64.5841 5.42986 64.5965 4.95123 64.933C4.79831 65.0404 4.6171 65.1517 4.54836 65.1801C4.30355 65.2819 3.98392 66.4278 3.98392 67.2035C3.98392 69.2658 5.3873 70.3141 6.8323 69.3312C7.39884 68.9459 7.39417 68.9469 7.39417 69.2025C7.39417 69.6047 7.87817 69.7964 8.06336 69.4678C8.14964 69.3151 8.13163 62.7987 8.04465 62.6149C7.98994 62.4997 7.89197 62.4567 7.68434 62.4567C7.47671 62.4567 7.37874 62.4997 7.32402 62.6149ZM76.2409 62.9453C76.0969 63.0793 75.9645 63.2761 75.9463 63.3826C75.8497 63.952 76.3028 64.158 76.5203 63.6434C76.6582 63.3169 77.1509 63.2225 77.3445 63.4857C77.8631 64.1907 79.0102 63.9913 79.1943 63.1642C79.3058 62.6624 78.793 62.507 78.6146 62.9886C78.5213 63.2407 78.4771 63.275 78.248 63.275C78.0703 63.275 77.8673 63.1838 77.6104 62.9886C77.0997 62.6007 76.6276 62.5859 76.2409 62.9453ZM58.3825 63.4594C58.2946 63.5337 58.2565 63.7165 58.2415 64.1345L58.221 64.7073L57.9065 64.7545C57.3013 64.8458 57.3203 65.2403 57.9364 65.3843L58.221 65.451L58.2616 67.0431C58.3019 68.6244 58.3332 68.8818 58.5275 69.2217C58.8925 69.8607 60.434 69.8098 60.434 69.1587C60.434 68.8159 60.3716 68.7763 59.8977 68.819C59.159 68.886 59.1198 68.7871 59.1445 66.9242L59.1644 65.4439L59.7265 65.3988C60.3386 65.3497 60.4591 65.2777 60.4221 64.9826C60.3992 64.8004 60.362 64.7867 59.781 64.7482L59.1644 64.7073L59.1443 64.1754C59.1176 63.4607 58.7676 63.1318 58.3825 63.4594ZM12.7271 64.7382C11.8103 65.0132 11.4367 65.4357 11.2099 66.4529C10.7034 68.7273 12.4072 70.3215 14.5051 69.5356C15.2743 69.2473 15.3089 68.4509 14.5406 68.7151C13.1816 69.1827 12.0862 68.7618 12.0778 67.7686L12.074 67.3261L13.5789 67.3039C15.3732 67.2776 15.3419 67.2952 15.2159 66.3851C15.0384 65.1024 13.9388 64.3747 12.7271 64.7382ZM21.7969 64.7384C19.6844 65.3766 19.7819 69.3198 21.9185 69.6606C22.9031 69.8175 23.9261 69.327 23.8513 68.7336C23.8192 68.4812 23.5686 68.4633 23.096 68.6795C21.9538 69.2025 21.1801 68.5732 21.1801 67.1214C21.1801 65.5971 22.1593 64.8837 23.2562 65.6087C23.6525 65.8706 23.7921 65.8318 23.7921 65.4594C23.7921 64.937 22.5844 64.5005 21.7969 64.7384ZM28.0368 64.7165C26.972 65.0235 26.5696 65.5024 26.3632 66.7079C26.0688 68.4253 26.9844 69.688 28.519 69.6812C30.4237 69.673 31.3898 67.6584 30.4873 65.5765C30.2378 65.0011 28.8003 64.4966 28.0368 64.7165ZM35.2927 64.9032C34.7596 65.2081 34.62 65.2171 34.5309 64.9528C34.4542 64.7258 34.0579 64.6596 33.8924 64.8463C33.7067 65.0557 33.7752 69.38 33.9665 69.5311C34.5496 69.9918 34.6759 69.6846 34.6759 67.8082V66.215L34.9628 65.8883C35.6476 65.1079 36.4141 65.1886 36.6367 66.0644C36.6757 66.2177 36.7075 67.0315 36.7075 67.8733C36.7075 69.5422 36.7386 69.6585 37.1841 69.6585C37.539 69.6585 37.5783 69.4765 37.5783 67.8293V66.2994L37.8713 65.9407C38.3868 65.3099 38.9305 65.1751 39.3179 65.5823C39.5812 65.859 39.6216 66.1227 39.6637 67.8414C39.7091 69.6957 39.7201 69.7302 40.2284 69.6226L40.4685 69.5717L40.5204 68.9475C40.6275 67.6594 40.5012 65.8764 40.2639 65.3218C39.9915 64.6854 38.8584 64.5343 38.0073 65.0206L37.459 65.3339L37.2392 65.1844C37.1186 65.1021 36.9376 64.9692 36.8373 64.8893C36.4875 64.6108 35.7935 64.6171 35.2927 64.9032ZM45.6322 64.7358C45.5326 64.7687 45.2735 64.8937 45.0567 65.0132C44.6291 65.249 44.5688 65.2419 44.4687 64.9449C44.3815 64.6862 43.9372 64.6611 43.8198 64.9082C43.7698 65.014 43.7504 66.134 43.763 68.1993L43.782 71.33L43.9676 71.4473C44.1275 71.5486 44.1825 71.5491 44.3665 71.4494L44.5802 71.3342L44.6003 70.2508C44.6228 69.0461 44.6094 69.0677 45.1166 69.4232C45.9712 70.0224 47.0718 69.6424 47.6336 68.5537C48.0489 67.7488 47.9011 65.508 47.4127 65.2047C47.3344 65.1562 47.145 65.0319 46.992 64.9288C46.6953 64.7289 45.9661 64.6253 45.6322 64.7358ZM64.1707 64.72C63.7615 64.7906 63.1571 65.1809 63.1307 65.3919C63.0874 65.7369 63.2181 65.7683 63.7314 65.5364C64.8238 65.0433 65.5823 65.3004 65.6922 66.2013C65.7576 66.7388 65.7228 66.7934 65.3094 66.7981C63.7964 66.8155 63.191 67.0795 62.9357 67.8335C62.4891 69.1526 63.9832 70.1725 65.2858 69.4377C65.5095 69.3117 65.7176 69.1962 65.748 69.1811C65.7784 69.1661 65.8035 69.2112 65.8035 69.2816C65.8035 69.7827 66.4874 69.7057 66.5723 69.1951C66.6281 68.8589 66.5575 65.9935 66.4829 65.5728C66.3726 64.9507 65.2449 64.5346 64.1707 64.72ZM71.0639 64.7384C69.1882 65.2408 68.9121 68.497 70.6608 69.4926C71.4219 69.9259 71.5437 70.6271 70.8815 70.7632C70.1448 70.9149 70.0634 71.2055 70.6992 71.4138C71.5662 71.6981 72.5589 70.8553 72.0483 70.2682C71.8521 70.0427 71.93 69.7302 72.2101 69.62C72.76 69.4035 73.0591 69.1139 73.0591 68.7979C73.0591 68.4498 72.8365 68.4116 72.3508 68.6764C71.2222 69.2914 70.4027 68.563 70.4637 66.9988C70.5226 65.4818 71.3047 64.9109 72.4116 65.5765C72.8928 65.8658 73.0591 65.8455 73.0591 65.4974C73.0591 64.9631 71.8881 64.5179 71.0639 64.7384ZM76.8685 64.7387C76.0945 64.9043 75.6411 65.2951 75.8499 65.6171C75.9343 65.7474 75.9753 65.7414 76.4408 65.5299C77.5996 65.0037 78.3212 65.2928 78.3703 66.3031L78.3923 66.7533L78.1383 66.7717C76.0765 66.9228 75.5988 67.2003 75.5988 68.2465C75.5988 69.4694 76.8112 70.0825 77.9667 69.4443C78.2008 69.3148 78.4126 69.1983 78.4374 69.1851C78.4622 69.1716 78.4998 69.2355 78.5211 69.3267C78.6195 69.7513 79.1982 69.7081 79.2709 69.2705C79.353 68.7776 79.2487 65.8883 79.136 65.532C78.9331 64.8901 77.8809 64.5219 76.8685 64.7387ZM83.8697 64.7458C82.6622 65.0942 82.229 65.8268 82.29 67.4165C82.3482 68.9274 83.0679 69.6811 84.4507 69.6793C86.3122 69.6772 87.301 67.6874 86.4405 65.6752C86.1242 64.9349 84.8326 64.4681 83.8697 64.7458ZM50.9583 64.8428C50.8157 65.1029 50.9314 68.424 51.0953 68.7755C51.5503 69.7521 52.7508 69.9958 53.582 69.2806C53.8441 69.0553 54.0709 69.0672 54.0342 69.3043C53.9996 69.5282 54.3543 69.7144 54.5874 69.5944L54.7768 69.4971L54.7574 67.1431L54.7382 64.7891H54.3756H54.0127L53.9764 66.426C53.9351 68.2911 53.9414 68.2694 53.3283 68.6273C52.1405 69.3204 51.7271 68.7639 51.7271 66.4719C51.7271 65.6662 51.7072 64.9489 51.6832 64.8777C51.6303 64.7226 51.0397 64.6944 50.9583 64.8428ZM13.8113 65.4006C14.1765 65.6 14.3788 65.9898 14.3465 66.4331L14.3234 66.7533H13.1996C11.9013 66.7533 11.9087 66.7585 12.2043 66.0307C12.4952 65.3139 13.1688 65.0499 13.8113 65.4006ZM6.47245 65.4528C6.60035 65.5254 6.82716 65.7168 6.9768 65.8788L7.24897 66.1725V67.1663C7.24897 68.2758 7.2665 68.232 6.66208 68.6241C5.80934 69.1774 4.99776 68.7431 4.90143 67.6821C4.74687 65.9816 5.50608 64.9043 6.47245 65.4528ZM29.3336 65.5264C29.8569 65.913 30.1022 67.5191 29.743 68.2059C29.4009 68.8599 28.3754 69.0709 27.7406 68.6178C26.857 67.9872 27.0768 65.8432 28.0731 65.375C28.2875 65.2746 29.1295 65.3756 29.3336 65.5264ZM46.4393 65.5206C46.9238 65.8919 47.1426 66.9376 46.9376 67.9018C46.7484 68.7911 45.9742 69.1136 45.2099 68.6218C44.5982 68.228 44.6165 68.2713 44.6165 67.2077V66.2554L44.9249 65.9149C45.4736 65.3094 45.9887 65.1751 46.4393 65.5206ZM85.1255 65.456C85.9953 65.9616 86.1101 68.0292 85.3018 68.6334C84.316 69.3705 83.2321 68.7246 83.16 67.3572C83.0784 65.807 84.0736 64.8447 85.1255 65.456ZM65.5905 67.3699C65.8397 67.5205 65.7897 68.2908 65.5163 68.5102C64.8214 69.0683 64.2631 69.0922 63.881 68.5801C63.4667 68.0249 63.8903 67.4727 64.8069 67.3728C65.1354 67.3369 65.4146 67.3024 65.4272 67.2963C65.4399 67.2902 65.5133 67.3232 65.5905 67.3699ZM78.2424 67.3651C78.4107 67.4371 78.4285 67.4872 78.4285 67.8913C78.4285 68.3979 78.2912 68.5645 77.6478 68.8401C76.6568 69.2645 75.9713 68.073 76.8953 67.5331C77.232 67.3364 77.9627 67.2451 78.2424 67.3651Z" stroke="white" stroke-opacity="0.2" mask="url(#path-2-inside-2_238_242)"/>
<path d="M42.2084 1.49023C41.0928 1.58043 41.0248 1.73312 41.0248 4.14305C41.0248 6.6073 41.076 6.72465 42.1508 6.72465L42.7662 6.68351L44.171 6.6727L45.576 6.66189L45.8038 6.40528L46.0313 6.14894L46.0533 4.29574C46.0858 1.58069 46.0774 1.56856 44.1642 1.56856H42.9475L42.2084 1.49023Z" stroke="white" stroke-opacity="0.2" mask="url(#path-2-inside-2_238_242)"/>
<path d="M42.3524 8.27958C42.004 8.27958 41.5661 8.78356 41.4218 9.35109C41.3823 9.50643 41.3512 10.8467 41.3512 12.3929V15.1573L41.542 15.5033C42.0318 16.3931 42.2175 16.4569 44.3714 16.478C45.544 16.4896 46.2726 16.4131 46.4351 16.4131L47.0917 16.4485C48.395 16.5189 49.2044 16.0051 49.4326 14.9634L49.4834 14.7319L49.4633 10.8575L49.4343 10.1301C49.4013 9.29571 49.2234 8.78699 48.8631 8.49715C48.6477 8.32388 48.5848 8.31993 45.7049 8.29936L42.7662 8.27852L42.3524 8.27958Z" stroke="white" stroke-opacity="0.2" mask="url(#path-2-inside-2_238_242)"/>
</g>
<defs>
<clipPath id="clip0_238_242">
<rect width="100" height="71.5847" fill="white"/>
</clipPath>
</defs>
</svg>
