<svg width="394" height="320" viewBox="0 0 394 320" fill="none" xmlns="http://www.w3.org/2000/svg">
<path opacity="0.18" d="M386.253 196.811C379.291 209.431 366.683 219.283 363.184 233.178C361.676 239.172 362.023 245.482 361.247 251.59C358.506 273.078 341.759 290.989 321.797 301.14C320.956 301.579 320.106 302.019 319.266 302.388C306.155 308.54 291.967 311.897 277.495 313.997C268.697 315.254 259.798 316.054 251 316.731C214.266 319.52 177.481 320.536 140.643 319.78C122.846 319.429 104.692 318.62 87.9547 312.934C87.0959 312.653 86.2462 312.345 85.3966 312.055C71.8201 306.984 59.7603 298.653 49.0892 289.117L48.5958 288.678C32.6805 274.37 19.5152 257.039 11.0094 237.783C-1.12735 210.226 -3.23598 179.534 5.02515 150.68C10.0592 133.524 18.8483 117.16 20.2096 99.3897C21.2328 86.0312 17.9621 72.4968 20.1365 59.27C24.4122 32.9747 49.7927 13.631 76.5984 7.16267C103.404 0.694295 131.608 4.32397 158.98 8.04153C172.346 9.87833 187.996 14.7823 201.235 10.8539C217.507 6.03774 231.183 0.0351542 248.743 0C255.906 0 263.206 0.720661 269.757 3.51542C277.705 6.85507 284.009 12.9192 290.468 18.456C308.494 33.9941 329.051 46.5793 347.469 61.6956C365.888 76.812 382.589 95.1712 389.368 117.521C392.685 128.445 393.498 139.931 393.854 151.304C394.357 166.842 393.836 183.083 386.253 196.811Z" fill="#489152"/>
</svg>
