<svg width="26" height="27" viewBox="0 0 26 27" fill="none" xmlns="http://www.w3.org/2000/svg">
<path d="M17.7232 15.778C17.8098 15.063 17.8748 14.348 17.8748 13.6113C17.8748 12.8746 17.8098 12.1596 17.7232 11.4446H21.3848C21.5582 12.138 21.6665 12.8638 21.6665 13.6113C21.6665 14.3588 21.5582 15.0846 21.3848 15.778H17.7232ZM15.8057 21.8013C16.4557 20.5988 16.954 19.2988 17.3007 17.9446H20.4965C19.4469 19.7519 17.7818 21.1209 15.8057 21.8013ZM15.5348 15.778H10.4648C10.3565 15.063 10.2915 14.348 10.2915 13.6113C10.2915 12.8746 10.3565 12.1488 10.4648 11.4446H15.5348C15.6323 12.1488 15.7082 12.8746 15.7082 13.6113C15.7082 14.348 15.6323 15.063 15.5348 15.778ZM12.9998 22.2346C12.1007 20.9346 11.3748 19.4938 10.9307 17.9446H15.069C14.6248 19.4938 13.899 20.9346 12.9998 22.2346ZM8.6665 9.27795H5.50317C6.54193 7.46577 8.20587 6.09456 10.1832 5.42129C9.53317 6.62379 9.04567 7.92379 8.6665 9.27795ZM5.50317 17.9446H8.6665C9.04567 19.2988 9.53317 20.5988 10.1832 21.8013C8.21001 21.1206 6.54842 19.7513 5.50317 17.9446ZM4.61484 15.778C4.4415 15.0846 4.33317 14.3588 4.33317 13.6113C4.33317 12.8638 4.4415 12.138 4.61484 11.4446H8.2765C8.18984 12.1596 8.12484 12.8746 8.12484 13.6113C8.12484 14.348 8.18984 15.063 8.2765 15.778H4.61484ZM12.9998 4.97712C13.899 6.27712 14.6248 7.72879 15.069 9.27795H10.9307C11.3748 7.72879 12.1007 6.27712 12.9998 4.97712ZM20.4965 9.27795H17.3007C16.9616 7.9362 16.4595 6.64101 15.8057 5.42129C17.799 6.10379 19.4565 7.47962 20.4965 9.27795ZM12.9998 2.77795C7.009 2.77795 2.1665 7.65295 2.1665 13.6113C2.1665 16.4845 3.30787 19.24 5.33951 21.2716C6.34548 22.2776 7.53974 23.0756 8.8541 23.62C10.1685 24.1644 11.5772 24.4446 12.9998 24.4446C15.873 24.4446 18.6285 23.3033 20.6602 21.2716C22.6918 19.24 23.8332 16.4845 23.8332 13.6113C23.8332 12.1886 23.553 10.7799 23.0085 9.46555C22.4641 8.15119 21.6661 6.95693 20.6602 5.95096C19.6542 4.945 18.4599 4.14702 17.1456 3.60259C15.8312 3.05817 14.4225 2.77795 12.9998 2.77795Z" fill="#313B44"/>
</svg>
