<svg width="472" height="454" viewBox="0 0 472 454" fill="none" xmlns="http://www.w3.org/2000/svg">
<path d="M284.162 174.328C289.406 172.52 295.35 172.73 300.551 174.622C329.176 185.131 358.808 193.665 389.051 200.054C405.745 203.585 424.582 206.192 439.135 198.373C452.683 191.1 458.452 175.799 454.956 162.515C451.459 149.231 440.009 138.134 426.199 131.198C412.388 124.262 396.436 121.025 380.528 119.301C374.191 118.629 367.723 118.124 361.91 115.98C356.054 113.836 350.81 109.675 349.805 104.336C348.625 98.0724 353.345 92.1872 354.699 85.9658C356.797 76.2972 350.329 66.4606 341.239 60.3652C332.148 54.3119 320.742 51.3272 309.553 48.805C266.986 39.2206 222.714 34.0921 178.748 36.32C167.385 36.9085 153.881 39.2206 149.598 48.1745C145.796 56.0774 151.565 65.0313 159.038 70.7484C166.511 76.4654 175.82 80.3328 182.507 86.6804C187.576 91.4726 189.631 100.721 182.551 103.075C178.792 104.336 174.684 102.697 171.1 101.141C146.582 90.6739 120.273 83.2754 93.2638 79.2398C82.9061 77.6845 72.2424 76.6756 61.8846 78.1889C51.5268 79.7022 41.3438 84.0741 35.4875 91.5146C25.6105 104 30.4616 121.151 39.5957 134.014C53.5809 153.687 77.0498 168.358 103.359 173.907C109.478 175.21 115.771 176.051 121.365 178.489C126.959 180.927 131.811 185.425 132.029 190.764C132.248 195.977 127.921 200.727 122.633 203.417C117.345 206.108 111.182 207.201 105.195 208.378C94.1379 210.606 82.9061 213.632 74.2527 219.896C65.5994 226.159 60.049 236.332 63.152 245.58C67.5661 258.654 85.572 263.951 101.087 267.314C159.825 280.093 219.742 292.956 280.272 289.509C297.36 288.542 317.289 284.465 323.845 271.055C328.39 261.807 324.762 251.129 319.78 242.049C313.356 230.405 304.615 219.644 294.126 210.353C288.925 205.771 283.244 201.484 279.529 195.935C275.858 190.386 274.59 183.197 278.611 177.817C279.791 176.261 281.889 175.084 284.162 174.328Z" fill="#F7F7F7"/>
<path d="M450.454 331.252C437.911 350.127 419.512 365.302 398.359 374.55C392.765 376.988 387.04 379.048 381.14 380.603C354 387.918 324.282 385.732 298.627 374.55H303.304C313.137 377.114 323.495 376.904 333.416 374.55C347.925 371.103 361.561 362.99 371.438 352.102C389.138 332.555 396.087 305.778 396.305 279.841C396.349 273.325 396.043 266.599 398.403 260.462C400.763 254.324 406.619 248.859 413.393 249.196C419.818 249.49 425.019 254.913 426.898 260.882C428.777 266.809 428.034 273.199 427.335 279.336C425.805 292.158 424.276 304.979 422.746 317.8C426.373 313.26 430.176 308.552 435.42 305.778C440.665 303.003 447.745 302.625 452.202 306.45C459.239 312.419 455.524 323.601 450.454 331.252Z" fill="#CA973C"/>
<path d="M446.565 327.427C432.71 348.193 413.175 365.218 390.449 376.652C365.276 389.347 336.606 394.518 308.33 391.869C292.334 390.356 276.645 386.362 262.004 380.057C261.873 380.435 261.785 380.856 261.654 381.234C262.747 381.234 263.839 381.234 264.932 381.234C266.899 381.234 268.472 381.57 270.395 381.949C276.339 383.21 282.501 383.672 288.576 383.42C299.808 382.957 310.908 380.057 321.048 375.391C340.583 366.437 355.792 351.093 365.669 332.723C375.546 314.353 380.222 293.713 381.315 273.157C381.621 267.566 381.49 261.975 381.665 256.384C381.839 250.415 382.451 244.151 385.336 238.812C387.696 234.399 391.629 230.447 396.611 228.808C401.812 227.126 407.231 228.597 411.252 232.045C421.872 241.209 419.119 256.3 417.676 268.365C415.972 282.657 414.268 296.95 412.563 311.2C412.476 311.915 413.437 311.957 413.787 311.537C418.113 306.114 422.659 300.439 428.996 297.076C434.415 294.217 441.67 293.335 447.133 296.613C458.408 303.55 452.028 319.103 446.565 327.427C446.128 328.099 447.264 328.73 447.701 328.057C452.596 320.617 457.403 309.771 452.989 301.153C448.182 291.695 435.333 291.821 427.116 296.74C421.216 300.271 416.846 305.693 412.65 310.948C413.044 311.074 413.481 311.158 413.874 311.284C415.448 298.253 416.977 285.179 418.55 272.148C419.862 261.05 422.877 248.019 417.239 237.551C413.044 229.859 404.128 224.478 395.169 228.093C385.642 231.918 381.665 241.839 380.703 251.045C380.135 256.804 380.397 262.647 380.266 268.407C380.135 273.913 379.698 279.378 379.042 284.843C377.688 295.689 375.24 306.408 371.482 316.707C363.965 337.347 350.766 356.18 331.58 368.329C320.436 375.391 307.63 380.225 294.388 381.738C287.09 382.579 279.66 382.453 272.405 381.108C270.308 380.73 268.297 380.015 266.156 380.015C264.67 380.015 263.184 380.015 261.654 380.015C261.042 380.015 260.693 380.94 261.305 381.192C287.133 392.332 316.109 396.241 344.123 392.374C371.525 388.59 397.485 377.072 418.594 359.879C429.826 350.715 439.659 339.954 447.613 328.057C448.138 327.385 447.002 326.754 446.565 327.427Z" fill="#CA973C"/>
<path d="M115.596 395.569C85.0909 393.971 58.5191 375.643 35.662 356.138C31.0294 352.186 26.2657 347.899 24.0805 342.308C21.8954 336.717 23.0317 329.444 28.2761 326.249C35.9679 321.625 48.3798 327.3 53.9739 320.448C57.9072 315.572 54.7605 308.552 51.5702 303.213C45.8013 293.629 40.0324 284.002 34.2635 274.418C28.7568 265.254 23.3813 253.273 30.068 244.908C34.2198 239.695 41.6494 238.14 48.4672 237.719C58.1694 237.173 69.0517 238.812 75.0391 246.169C81.0702 253.567 80.1087 263.993 80.0213 273.409C79.7591 299.052 88.5435 324.736 104.583 345.25C120.622 365.764 143.916 380.94 169.614 387.708C146.407 389.641 138.803 393.677 115.596 395.569Z" fill="#CA973C"/>
<path d="M137.973 394.938C117.607 393.803 98.3771 386.615 81.0267 376.61C72.0674 371.439 63.5452 365.554 55.3726 359.333C47.6371 353.405 39.683 347.268 32.8215 340.416C26.2223 333.816 20.7156 324.19 25.3482 315.026C29.4563 306.955 39.1586 307.627 47.0689 307.543C53.9741 307.501 62.0593 306.198 64.026 298.631C66.2986 289.93 59.2186 280.808 54.9793 273.745C49.0793 263.909 43.0919 254.072 37.2356 244.235C32.5593 236.374 27.7082 227.042 28.7134 217.71C29.806 207.579 38.8089 202.408 48.38 200.811C57.2519 199.34 67.1726 199.55 75.6512 202.619C85.1786 206.066 90.86 213.632 92.5208 223.175C94.1378 232.675 92.783 242.47 93.2637 252.054C94.2252 271.559 99.3386 290.812 108.079 308.468C124.774 342.224 155.104 368.791 191.379 382.075C195.836 383.714 200.338 385.101 204.927 386.32C204.97 385.9 205.058 385.48 205.102 385.101C182.463 387.077 160.567 393.088 137.973 394.938C137.142 395.022 137.142 396.283 137.973 396.199C160.567 394.308 182.463 388.338 205.058 386.489C205.757 386.447 205.976 385.438 205.233 385.27C165.725 374.718 131.504 348.613 112.231 313.722C102.048 295.31 96.0171 274.796 94.706 253.988C93.6571 237.173 99.1637 214.011 80.9393 203.754C73.466 199.55 64.3756 198.583 55.8971 198.919C47.5497 199.256 37.9786 200.811 32.1223 207.117C26.0037 213.716 26.5719 222.88 29.2815 230.783C32.6467 240.62 38.8089 249.448 44.1845 258.36C47.2 263.362 50.2156 268.365 53.1874 273.367C56.0282 278.117 59.2623 282.783 61.36 287.912C63.2393 292.494 64.2882 298.169 60.6608 302.246C57.9949 305.273 53.843 306.03 49.9097 306.24C42.5675 306.618 33.8267 305.105 27.7519 310.023C21.7645 314.857 21.1963 323.811 24.0808 330.411C28.0141 339.449 36.7986 345.923 44.3593 352.102C52.0075 358.408 59.9178 364.461 68.1778 370.01C84.9163 381.234 103.447 390.608 123.638 394.434C128.402 395.316 133.209 395.905 138.06 396.199C138.847 396.241 138.803 394.98 137.973 394.938Z" fill="#CA973C"/>
<path d="M346.527 184.332C350.329 183.113 359.288 184.164 362.872 184.332C366.193 184.501 383.762 187.191 392.416 186.644C393.683 186.56 394.863 187.401 395.082 188.62C395.169 189.209 394.994 189.545 394.994 189.545C394.994 189.545 382.845 199.508 380.616 200.18C372.137 202.745 363.79 200.853 360.031 202.871C356.273 204.889 348.362 210.437 346.57 210.437C346.133 210.437 345.522 210.269 344.91 210.059C342.419 209.176 340.452 207.285 339.403 204.931L334.945 194.968L346.527 184.332Z" fill="#0E592C"/>
<path d="M341.151 197.574C338.747 197.154 309.029 199.466 304.877 199.466C301.949 199.466 290.062 196.103 282.064 194.211C281.146 194.001 280.185 193.833 279.223 193.749C275.727 193.455 272.23 194.169 269.128 195.809C258.245 201.526 236.699 213.128 227.784 208.672C216.508 203.039 226.429 173.823 252.739 172.898C257.765 172.058 268.166 171.511 281.277 172.1C300.507 172.94 325.549 176.261 347.882 184.837C351.815 189.209 343.555 197.995 341.151 197.574Z" fill="#FFC197"/>
<path d="M341.151 197.574C338.748 197.154 309.029 199.466 304.877 199.466C301.949 199.466 290.062 196.103 282.064 194.211C281.146 194.001 280.185 193.833 279.223 193.749C278.262 188.074 277.868 179.876 281.234 172.1C300.463 172.94 325.506 176.261 347.838 184.837C351.815 189.209 343.555 197.994 341.151 197.574Z" fill="#CA973C"/>
<path d="M241.026 295.436C239.846 295.857 235.126 296.109 228.483 296.235C205.801 296.613 160.961 295.436 160.961 295.436C160.961 295.436 153.094 292.326 158.514 283.75C191.685 270.971 210.827 275.343 219.568 278.117C219.874 278.201 220.223 278.243 220.485 278.201C221.753 278.033 222.627 276.688 221.971 275.427C219.611 270.929 210.74 264.161 206.238 254.45C206.238 254.45 227.216 220.484 235.825 228.808C244.435 237.089 245.921 274.166 248.5 279.42C251.078 284.675 246.183 293.503 241.026 295.436Z" fill="#FFC197"/>
<path d="M179.797 202.829C185.828 226.159 208.773 261.723 210.783 264.749C221.971 255.921 236.874 235.533 242.294 237.173C238.841 228.639 222.54 193.286 209.647 193.16C196.711 193.076 184.037 190.47 179.797 202.829Z" fill="#0E592C"/>
<path d="M283.899 145.112C291.416 148.811 308.898 155.495 313.05 165.71C298.016 170.292 276.033 156.546 273.848 154.444C271.619 152.342 283.899 145.112 283.899 145.112Z" fill="#FFB380"/>
<path d="M173.591 124.766C154.624 129.264 109.215 157.387 100.081 163.02C95.8858 169.998 103.578 171.343 103.578 171.343C103.578 171.343 158.994 149.778 184.298 139.143C192.034 135.78 173.591 124.766 173.591 124.766Z" fill="#FFC197"/>
<path d="M291.285 146.289C290.936 146.625 290.324 147.172 289.581 147.802C288.881 148.391 288.007 149.105 287.09 149.862C284.118 152.3 280.359 155.285 277.868 157.219C277.169 157.765 276.557 158.227 276.12 158.606C275.552 159.026 275.202 159.32 275.202 159.32L257.153 150.913C257.153 150.913 256.191 152.426 254.749 154.822C252.214 158.942 248.15 165.668 244.741 171.763C244.61 171.974 244.478 172.226 244.391 172.436C243.954 173.193 243.561 173.949 243.167 174.664C241.201 178.363 239.627 181.558 239.059 183.45C239.059 183.45 235.213 183.618 229.532 184.08C216.464 185.131 193.607 187.737 184.211 193.202C183.512 191.773 183.031 190.091 182.769 188.284C182.157 184.164 182.638 179.288 183.643 174.244C184.954 167.644 187.227 160.792 189.368 155.285C191.99 148.433 194.35 143.599 194.35 143.599C194.35 143.599 178.267 143.893 171.537 145.784C171.056 145.742 170.532 145.49 170.095 145.07C166.904 142.253 164.37 131.828 164.37 127.919C164.37 127.456 164.413 127.078 164.501 126.826C165.113 126.91 168.041 126.237 172.28 125.144C172.367 125.144 172.411 125.102 172.499 125.102C172.892 125.018 173.285 124.892 173.679 124.808C187.445 121.277 212.225 114.257 216.552 113.416C221.403 112.491 226.036 115.434 233.946 118.713C234.776 119.049 235.65 119.385 236.524 119.764C237.355 120.1 238.229 120.394 239.147 120.688C239.147 120.688 239.584 120.899 240.327 121.235C240.764 121.445 241.332 121.697 241.987 122.034C242.381 122.202 242.818 122.412 243.255 122.622C243.473 122.748 243.736 122.832 243.998 122.958C248.718 125.186 256.366 128.844 264.189 132.585C275.858 138.218 288.007 144.187 291.285 146.289Z" fill="#489152"/>
<path d="M240.064 119.974L234.295 123.841C234.295 123.841 240.152 135.78 242.206 137.335C245.178 137.839 247.275 136.999 247.275 136.999L251.646 128.97L240.064 119.974Z" fill="#FFC197"/>
<path d="M264.932 102.276C265.325 98.8291 262.135 95.3821 262.135 95.3821C262.135 95.3821 257.328 90.0013 251.777 90.758C246.183 91.5147 236.612 93.8267 233.028 96.5171C229.445 99.2074 231.848 115.728 233.028 117.62C234.208 119.553 241.026 124.514 241.026 124.514L264.932 102.276Z" fill="#313B44"/>
<path d="M267.729 119.974C267.729 128.886 264.626 135.317 257.371 135.317C242.905 131.996 240.196 128.465 240.196 119.595C240.196 110.684 237.792 102.318 254.574 103.874C260.955 102.697 266.549 91.5567 267.729 119.974Z" fill="#FFD1AE"/>
<path d="M265.85 101.393C264.233 104.084 258.77 108.203 258.77 108.203C258.77 108.203 240.414 109.338 238.011 106.27C235.607 103.201 241.988 99.7539 241.988 99.7539L251.952 99.3756L264.102 98.3246L265.85 101.393Z" fill="#313B44"/>
<path d="M244.566 106.9C242.949 109.212 241.769 113.038 241.769 113.416C241.769 113.794 242.556 119.932 242.556 119.932L240.152 119.175C240.152 119.175 230.581 101.898 240.152 102.276C249.767 102.697 244.566 106.9 244.566 106.9Z" fill="#313B44"/>
<path d="M241.059 122.807C242.397 122.161 242.585 119.922 241.481 117.805C240.376 115.689 238.396 114.497 237.059 115.143C235.721 115.789 235.533 118.028 236.637 120.144C237.742 122.261 239.722 123.453 241.059 122.807Z" fill="#FFD1AE"/>
<path d="M100.082 163.02C92.0401 164.785 84.2608 167.097 84.2608 167.097L81.6386 172.688C79.8031 176.556 79.366 180.927 80.4586 185.089L80.8957 186.813L94.6186 176.135C94.6186 176.135 93.3512 183.786 94.4001 184.837C96.4979 182.02 103.665 171.343 103.665 171.343L100.082 163.02Z" fill="#FFC197"/>
<path d="M310.646 161.927C301.949 153.94 268.21 143.094 268.21 143.094L265.85 151.039C265.85 151.039 284.336 165.248 291.285 168.148C298.19 171.049 322.708 178.069 310.646 161.927Z" fill="#FFC197"/>
<path d="M270.701 143.767C270.001 142.674 268.821 138.848 267.161 136.873C263.708 135.443 261.873 134.014 259.469 133.636C257.065 135.191 252.651 144.103 252.782 145.238C252.913 146.373 261.13 151.628 261.13 151.628L267.816 151.67L270.701 143.767Z" fill="#FFC197"/>
<path d="M183.993 186.813C207.986 175.337 253.875 171.343 253.875 171.343C253.875 171.343 244.042 206.234 242.949 214.389C231.979 218.803 189.019 223.553 185.959 218.803C182.944 214.053 174.116 196.944 183.993 186.813Z" fill="#146635"/>
<path d="M228.483 296.193C205.801 296.571 160.961 295.394 160.961 295.394C160.961 295.394 153.094 292.284 158.514 283.708C191.685 270.929 210.827 275.301 219.568 278.075C219.874 278.159 220.223 278.201 220.486 278.159C223.414 282.531 227.434 290.812 228.483 296.193Z" fill="#CA973C"/>
<path d="M162.272 282.489C159.081 279.546 154.667 282.993 153.269 282.489C151.39 281.312 146.495 279.294 145.358 279.967C144.178 280.639 144.178 291.653 143.479 294.343C142.78 297.034 137.186 310.065 136.967 312.503C136.749 314.984 137.186 332.471 138.147 332.471C140.245 332.471 143.261 330.663 143.261 330.663C143.261 330.663 147.544 315.614 149.598 314.521C151.652 313.386 165.156 295.52 165.156 295.52C164.064 295.352 162.84 294.806 161.791 294.175C159.824 293.04 157.683 288.416 158.513 286.314L162.272 282.489Z" fill="#0E592C"/>
<path d="M382.233 174.832C394.663 174.832 404.74 165.139 404.74 153.183C404.74 141.226 394.663 131.534 382.233 131.534C369.802 131.534 359.725 141.226 359.725 153.183C359.725 165.139 369.802 174.832 382.233 174.832Z" fill="white"/>
<path d="M376.376 140.404L376.333 140.236C375.983 139.016 375.721 137.083 375.502 135.654C375.458 135.443 375.458 135.233 375.415 135.065L375.371 134.897L375.764 134.855L375.808 135.023C375.852 135.191 375.852 135.401 375.896 135.611C376.114 137.041 376.376 138.932 376.726 140.151L376.77 140.32L376.376 140.404Z" fill="#0E592C"/>
<path d="M363.396 149.442L363.265 149.105L363.44 149.063C364.401 148.769 367.33 147.844 369.996 147.718H370.17L370.214 148.096H370.039C367.461 148.265 364.533 149.147 363.571 149.442H363.396Z" fill="#0E592C"/>
<path d="M366.674 165.5L366.543 165.374C364.27 163.566 361.561 159.068 361.036 157.219L360.993 157.05L361.342 156.966L361.386 157.134C361.867 158.984 364.576 163.356 366.762 165.122L366.893 165.248L366.674 165.5Z" fill="#0E592C"/>
<path d="M373.361 164.407L373.011 164.281L373.055 164.113C373.623 162.473 374.934 158.227 375.196 155.495V155.327L375.59 155.369V155.537C375.284 158.311 374.016 162.599 373.405 164.239L373.361 164.407Z" fill="#0E592C"/>
<path d="M380.528 170.208L380.484 169.83H380.659C382.276 169.745 387.171 168.568 389.968 167.181L390.143 167.097L390.318 167.433L390.143 167.518C387.215 168.989 382.276 170.082 380.703 170.208H380.528Z" fill="#0E592C"/>
<path d="M392.372 158.69L392.241 158.564C391.061 157.092 386.69 153.729 385.248 152.847L385.073 152.763L385.292 152.468L385.467 152.552C386.953 153.435 391.367 156.84 392.59 158.354L392.721 158.48L392.372 158.69Z" fill="#0E592C"/>
<path d="M385.816 143.304L385.598 143.01L385.772 142.926C387.346 141.875 391.279 140.488 393.158 140.067L393.333 140.025L393.421 140.362L393.246 140.404C391.235 140.866 387.433 142.253 385.991 143.22L385.816 143.304Z" fill="#0E592C"/>
<path d="M400.107 155.705L399.758 155.579L399.845 155.411C400.894 153.015 400.457 146.919 400.02 145.995L399.933 145.826L400.282 145.7L400.37 145.869C400.894 147.004 401.244 153.183 400.195 155.579L400.107 155.705Z" fill="#0E592C"/>
<path d="M402.031 162.011L401.987 161.632H402.162C402.861 161.59 404.172 160.792 404.74 160.161L404.871 160.035L405.177 160.287L405.046 160.413C404.478 161.044 403.123 161.969 402.205 162.011H402.031Z" fill="#0E592C"/>
<path d="M394.688 173.151L394.382 172.898L394.513 172.772C395.693 171.469 396.174 169.788 396.218 169.073V168.905H396.611V169.073C396.568 169.914 396.043 171.637 394.819 173.024L394.688 173.151Z" fill="#0E592C"/>
<path d="M381.795 176.387L381.621 176.345C379.916 175.841 378.255 174.79 377.862 174.244L377.731 174.117L378.037 173.907L378.168 174.033C378.518 174.454 380.091 175.505 381.752 175.967L381.927 176.009L381.795 176.387Z" fill="#0E592C"/>
<path d="M391.76 135.317L391.673 135.149C390.755 133.888 386.559 131.702 383.063 131.45H382.888L382.932 131.071H383.107C386.822 131.366 391.061 133.594 391.979 134.939L392.066 135.107L391.76 135.317Z" fill="#0E592C"/>
<path d="M366.893 137.21C368.859 136.454 370.782 135.697 371.918 135.487C373.011 135.235 375.633 135.067 375.633 135.067C375.633 135.067 377.731 133.89 379.916 133.049C381.752 132.334 383.981 131.493 383.981 131.493C383.981 131.493 378.256 130.611 374.541 131.746C370.738 132.839 366.893 137.21 366.893 137.21Z" fill="#0E592C"/>
<path d="M376.507 140.193C376.507 140.193 375.021 141.497 373.492 143.262C372.006 145.028 370.039 147.844 370.039 147.844C370.039 147.844 371.219 149.778 372.574 151.754C373.929 153.729 375.415 155.495 375.415 155.495C375.415 155.495 378.037 154.864 380.353 154.192C382.669 153.519 385.379 152.636 385.379 152.636C385.379 152.636 385.772 150.24 385.86 147.802C385.947 145.406 385.86 142.968 385.86 142.968C385.86 142.968 384.112 142.169 381.446 141.328C378.78 140.572 376.507 140.193 376.507 140.193Z" fill="#0E592C"/>
<path d="M394.775 134.855C393.246 134.771 391.585 134.855 391.585 134.855C391.585 134.855 392.153 135.738 392.59 137.209C393.027 138.722 393.202 140.194 393.202 140.194C393.202 140.194 394.994 141.244 397.135 143.178C399.277 145.112 400.369 146.457 400.369 146.457C400.369 146.457 402.423 145.406 403.166 143.599C403.909 141.833 394.775 134.855 394.775 134.855Z" fill="#0E592C"/>
<path d="M363.003 141.917C363.003 141.917 362.61 144.103 362.828 145.953C363.047 147.844 363.527 149.147 363.527 149.147C363.527 149.147 362.741 150.198 362.26 152.721C361.823 155.243 361.561 157.933 361.561 157.933C361.561 157.933 357.671 156.714 357.321 155.495C356.972 154.234 362.435 141.917 362.435 141.917H363.003Z" fill="#0E592C"/>
<path d="M373.404 163.944C373.404 163.944 375.153 165.878 377.119 167.265C379.086 168.653 381.053 169.956 381.053 169.956C381.053 169.956 380.441 171.217 379.61 172.52C378.78 173.823 378.387 174.075 377.775 174.201C375.808 174.622 370.302 172.394 369.69 171.974C369.078 171.553 368.422 170.334 367.504 168.442C366.805 167.055 366.368 164.995 366.368 164.995C366.368 164.995 368.16 164.785 369.864 164.617C371.525 164.491 373.404 163.944 373.404 163.944Z" fill="#0E592C"/>
<path d="M400.064 155.033C400.064 155.033 400.894 156.084 401.55 157.975C402.205 159.867 402.205 161.843 402.205 161.843C402.205 161.843 401.55 163.44 400.064 165.248C398.578 167.097 396.393 169.073 396.393 169.073C396.393 169.073 395.344 169.157 393.508 168.653C391.673 168.19 390.056 167.349 390.056 167.349C390.056 167.349 390.973 165.5 391.542 163.314C392.153 161.086 392.372 158.438 392.372 158.438C392.372 158.438 394.513 157.849 396.393 157.05C398.272 156.252 400.064 155.033 400.064 155.033Z" fill="#0E592C"/>
<path d="M254.749 154.78C252.214 158.9 248.15 165.626 244.741 171.721L183.643 174.244C184.954 167.644 187.227 160.792 189.368 155.285C209.865 151.459 241.682 149.442 254.749 154.78Z" fill="#5AA364"/>
</svg>
